# Tiled2Unity generated file. Do not modify by hand.
# Wavefront file for 'menu_mesh_0011.obj'

# Vertices (Count = 24)
v -4.8 -3.2 0
v -5.12 -3.2 0
v -5.12 -2.88 0
v -4.8 -2.88 0
v -4.8 -3.52 0
v -5.12 -3.52 0
v -5.12 -3.2 0
v -4.8 -3.2 0
v -5.44 -3.84 0
v -5.76 -3.84 0
v -5.76 -3.52 0
v -5.44 -3.52 0
v -5.76 -3.84 0
v -6.08 -3.84 0
v -6.08 -3.52 0
v -5.76 -3.52 0
v -5.44 -4.16 0
v -5.76 -4.16 0
v -5.76 -3.84 0
v -5.44 -3.84 0
v -5.76 -4.16 0
v -6.08 -4.16 0
v -6.08 -3.84 0
v -5.76 -3.84 0

# Texture cooridinates (Count = 12)
vt 0.25 0.875
vt 0.3125 0.875
vt 0.3125 0.9375
vt 0.25 0.9375
vt 0.25 0.8125
vt 0.3125 0.8125
vt 0.375 0.875
vt 0.375 0.9375
vt 0.4375 0.875
vt 0.4375 0.9375
vt 0.375 0.8125
vt 0.4375 0.8125

# Normal
vn 0 0 -1

# Mesh description
g menu_mesh_0011

# Faces
f 1/1/1 2/2/1 3/3/1 4/4/1
f 5/5/1 6/6/1 7/2/1 8/1/1
f 9/2/1 10/7/1 11/8/1 12/3/1
f 13/7/1 14/9/1 15/10/1 16/8/1
f 17/6/1 18/11/1 19/7/1 20/2/1
f 21/11/1 22/12/1 23/9/1 24/7/1

