# Tiled2Unity generated file. Do not modify by hand.
# Wavefront file for 'menu_mesh_0001.obj'

# Vertices (Count = 512)
v -7.04 -2.56 0
v -7.36 -2.56 0
v -7.36 -2.24 0
v -7.04 -2.24 0
v -7.36 -2.56 0
v -7.68 -2.56 0
v -7.68 -2.24 0
v -7.36 -2.24 0
v -7.68 -2.56 0
v -8 -2.56 0
v -8 -2.24 0
v -7.68 -2.24 0
v -8 -2.56 0
v -8.32 -2.56 0
v -8.32 -2.24 0
v -8 -2.24 0
v -8.32 -2.56 0
v -8.639999 -2.56 0
v -8.639999 -2.24 0
v -8.32 -2.24 0
v -6.72 -2.88 0
v -7.04 -2.88 0
v -7.04 -2.56 0
v -6.72 -2.56 0
v -7.04 -2.88 0
v -7.36 -2.88 0
v -7.36 -2.56 0
v -7.04 -2.56 0
v -7.36 -2.88 0
v -7.68 -2.88 0
v -7.68 -2.56 0
v -7.36 -2.56 0
v -7.68 -2.88 0
v -8 -2.88 0
v -8 -2.56 0
v -7.68 -2.56 0
v -8 -2.88 0
v -8.32 -2.88 0
v -8.32 -2.56 0
v -8 -2.56 0
v -8.32 -2.88 0
v -8.639999 -2.88 0
v -8.639999 -2.56 0
v -8.32 -2.56 0
v -8.639999 -2.88 0
v -8.96 -2.88 0
v -8.96 -2.56 0
v -8.639999 -2.56 0
v -4.48 -3.2 0
v -4.8 -3.2 0
v -4.8 -2.88 0
v -4.48 -2.88 0
v -4.8 -3.2 0
v -5.12 -3.2 0
v -5.12 -2.88 0
v -4.8 -2.88 0
v -5.12 -3.2 0
v -5.44 -3.2 0
v -5.44 -2.88 0
v -5.12 -2.88 0
v -5.44 -3.2 0
v -5.76 -3.2 0
v -5.76 -2.88 0
v -5.44 -2.88 0
v -5.76 -3.2 0
v -6.08 -3.2 0
v -6.08 -2.88 0
v -5.76 -2.88 0
v -6.08 -3.2 0
v -6.4 -3.2 0
v -6.4 -2.88 0
v -6.08 -2.88 0
v -6.4 -3.2 0
v -6.72 -3.2 0
v -6.72 -2.88 0
v -6.4 -2.88 0
v -6.72 -3.2 0
v -7.04 -3.2 0
v -7.04 -2.88 0
v -6.72 -2.88 0
v -7.04 -3.2 0
v -7.36 -3.2 0
v -7.36 -2.88 0
v -7.04 -2.88 0
v -7.36 -3.2 0
v -7.68 -3.2 0
v -7.68 -2.88 0
v -7.36 -2.88 0
v -7.68 -3.2 0
v -8 -3.2 0
v -8 -2.88 0
v -7.68 -2.88 0
v -8 -3.2 0
v -8.32 -3.2 0
v -8.32 -2.88 0
v -8 -2.88 0
v -8.32 -3.2 0
v -8.639999 -3.2 0
v -8.639999 -2.88 0
v -8.32 -2.88 0
v -8.639999 -3.2 0
v -8.96 -3.2 0
v -8.96 -2.88 0
v -8.639999 -2.88 0
v -8.96 -3.2 0
v -9.28 -3.2 0
v -9.28 -2.88 0
v -8.96 -2.88 0
v -9.28 -3.2 0
v -9.599999 -3.2 0
v -9.599999 -2.88 0
v -9.28 -2.88 0
v -9.599999 -3.2 0
v -9.92 -3.2 0
v -9.92 -2.88 0
v -9.599999 -2.88 0
v -9.92 -3.2 0
v -10.24 -3.2 0
v -10.24 -2.88 0
v -9.92 -2.88 0
v -10.24 -3.2 0
v -10.56 -3.2 0
v -10.56 -2.88 0
v -10.24 -2.88 0
v -10.56 -3.2 0
v -10.88 -3.2 0
v -10.88 -2.88 0
v -10.56 -2.88 0
v -10.88 -3.2 0
v -11.2 -3.2 0
v -11.2 -2.88 0
v -10.88 -2.88 0
v -4.48 -3.52 0
v -4.8 -3.52 0
v -4.8 -3.2 0
v -4.48 -3.2 0
v -4.8 -3.52 0
v -5.12 -3.52 0
v -5.12 -3.2 0
v -4.8 -3.2 0
v -5.12 -3.52 0
v -5.44 -3.52 0
v -5.44 -3.2 0
v -5.12 -3.2 0
v -5.44 -3.52 0
v -5.76 -3.52 0
v -5.76 -3.2 0
v -5.44 -3.2 0
v -5.76 -3.52 0
v -6.08 -3.52 0
v -6.08 -3.2 0
v -5.76 -3.2 0
v -6.08 -3.52 0
v -6.4 -3.52 0
v -6.4 -3.2 0
v -6.08 -3.2 0
v -6.4 -3.52 0
v -6.72 -3.52 0
v -6.72 -3.2 0
v -6.4 -3.2 0
v -6.72 -3.52 0
v -7.04 -3.52 0
v -7.04 -3.2 0
v -6.72 -3.2 0
v -7.04 -3.52 0
v -7.36 -3.52 0
v -7.36 -3.2 0
v -7.04 -3.2 0
v -7.36 -3.52 0
v -7.68 -3.52 0
v -7.68 -3.2 0
v -7.36 -3.2 0
v -7.68 -3.52 0
v -8 -3.52 0
v -8 -3.2 0
v -7.68 -3.2 0
v -8 -3.52 0
v -8.32 -3.52 0
v -8.32 -3.2 0
v -8 -3.2 0
v -8.32 -3.52 0
v -8.639999 -3.52 0
v -8.639999 -3.2 0
v -8.32 -3.2 0
v -8.639999 -3.52 0
v -8.96 -3.52 0
v -8.96 -3.2 0
v -8.639999 -3.2 0
v -8.96 -3.52 0
v -9.28 -3.52 0
v -9.28 -3.2 0
v -8.96 -3.2 0
v -9.28 -3.52 0
v -9.599999 -3.52 0
v -9.599999 -3.2 0
v -9.28 -3.2 0
v -9.599999 -3.52 0
v -9.92 -3.52 0
v -9.92 -3.2 0
v -9.599999 -3.2 0
v -9.92 -3.52 0
v -10.24 -3.52 0
v -10.24 -3.2 0
v -9.92 -3.2 0
v -10.24 -3.52 0
v -10.56 -3.52 0
v -10.56 -3.2 0
v -10.24 -3.2 0
v -10.56 -3.52 0
v -10.88 -3.52 0
v -10.88 -3.2 0
v -10.56 -3.2 0
v -10.88 -3.52 0
v -11.2 -3.52 0
v -11.2 -3.2 0
v -10.88 -3.2 0
v -4.48 -3.84 0
v -4.8 -3.84 0
v -4.8 -3.52 0
v -4.48 -3.52 0
v -4.8 -3.84 0
v -5.12 -3.84 0
v -5.12 -3.52 0
v -4.8 -3.52 0
v -5.12 -3.84 0
v -5.44 -3.84 0
v -5.44 -3.52 0
v -5.12 -3.52 0
v -5.44 -3.84 0
v -5.76 -3.84 0
v -5.76 -3.52 0
v -5.44 -3.52 0
v -5.76 -3.84 0
v -6.08 -3.84 0
v -6.08 -3.52 0
v -5.76 -3.52 0
v -6.08 -3.84 0
v -6.4 -3.84 0
v -6.4 -3.52 0
v -6.08 -3.52 0
v -6.4 -3.84 0
v -6.72 -3.84 0
v -6.72 -3.52 0
v -6.4 -3.52 0
v -6.72 -3.84 0
v -7.04 -3.84 0
v -7.04 -3.52 0
v -6.72 -3.52 0
v -7.04 -3.84 0
v -7.36 -3.84 0
v -7.36 -3.52 0
v -7.04 -3.52 0
v -7.36 -3.84 0
v -7.68 -3.84 0
v -7.68 -3.52 0
v -7.36 -3.52 0
v -7.68 -3.84 0
v -8 -3.84 0
v -8 -3.52 0
v -7.68 -3.52 0
v -8.32 -3.84 0
v -8.639999 -3.84 0
v -8.639999 -3.52 0
v -8.32 -3.52 0
v -8.639999 -3.84 0
v -8.96 -3.84 0
v -8.96 -3.52 0
v -8.639999 -3.52 0
v -8.96 -3.84 0
v -9.28 -3.84 0
v -9.28 -3.52 0
v -8.96 -3.52 0
v -9.28 -3.84 0
v -9.599999 -3.84 0
v -9.599999 -3.52 0
v -9.28 -3.52 0
v -9.599999 -3.84 0
v -9.92 -3.84 0
v -9.92 -3.52 0
v -9.599999 -3.52 0
v -9.92 -3.84 0
v -10.24 -3.84 0
v -10.24 -3.52 0
v -9.92 -3.52 0
v -10.24 -3.84 0
v -10.56 -3.84 0
v -10.56 -3.52 0
v -10.24 -3.52 0
v -10.56 -3.84 0
v -10.88 -3.84 0
v -10.88 -3.52 0
v -10.56 -3.52 0
v -10.88 -3.84 0
v -11.2 -3.84 0
v -11.2 -3.52 0
v -10.88 -3.52 0
v -4.48 -4.16 0
v -4.8 -4.16 0
v -4.8 -3.84 0
v -4.48 -3.84 0
v -4.8 -4.16 0
v -5.12 -4.16 0
v -5.12 -3.84 0
v -4.8 -3.84 0
v -5.12 -4.16 0
v -5.44 -4.16 0
v -5.44 -3.84 0
v -5.12 -3.84 0
v -5.44 -4.16 0
v -5.76 -4.16 0
v -5.76 -3.84 0
v -5.44 -3.84 0
v -5.76 -4.16 0
v -6.08 -4.16 0
v -6.08 -3.84 0
v -5.76 -3.84 0
v -6.08 -4.16 0
v -6.4 -4.16 0
v -6.4 -3.84 0
v -6.08 -3.84 0
v -6.4 -4.16 0
v -6.72 -4.16 0
v -6.72 -3.84 0
v -6.4 -3.84 0
v -6.72 -4.16 0
v -7.04 -4.16 0
v -7.04 -3.84 0
v -6.72 -3.84 0
v -7.04 -4.16 0
v -7.36 -4.16 0
v -7.36 -3.84 0
v -7.04 -3.84 0
v -7.36 -4.16 0
v -7.68 -4.16 0
v -7.68 -3.84 0
v -7.36 -3.84 0
v -7.68 -4.16 0
v -8 -4.16 0
v -8 -3.84 0
v -7.68 -3.84 0
v -8 -4.16 0
v -8.32 -4.16 0
v -8.32 -3.84 0
v -8 -3.84 0
v -8.32 -4.16 0
v -8.639999 -4.16 0
v -8.639999 -3.84 0
v -8.32 -3.84 0
v -8.639999 -4.16 0
v -8.96 -4.16 0
v -8.96 -3.84 0
v -8.639999 -3.84 0
v -8.96 -4.16 0
v -9.28 -4.16 0
v -9.28 -3.84 0
v -8.96 -3.84 0
v -9.28 -4.16 0
v -9.599999 -4.16 0
v -9.599999 -3.84 0
v -9.28 -3.84 0
v -9.599999 -4.16 0
v -9.92 -4.16 0
v -9.92 -3.84 0
v -9.599999 -3.84 0
v -9.92 -4.16 0
v -10.24 -4.16 0
v -10.24 -3.84 0
v -9.92 -3.84 0
v -10.24 -4.16 0
v -10.56 -4.16 0
v -10.56 -3.84 0
v -10.24 -3.84 0
v -10.56 -4.16 0
v -10.88 -4.16 0
v -10.88 -3.84 0
v -10.56 -3.84 0
v -10.88 -4.16 0
v -11.2 -4.16 0
v -11.2 -3.84 0
v -10.88 -3.84 0
v -4.48 -4.48 0
v -4.8 -4.48 0
v -4.8 -4.16 0
v -4.48 -4.16 0
v -4.8 -4.48 0
v -5.12 -4.48 0
v -5.12 -4.16 0
v -4.8 -4.16 0
v -5.12 -4.48 0
v -5.44 -4.48 0
v -5.44 -4.16 0
v -5.12 -4.16 0
v -5.44 -4.48 0
v -5.76 -4.48 0
v -5.76 -4.16 0
v -5.44 -4.16 0
v -5.76 -4.48 0
v -6.08 -4.48 0
v -6.08 -4.16 0
v -5.76 -4.16 0
v -6.08 -4.48 0
v -6.4 -4.48 0
v -6.4 -4.16 0
v -6.08 -4.16 0
v -6.4 -4.48 0
v -6.72 -4.48 0
v -6.72 -4.16 0
v -6.4 -4.16 0
v -6.72 -4.48 0
v -7.04 -4.48 0
v -7.04 -4.16 0
v -6.72 -4.16 0
v -7.04 -4.48 0
v -7.36 -4.48 0
v -7.36 -4.16 0
v -7.04 -4.16 0
v -7.36 -4.48 0
v -7.68 -4.48 0
v -7.68 -4.16 0
v -7.36 -4.16 0
v -7.68 -4.48 0
v -8 -4.48 0
v -8 -4.16 0
v -7.68 -4.16 0
v -8 -4.48 0
v -8.32 -4.48 0
v -8.32 -4.16 0
v -8 -4.16 0
v -8.32 -4.48 0
v -8.639999 -4.48 0
v -8.639999 -4.16 0
v -8.32 -4.16 0
v -8.639999 -4.48 0
v -8.96 -4.48 0
v -8.96 -4.16 0
v -8.639999 -4.16 0
v -8.96 -4.48 0
v -9.28 -4.48 0
v -9.28 -4.16 0
v -8.96 -4.16 0
v -9.28 -4.48 0
v -9.599999 -4.48 0
v -9.599999 -4.16 0
v -9.28 -4.16 0
v -9.599999 -4.48 0
v -9.92 -4.48 0
v -9.92 -4.16 0
v -9.599999 -4.16 0
v -9.92 -4.48 0
v -10.24 -4.48 0
v -10.24 -4.16 0
v -9.92 -4.16 0
v -10.24 -4.48 0
v -10.56 -4.48 0
v -10.56 -4.16 0
v -10.24 -4.16 0
v -10.56 -4.48 0
v -10.88 -4.48 0
v -10.88 -4.16 0
v -10.56 -4.16 0
v -10.88 -4.48 0
v -11.2 -4.48 0
v -11.2 -4.16 0
v -10.88 -4.16 0
v -6.72 -4.8 0
v -7.04 -4.8 0
v -7.04 -4.48 0
v -6.72 -4.48 0
v -7.04 -4.8 0
v -7.36 -4.8 0
v -7.36 -4.48 0
v -7.04 -4.48 0
v -7.36 -4.8 0
v -7.68 -4.8 0
v -7.68 -4.48 0
v -7.36 -4.48 0
v -7.68 -4.8 0
v -8 -4.8 0
v -8 -4.48 0
v -7.68 -4.48 0
v -8 -4.8 0
v -8.32 -4.8 0
v -8.32 -4.48 0
v -8 -4.48 0
v -8.32 -4.8 0
v -8.639999 -4.8 0
v -8.639999 -4.48 0
v -8.32 -4.48 0
v -8.639999 -4.8 0
v -8.96 -4.8 0
v -8.96 -4.48 0
v -8.639999 -4.48 0
v -7.04 -5.12 0
v -7.36 -5.12 0
v -7.36 -4.8 0
v -7.04 -4.8 0
v -7.36 -5.12 0
v -7.68 -5.12 0
v -7.68 -4.8 0
v -7.36 -4.8 0
v -7.68 -5.12 0
v -8 -5.12 0
v -8 -4.8 0
v -7.68 -4.8 0
v -8 -5.12 0
v -8.32 -5.12 0
v -8.32 -4.8 0
v -8 -4.8 0
v -8.32 -5.12 0
v -8.639999 -5.12 0
v -8.639999 -4.8 0
v -8.32 -4.8 0

# Texture cooridinates (Count = 26)
vt 0.1875 0.71875
vt 0.21875 0.71875
vt 0.21875 0.75
vt 0.1875 0.75
vt 0.25 0.71875
vt 0.25 0.75
vt 0.28125 0.71875
vt 0.28125 0.75
vt 0.28125 0.78125
vt 0.25 0.78125
vt 0.1875 0.625
vt 0.21875 0.625
vt 0.21875 0.65625
vt 0.1875 0.65625
vt 0.25 0.625
vt 0.28125 0.625
vt 0.28125 0.65625
vt 0.25 0.65625
vt 0.21875 0.78125
vt 0.21875 0.6875
vt 0.25 0.6875
vt 0.1875 0.6875
vt 0.25 0.8125
vt 0.21875 0.8125
vt 0.28125 0.8125
vt 0.28125 0.6875

# Normal
vn 0 0 -1

# Mesh description
g menu_mesh_0001

# Faces
f 1/1/1 2/2/1 3/3/1 4/4/1
f 5/2/1 6/5/1 7/6/1 8/3/1
f 9/2/1 10/5/1 11/6/1 12/3/1
f 13/2/1 14/5/1 15/6/1 16/3/1
f 17/5/1 18/7/1 19/8/1 20/6/1
f 21/1/1 22/2/1 23/3/1 24/4/1
f 25/6/1 26/8/1 27/9/1 28/10/1
f 29/11/1 30/12/1 31/13/1 32/14/1
f 33/15/1 34/16/1 35/17/1 36/18/1
f 37/15/1 38/16/1 39/17/1 40/18/1
f 41/3/1 42/6/1 43/10/1 44/19/1
f 45/5/1 46/7/1 47/8/1 48/6/1
f 49/1/1 50/2/1 51/3/1 52/4/1
f 53/2/1 54/5/1 55/6/1 56/3/1
f 57/2/1 58/5/1 59/6/1 60/3/1
f 61/2/1 62/5/1 63/6/1 64/3/1
f 65/2/1 66/5/1 67/6/1 68/3/1
f 69/2/1 70/5/1 71/6/1 72/3/1
f 73/2/1 74/5/1 75/6/1 76/3/1
f 77/6/1 78/8/1 79/9/1 80/10/1
f 81/20/1 82/21/1 83/5/1 84/2/1
f 85/12/1 86/15/1 87/18/1 88/13/1
f 89/12/1 90/15/1 91/18/1 92/13/1
f 93/20/1 94/21/1 95/5/1 96/2/1
f 97/15/1 98/16/1 99/17/1 100/18/1
f 101/3/1 102/6/1 103/10/1 104/19/1
f 105/2/1 106/5/1 107/6/1 108/3/1
f 109/2/1 110/5/1 111/6/1 112/3/1
f 113/2/1 114/5/1 115/6/1 116/3/1
f 117/2/1 118/5/1 119/6/1 120/3/1
f 121/2/1 122/5/1 123/6/1 124/3/1
f 125/2/1 126/5/1 127/6/1 128/3/1
f 129/5/1 130/7/1 131/8/1 132/6/1
f 133/22/1 134/20/1 135/2/1 136/1/1
f 137/12/1 138/15/1 139/18/1 140/13/1
f 141/20/1 142/21/1 143/5/1 144/2/1
f 145/12/1 146/15/1 147/18/1 148/13/1
f 149/12/1 150/15/1 151/18/1 152/13/1
f 153/11/1 154/12/1 155/13/1 156/14/1
f 157/20/1 158/21/1 159/5/1 160/2/1
f 161/11/1 162/12/1 163/13/1 164/14/1
f 165/11/1 166/12/1 167/13/1 168/14/1
f 169/12/1 170/15/1 171/18/1 172/13/1
f 173/19/1 174/10/1 175/23/1 176/24/1
f 177/13/1 178/18/1 179/21/1 180/20/1
f 181/10/1 182/9/1 183/25/1 184/23/1
f 185/15/1 186/16/1 187/17/1 188/18/1
f 189/15/1 190/16/1 191/17/1 192/18/1
f 193/15/1 194/16/1 195/17/1 196/18/1
f 197/12/1 198/15/1 199/18/1 200/13/1
f 201/20/1 202/21/1 203/5/1 204/2/1
f 205/20/1 206/21/1 207/5/1 208/2/1
f 209/12/1 210/15/1 211/18/1 212/13/1
f 213/21/1 214/26/1 215/7/1 216/5/1
f 217/22/1 218/20/1 219/2/1 220/1/1
f 221/15/1 222/16/1 223/17/1 224/18/1
f 225/11/1 226/12/1 227/13/1 228/14/1
f 229/15/1 230/16/1 231/17/1 232/18/1
f 233/20/1 234/21/1 235/5/1 236/2/1
f 237/20/1 238/21/1 239/5/1 240/2/1
f 241/20/1 242/21/1 243/5/1 244/2/1
f 245/11/1 246/12/1 247/13/1 248/14/1
f 249/11/1 250/12/1 251/13/1 252/14/1
f 253/20/1 254/21/1 255/5/1 256/2/1
f 257/21/1 258/26/1 259/7/1 260/5/1
f 261/22/1 262/20/1 263/2/1 264/1/1
f 265/11/1 266/12/1 267/13/1 268/14/1
f 269/11/1 270/12/1 271/13/1 272/14/1
f 273/11/1 274/12/1 275/13/1 276/14/1
f 277/20/1 278/21/1 279/5/1 280/2/1
f 281/15/1 282/16/1 283/17/1 284/18/1
f 285/20/1 286/21/1 287/5/1 288/2/1
f 289/15/1 290/16/1 291/17/1 292/18/1
f 293/21/1 294/26/1 295/7/1 296/5/1
f 297/22/1 298/20/1 299/2/1 300/1/1
f 301/11/1 302/12/1 303/13/1 304/14/1
f 305/11/1 306/12/1 307/13/1 308/14/1
f 309/15/1 310/16/1 311/17/1 312/18/1
f 313/20/1 314/21/1 315/5/1 316/2/1
f 317/15/1 318/16/1 319/17/1 320/18/1
f 321/12/1 322/15/1 323/18/1 324/13/1
f 325/15/1 326/16/1 327/17/1 328/18/1
f 329/15/1 330/16/1 331/17/1 332/18/1
f 333/12/1 334/15/1 335/18/1 336/13/1
f 337/3/1 338/6/1 339/10/1 340/19/1
f 341/2/1 342/5/1 343/6/1 344/3/1
f 345/6/1 346/8/1 347/9/1 348/10/1
f 349/12/1 350/15/1 351/18/1 352/13/1
f 353/11/1 354/12/1 355/13/1 356/14/1
f 357/11/1 358/12/1 359/13/1 360/14/1
f 361/20/1 362/21/1 363/5/1 364/2/1
f 365/12/1 366/15/1 367/18/1 368/13/1
f 369/20/1 370/21/1 371/5/1 372/2/1
f 373/11/1 374/12/1 375/13/1 376/14/1
f 377/21/1 378/26/1 379/7/1 380/5/1
f 381/14/1 382/13/1 383/20/1 384/22/1
f 385/13/1 386/18/1 387/21/1 388/20/1
f 389/13/1 390/18/1 391/21/1 392/20/1
f 393/13/1 394/18/1 395/21/1 396/20/1
f 397/13/1 398/18/1 399/21/1 400/20/1
f 401/13/1 402/18/1 403/21/1 404/20/1
f 405/13/1 406/18/1 407/21/1 408/20/1
f 409/10/1 410/9/1 411/25/1 412/23/1
f 413/15/1 414/16/1 415/17/1 416/18/1
f 417/12/1 418/15/1 419/18/1 420/13/1
f 421/12/1 422/15/1 423/18/1 424/13/1
f 425/11/1 426/12/1 427/13/1 428/14/1
f 429/15/1 430/16/1 431/17/1 432/18/1
f 433/19/1 434/10/1 435/23/1 436/24/1
f 437/13/1 438/18/1 439/21/1 440/20/1
f 441/13/1 442/18/1 443/21/1 444/20/1
f 445/13/1 446/18/1 447/21/1 448/20/1
f 449/13/1 450/18/1 451/21/1 452/20/1
f 453/13/1 454/18/1 455/21/1 456/20/1
f 457/13/1 458/18/1 459/21/1 460/20/1
f 461/18/1 462/17/1 463/26/1 464/21/1
f 465/14/1 466/13/1 467/20/1 468/22/1
f 469/10/1 470/9/1 471/25/1 472/23/1
f 473/15/1 474/16/1 475/17/1 476/18/1
f 477/12/1 478/15/1 479/18/1 480/13/1
f 481/20/1 482/21/1 483/5/1 484/2/1
f 485/19/1 486/10/1 487/23/1 488/24/1
f 489/18/1 490/17/1 491/26/1 492/21/1
f 493/14/1 494/13/1 495/20/1 496/22/1
f 497/13/1 498/18/1 499/21/1 500/20/1
f 501/13/1 502/18/1 503/21/1 504/20/1
f 505/13/1 506/18/1 507/21/1 508/20/1
f 509/18/1 510/17/1 511/26/1 512/21/1

