# Tiled2Unity generated file. Do not modify by hand.
# Wavefront file for 'menu_mesh_0013.obj'

# Vertices (Count = 100)
v -8.639999 -2.24 0
v -8.96 -2.24 0
v -8.96 -1.92 0
v -8.639999 -1.92 0
v -8.96 -2.24 0
v -9.28 -2.24 0
v -9.28 -1.92 0
v -8.96 -1.92 0
v -9.28 -2.24 0
v -9.599999 -2.24 0
v -9.599999 -1.92 0
v -9.28 -1.92 0
v -9.599999 -2.24 0
v -9.92 -2.24 0
v -9.92 -1.92 0
v -9.599999 -1.92 0
v -9.92 -2.24 0
v -10.24 -2.24 0
v -10.24 -1.92 0
v -9.92 -1.92 0
v -8.639999 -2.56 0
v -8.96 -2.56 0
v -8.96 -2.24 0
v -8.639999 -2.24 0
v -8.96 -2.56 0
v -9.28 -2.56 0
v -9.28 -2.24 0
v -8.96 -2.24 0
v -9.28 -2.56 0
v -9.599999 -2.56 0
v -9.599999 -2.24 0
v -9.28 -2.24 0
v -9.599999 -2.56 0
v -9.92 -2.56 0
v -9.92 -2.24 0
v -9.599999 -2.24 0
v -9.92 -2.56 0
v -10.24 -2.56 0
v -10.24 -2.24 0
v -9.92 -2.24 0
v -8.639999 -2.88 0
v -8.96 -2.88 0
v -8.96 -2.56 0
v -8.639999 -2.56 0
v -8.96 -2.88 0
v -9.28 -2.88 0
v -9.28 -2.56 0
v -8.96 -2.56 0
v -9.28 -2.88 0
v -9.599999 -2.88 0
v -9.599999 -2.56 0
v -9.28 -2.56 0
v -9.599999 -2.88 0
v -9.92 -2.88 0
v -9.92 -2.56 0
v -9.599999 -2.56 0
v -9.92 -2.88 0
v -10.24 -2.88 0
v -10.24 -2.56 0
v -9.92 -2.56 0
v -8.639999 -3.2 0
v -8.96 -3.2 0
v -8.96 -2.88 0
v -8.639999 -2.88 0
v -8.96 -3.2 0
v -9.28 -3.2 0
v -9.28 -2.88 0
v -8.96 -2.88 0
v -9.28 -3.2 0
v -9.599999 -3.2 0
v -9.599999 -2.88 0
v -9.28 -2.88 0
v -9.599999 -3.2 0
v -9.92 -3.2 0
v -9.92 -2.88 0
v -9.599999 -2.88 0
v -9.92 -3.2 0
v -10.24 -3.2 0
v -10.24 -2.88 0
v -9.92 -2.88 0
v -8.639999 -3.52 0
v -8.96 -3.52 0
v -8.96 -3.2 0
v -8.639999 -3.2 0
v -8.96 -3.52 0
v -9.28 -3.52 0
v -9.28 -3.2 0
v -8.96 -3.2 0
v -9.28 -3.52 0
v -9.599999 -3.52 0
v -9.599999 -3.2 0
v -9.28 -3.2 0
v -9.599999 -3.52 0
v -9.92 -3.52 0
v -9.92 -3.2 0
v -9.599999 -3.2 0
v -9.92 -3.52 0
v -10.24 -3.52 0
v -10.24 -3.2 0
v -9.92 -3.2 0

# Texture cooridinates (Count = 42)
vt 0.5 0.9375
vt 0.5625 0.9375
vt 0.5625 1
vt 0.5 1
vt 0.625 0.9375
vt 0.625 1
vt 0.6875 0.9375
vt 0.6875 1
vt 0.75 0.9375
vt 0.75 1
vt 0.8125 0.9375
vt 0.8125 1
vt 0.5 0.875
vt 0.5625 0.875
vt 0.625 0.875
vt 0.6875 0.875
vt 0.75 0.875
vt 0.8125 0.875
vt 0.5 0.8125
vt 0.5625 0.8125
vt 0.625 0.8125
vt 0.6875 0.8125
vt 0.875 0.8125
vt 0.9375 0.8125
vt 0.9375 0.875
vt 0.875 0.875
vt 1 0.8125
vt 1 0.875
vt 0.5 0.75
vt 0.5625 0.75
vt 0.625 0.75
vt 0.6875 0.75
vt 0.875 0.75
vt 0.9375 0.75
vt 1 0.75
vt 0.5 0.6875
vt 0.5625 0.6875
vt 0.625 0.6875
vt 0.6875 0.6875
vt 0.875 0.6875
vt 0.9375 0.6875
vt 1 0.6875

# Normal
vn 0 0 -1

# Mesh description
g menu_mesh_0013

# Faces
f 1/1/1 2/2/1 3/3/1 4/4/1
f 5/2/1 6/5/1 7/6/1 8/3/1
f 9/5/1 10/7/1 11/8/1 12/6/1
f 13/7/1 14/9/1 15/10/1 16/8/1
f 17/9/1 18/11/1 19/12/1 20/10/1
f 21/13/1 22/14/1 23/2/1 24/1/1
f 25/14/1 26/15/1 27/5/1 28/2/1
f 29/15/1 30/16/1 31/7/1 32/5/1
f 33/16/1 34/17/1 35/9/1 36/7/1
f 37/17/1 38/18/1 39/11/1 40/9/1
f 41/19/1 42/20/1 43/14/1 44/13/1
f 45/20/1 46/21/1 47/15/1 48/14/1
f 49/21/1 50/22/1 51/16/1 52/15/1
f 53/23/1 54/24/1 55/25/1 56/26/1
f 57/24/1 58/27/1 59/28/1 60/25/1
f 61/29/1 62/30/1 63/20/1 64/19/1
f 65/30/1 66/31/1 67/21/1 68/20/1
f 69/31/1 70/32/1 71/22/1 72/21/1
f 73/33/1 74/34/1 75/24/1 76/23/1
f 77/34/1 78/35/1 79/27/1 80/24/1
f 81/36/1 82/37/1 83/30/1 84/29/1
f 85/37/1 86/38/1 87/31/1 88/30/1
f 89/38/1 90/39/1 91/32/1 92/31/1
f 93/40/1 94/41/1 95/34/1 96/33/1
f 97/41/1 98/42/1 99/35/1 100/34/1

