# Tiled2Unity generated file. Do not modify by hand.
# Wavefront file for 'menu_mesh_0012.obj'

# Vertices (Count = 32)
v -10.56 -3.2 0
v -10.88 -3.2 0
v -10.88 -2.88 0
v -10.56 -2.88 0
v -9.599999 -3.52 0
v -9.92 -3.52 0
v -9.92 -3.2 0
v -9.599999 -3.2 0
v -9.92 -3.52 0
v -10.24 -3.52 0
v -10.24 -3.2 0
v -9.92 -3.2 0
v -10.56 -3.52 0
v -10.88 -3.52 0
v -10.88 -3.2 0
v -10.56 -3.2 0
v -9.599999 -3.84 0
v -9.92 -3.84 0
v -9.92 -3.52 0
v -9.599999 -3.52 0
v -9.92 -3.84 0
v -10.24 -3.84 0
v -10.24 -3.52 0
v -9.92 -3.52 0
v -9.599999 -4.16 0
v -9.92 -4.16 0
v -9.92 -3.84 0
v -9.599999 -3.84 0
v -9.92 -4.16 0
v -10.24 -4.16 0
v -10.24 -3.84 0
v -9.92 -3.84 0

# Texture cooridinates (Count = 18)
vt 0.8125 0.4375
vt 0.875 0.4375
vt 0.875 0.5
vt 0.8125 0.5
vt 0.375 0.125
vt 0.4375 0.125
vt 0.4375 0.1875
vt 0.375 0.1875
vt 0.5 0.125
vt 0.5 0.1875
vt 0.8125 0.375
vt 0.875 0.375
vt 0.375 0.0625
vt 0.4375 0.0625
vt 0.5 0.0625
vt 0.375 0
vt 0.4375 0
vt 0.5 0

# Normal
vn 0 0 -1

# Mesh description
g menu_mesh_0012

# Faces
f 1/1/1 2/2/1 3/3/1 4/4/1
f 5/5/1 6/6/1 7/7/1 8/8/1
f 9/6/1 10/9/1 11/10/1 12/7/1
f 13/11/1 14/12/1 15/2/1 16/1/1
f 17/13/1 18/14/1 19/6/1 20/5/1
f 21/14/1 22/15/1 23/9/1 24/6/1
f 25/16/1 26/17/1 27/14/1 28/13/1
f 29/17/1 30/18/1 31/15/1 32/14/1

