# Tiled2Unity generated file. Do not modify by hand.
# Wavefront file for 'untitled_mesh_0054.obj'

# Vertices (Count = 80)
v -98.24 -116.8 0
v -98.56 -116.8 0
v -98.56 -116.48 0
v -98.24 -116.48 0
v -97.28 -117.12 0
v -97.6 -117.12 0
v -97.6 -116.8 0
v -97.28 -116.8 0
v -97.6 -117.12 0
v -97.92 -117.12 0
v -97.92 -116.8 0
v -97.6 -116.8 0
v -97.92 -118.72 0
v -98.24 -118.72 0
v -98.24 -118.4 0
v -97.92 -118.4 0
v -96 -120 0
v -96.32 -120 0
v -96.32 -119.68 0
v -96 -119.68 0
v -92.8 -120.32 0
v -93.12 -120.32 0
v -93.12 -120 0
v -92.8 -120 0
v -105.6 -120.32 0
v -105.92 -120.32 0
v -105.92 -120 0
v -105.6 -120 0
v -94.07999 -121.28 0
v -94.4 -121.28 0
v -94.4 -120.96 0
v -94.07999 -120.96 0
v -97.28 -121.28 0
v -97.6 -121.28 0
v -97.6 -120.96 0
v -97.28 -120.96 0
v -97.6 -121.28 0
v -97.92 -121.28 0
v -97.92 -120.96 0
v -97.6 -120.96 0
v -102.08 -121.28 0
v -102.4 -121.28 0
v -102.4 -120.96 0
v -102.08 -120.96 0
v -104.32 -121.6 0
v -104.64 -121.6 0
v -104.64 -121.28 0
v -104.32 -121.28 0
v -100.48 -121.92 0
v -100.8 -121.92 0
v -100.8 -121.6 0
v -100.48 -121.6 0
v -102.08 -122.56 0
v -102.4 -122.56 0
v -102.4 -122.24 0
v -102.08 -122.24 0
v -102.72 -122.56 0
v -103.04 -122.56 0
v -103.04 -122.24 0
v -102.72 -122.24 0
v -104 -122.56 0
v -104.32 -122.56 0
v -104.32 -122.24 0
v -104 -122.24 0
v -105.28 -122.88 0
v -105.6 -122.88 0
v -105.6 -122.56 0
v -105.28 -122.56 0
v -104.32 -123.52 0
v -104.64 -123.52 0
v -104.64 -123.2 0
v -104.32 -123.2 0
v -101.12 -124.16 0
v -101.44 -124.16 0
v -101.44 -123.84 0
v -101.12 -123.84 0
v -102.08 -124.48 0
v -102.4 -124.48 0
v -102.4 -124.16 0
v -102.08 -124.16 0

# Texture cooridinates (Count = 13)
vt 0.25 0.9375
vt 0.3125 0.9375
vt 0.3125 1
vt 0.25 1
vt 0.3125 0.875
vt 0.375 0.875
vt 0.375 0.9375
vt 0.4375 0.875
vt 0.4375 0.9375
vt 0.5 0.9375
vt 0.5 1
vt 0.4375 1
vt 0.5 0.875

# Normal
vn 0 0 -1

# Mesh description
g untitled_mesh_0054

# Faces
f 1/1/1 2/2/1 3/3/1 4/4/1
f 5/5/1 6/6/1 7/7/1 8/2/1
f 9/6/1 10/8/1 11/9/1 12/7/1
f 13/9/1 14/10/1 15/11/1 16/12/1
f 17/9/1 18/10/1 19/11/1 20/12/1
f 21/9/1 22/10/1 23/11/1 24/12/1
f 25/1/1 26/2/1 27/3/1 28/4/1
f 29/1/1 30/2/1 31/3/1 32/4/1
f 33/5/1 34/6/1 35/7/1 36/2/1
f 37/6/1 38/8/1 39/9/1 40/7/1
f 41/8/1 42/13/1 43/10/1 44/9/1
f 45/9/1 46/10/1 47/11/1 48/12/1
f 49/1/1 50/2/1 51/3/1 52/4/1
f 53/1/1 54/2/1 55/3/1 56/4/1
f 57/9/1 58/10/1 59/11/1 60/12/1
f 61/1/1 62/2/1 63/3/1 64/4/1
f 65/9/1 66/10/1 67/11/1 68/12/1
f 69/1/1 70/2/1 71/3/1 72/4/1
f 73/8/1 74/13/1 75/10/1 76/9/1
f 77/1/1 78/2/1 79/3/1 80/4/1

