# Tiled2Unity generated file. Do not modify by hand.
# Wavefront file for 'untitled_mesh_0095.obj'

# Vertices (Count = 204)
v -71.36 -54.4 0
v -71.68 -54.4 0
v -71.68 -54.08 0
v -71.36 -54.08 0
v -71.68 -54.4 0
v -72 -54.4 0
v -72 -54.08 0
v -71.68 -54.08 0
v -71.36 -54.72 0
v -71.68 -54.72 0
v -71.68 -54.4 0
v -71.36 -54.4 0
v -71.68 -54.72 0
v -72 -54.72 0
v -72 -54.4 0
v -71.68 -54.4 0
v -72 -54.72 0
v -72.32 -54.72 0
v -72.32 -54.4 0
v -72 -54.4 0
v -71.04 -55.04 0
v -71.36 -55.04 0
v -71.36 -54.72 0
v -71.04 -54.72 0
v -71.36 -55.04 0
v -71.68 -55.04 0
v -71.68 -54.72 0
v -71.36 -54.72 0
v -71.68 -55.04 0
v -72 -55.04 0
v -72 -54.72 0
v -71.68 -54.72 0
v -72 -55.04 0
v -72.32 -55.04 0
v -72.32 -54.72 0
v -72 -54.72 0
v -72.32 -55.04 0
v -72.64 -55.04 0
v -72.64 -54.72 0
v -72.32 -54.72 0
v -72.64 -55.04 0
v -72.96 -55.04 0
v -72.96 -54.72 0
v -72.64 -54.72 0
v -72.96 -55.04 0
v -73.28 -55.04 0
v -73.28 -54.72 0
v -72.96 -54.72 0
v -71.04 -55.36 0
v -71.36 -55.36 0
v -71.36 -55.04 0
v -71.04 -55.04 0
v -71.36 -55.36 0
v -71.68 -55.36 0
v -71.68 -55.04 0
v -71.36 -55.04 0
v -71.68 -55.36 0
v -72 -55.36 0
v -72 -55.04 0
v -71.68 -55.04 0
v -72 -55.36 0
v -72.32 -55.36 0
v -72.32 -55.04 0
v -72 -55.04 0
v -72.32 -55.36 0
v -72.64 -55.36 0
v -72.64 -55.04 0
v -72.32 -55.04 0
v -72.64 -55.36 0
v -72.96 -55.36 0
v -72.96 -55.04 0
v -72.64 -55.04 0
v -72.96 -55.36 0
v -73.28 -55.36 0
v -73.28 -55.04 0
v -72.96 -55.04 0
v -71.04 -55.68 0
v -71.36 -55.68 0
v -71.36 -55.36 0
v -71.04 -55.36 0
v -71.36 -55.68 0
v -71.68 -55.68 0
v -71.68 -55.36 0
v -71.36 -55.36 0
v -71.68 -55.68 0
v -72 -55.68 0
v -72 -55.36 0
v -71.68 -55.36 0
v -72 -55.68 0
v -72.32 -55.68 0
v -72.32 -55.36 0
v -72 -55.36 0
v -72.32 -55.68 0
v -72.64 -55.68 0
v -72.64 -55.36 0
v -72.32 -55.36 0
v -72.64 -55.68 0
v -72.96 -55.68 0
v -72.96 -55.36 0
v -72.64 -55.36 0
v -72.96 -55.68 0
v -73.28 -55.68 0
v -73.28 -55.36 0
v -72.96 -55.36 0
v -71.04 -56 0
v -71.36 -56 0
v -71.36 -55.68 0
v -71.04 -55.68 0
v -71.36 -56 0
v -71.68 -56 0
v -71.68 -55.68 0
v -71.36 -55.68 0
v -71.68 -56 0
v -72 -56 0
v -72 -55.68 0
v -71.68 -55.68 0
v -72 -56 0
v -72.32 -56 0
v -72.32 -55.68 0
v -72 -55.68 0
v -72.32 -56 0
v -72.64 -56 0
v -72.64 -55.68 0
v -72.32 -55.68 0
v -72.64 -56 0
v -72.96 -56 0
v -72.96 -55.68 0
v -72.64 -55.68 0
v -72.96 -56 0
v -73.28 -56 0
v -73.28 -55.68 0
v -72.96 -55.68 0
v -71.04 -56.32 0
v -71.36 -56.32 0
v -71.36 -56 0
v -71.04 -56 0
v -71.36 -56.32 0
v -71.68 -56.32 0
v -71.68 -56 0
v -71.36 -56 0
v -71.68 -56.32 0
v -72 -56.32 0
v -72 -56 0
v -71.68 -56 0
v -72 -56.32 0
v -72.32 -56.32 0
v -72.32 -56 0
v -72 -56 0
v -72.32 -56.32 0
v -72.64 -56.32 0
v -72.64 -56 0
v -72.32 -56 0
v -72.64 -56.32 0
v -72.96 -56.32 0
v -72.96 -56 0
v -72.64 -56 0
v -72.96 -56.32 0
v -73.28 -56.32 0
v -73.28 -56 0
v -72.96 -56 0
v -71.04 -56.64 0
v -71.36 -56.64 0
v -71.36 -56.32 0
v -71.04 -56.32 0
v -71.36 -56.64 0
v -71.68 -56.64 0
v -71.68 -56.32 0
v -71.36 -56.32 0
v -71.68 -56.64 0
v -72 -56.64 0
v -72 -56.32 0
v -71.68 -56.32 0
v -72 -56.64 0
v -72.32 -56.64 0
v -72.32 -56.32 0
v -72 -56.32 0
v -72.32 -56.64 0
v -72.64 -56.64 0
v -72.64 -56.32 0
v -72.32 -56.32 0
v -72.64 -56.64 0
v -72.96 -56.64 0
v -72.96 -56.32 0
v -72.64 -56.32 0
v -72.96 -56.64 0
v -73.28 -56.64 0
v -73.28 -56.32 0
v -72.96 -56.32 0
v -95.36 -122.24 0
v -95.68 -122.24 0
v -95.68 -121.92 0
v -95.36 -121.92 0
v -96.96 -122.24 0
v -97.28 -122.24 0
v -97.28 -121.92 0
v -96.96 -121.92 0
v -95.36 -122.56 0
v -95.68 -122.56 0
v -95.68 -122.24 0
v -95.36 -122.24 0
v -96.96 -122.56 0
v -97.28 -122.56 0
v -97.28 -122.24 0
v -96.96 -122.24 0

# Texture cooridinates (Count = 69)
vt 0.5 0.5625
vt 0.5625 0.5625
vt 0.5625 0.625
vt 0.5 0.625
vt 0.625 0.5625
vt 0.625 0.625
vt 0.5 0.5
vt 0.5625 0.5
vt 0.625 0.5
vt 0.6875 0.5
vt 0.6875 0.5625
vt 0.4375 0.4375
vt 0.5 0.4375
vt 0.4375 0.5
vt 0.5625 0.4375
vt 0.625 0.4375
vt 0.6875 0.4375
vt 0.75 0.4375
vt 0.75 0.5
vt 0.8125 0.4375
vt 0.8125 0.5
vt 0.875 0.4375
vt 0.875 0.5
vt 0.4375 0.375
vt 0.5 0.375
vt 0.5625 0.375
vt 0.625 0.375
vt 0.6875 0.375
vt 0.75 0.375
vt 0.8125 0.375
vt 0.875 0.375
vt 0.4375 0.3125
vt 0.5 0.3125
vt 0.5625 0.3125
vt 0.625 0.3125
vt 0.6875 0.3125
vt 0.75 0.3125
vt 0.8125 0.3125
vt 0.875 0.3125
vt 0.4375 0.25
vt 0.5 0.25
vt 0.5625 0.25
vt 0.625 0.25
vt 0.6875 0.25
vt 0.75 0.25
vt 0.8125 0.25
vt 0.875 0.25
vt 0.4375 0.1875
vt 0.5 0.1875
vt 0.5625 0.1875
vt 0.625 0.1875
vt 0.6875 0.1875
vt 0.75 0.1875
vt 0.8125 0.1875
vt 0.875 0.1875
vt 0.4375 0.125
vt 0.5 0.125
vt 0.5625 0.125
vt 0.625 0.125
vt 0.6875 0.125
vt 0.75 0.125
vt 0.8125 0.125
vt 0.875 0.125
vt 0 0.0625
vt 0.0625 0.0625
vt 0.0625 0.125
vt 0 0.125
vt 0 0
vt 0.0625 0

# Normal
vn 0 0 -1

# Mesh description
g untitled_mesh_0095

# Faces
f 1/1/1 2/2/1 3/3/1 4/4/1
f 5/2/1 6/5/1 7/6/1 8/3/1
f 9/7/1 10/8/1 11/2/1 12/1/1
f 13/8/1 14/9/1 15/5/1 16/2/1
f 17/9/1 18/10/1 19/11/1 20/5/1
f 21/12/1 22/13/1 23/7/1 24/14/1
f 25/13/1 26/15/1 27/8/1 28/7/1
f 29/15/1 30/16/1 31/9/1 32/8/1
f 33/16/1 34/17/1 35/10/1 36/9/1
f 37/17/1 38/18/1 39/19/1 40/10/1
f 41/18/1 42/20/1 43/21/1 44/19/1
f 45/20/1 46/22/1 47/23/1 48/21/1
f 49/24/1 50/25/1 51/13/1 52/12/1
f 53/25/1 54/26/1 55/15/1 56/13/1
f 57/26/1 58/27/1 59/16/1 60/15/1
f 61/27/1 62/28/1 63/17/1 64/16/1
f 65/28/1 66/29/1 67/18/1 68/17/1
f 69/29/1 70/30/1 71/20/1 72/18/1
f 73/30/1 74/31/1 75/22/1 76/20/1
f 77/32/1 78/33/1 79/25/1 80/24/1
f 81/33/1 82/34/1 83/26/1 84/25/1
f 85/34/1 86/35/1 87/27/1 88/26/1
f 89/35/1 90/36/1 91/28/1 92/27/1
f 93/36/1 94/37/1 95/29/1 96/28/1
f 97/37/1 98/38/1 99/30/1 100/29/1
f 101/38/1 102/39/1 103/31/1 104/30/1
f 105/40/1 106/41/1 107/33/1 108/32/1
f 109/41/1 110/42/1 111/34/1 112/33/1
f 113/42/1 114/43/1 115/35/1 116/34/1
f 117/43/1 118/44/1 119/36/1 120/35/1
f 121/44/1 122/45/1 123/37/1 124/36/1
f 125/45/1 126/46/1 127/38/1 128/37/1
f 129/46/1 130/47/1 131/39/1 132/38/1
f 133/48/1 134/49/1 135/41/1 136/40/1
f 137/49/1 138/50/1 139/42/1 140/41/1
f 141/50/1 142/51/1 143/43/1 144/42/1
f 145/51/1 146/52/1 147/44/1 148/43/1
f 149/52/1 150/53/1 151/45/1 152/44/1
f 153/53/1 154/54/1 155/46/1 156/45/1
f 157/54/1 158/55/1 159/47/1 160/46/1
f 161/56/1 162/57/1 163/49/1 164/48/1
f 165/57/1 166/58/1 167/50/1 168/49/1
f 169/58/1 170/59/1 171/51/1 172/50/1
f 173/59/1 174/60/1 175/52/1 176/51/1
f 177/60/1 178/61/1 179/53/1 180/52/1
f 181/61/1 182/62/1 183/54/1 184/53/1
f 185/62/1 186/63/1 187/55/1 188/54/1
f 189/64/1 190/65/1 191/66/1 192/67/1
f 193/64/1 194/65/1 195/66/1 196/67/1
f 197/68/1 198/69/1 199/65/1 200/64/1
f 201/68/1 202/69/1 203/65/1 204/64/1

