# Tiled2Unity generated file. Do not modify by hand.
# Wavefront file for 'untitled_mesh_0050.obj'

# Vertices (Count = 384)
v -147.2 -31.68 0
v -147.52 -31.68 0
v -147.52 -31.36 0
v -147.2 -31.36 0
v -134.72 -73.28 0
v -135.04 -73.28 0
v -135.04 -72.96 0
v -134.72 -72.96 0
v -135.04 -73.28 0
v -135.36 -73.28 0
v -135.36 -72.96 0
v -135.04 -72.96 0
v -94.07999 -169.6 0
v -94.4 -169.6 0
v -94.4 -169.28 0
v -94.07999 -169.28 0
v -96 -169.6 0
v -96.32 -169.6 0
v -96.32 -169.28 0
v -96 -169.28 0
v -96.32 -169.6 0
v -96.64 -169.6 0
v -96.64 -169.28 0
v -96.32 -169.28 0
v -98.24 -169.6 0
v -98.56 -169.6 0
v -98.56 -169.28 0
v -98.24 -169.28 0
v -92.16 -169.92 0
v -92.48 -169.92 0
v -92.48 -169.6 0
v -92.16 -169.6 0
v -92.48 -169.92 0
v -92.8 -169.92 0
v -92.8 -169.6 0
v -92.48 -169.6 0
v -92.8 -169.92 0
v -93.12 -169.92 0
v -93.12 -169.6 0
v -92.8 -169.6 0
v -92.16 -170.24 0
v -92.48 -170.24 0
v -92.48 -169.92 0
v -92.16 -169.92 0
v -92.48 -170.24 0
v -92.8 -170.24 0
v -92.8 -169.92 0
v -92.48 -169.92 0
v -92.8 -170.24 0
v -93.12 -170.24 0
v -93.12 -169.92 0
v -92.8 -169.92 0
v -91.84 -170.56 0
v -92.16 -170.56 0
v -92.16 -170.24 0
v -91.84 -170.24 0
v -92.48 -170.56 0
v -92.8 -170.56 0
v -92.8 -170.24 0
v -92.48 -170.24 0
v -98.56 -170.56 0
v -98.88 -170.56 0
v -98.88 -170.24 0
v -98.56 -170.24 0
v -99.84 -170.56 0
v -100.16 -170.56 0
v -100.16 -170.24 0
v -99.84 -170.24 0
v -102.4 -170.56 0
v -102.72 -170.56 0
v -102.72 -170.24 0
v -102.4 -170.24 0
v -95.36 -170.88 0
v -95.68 -170.88 0
v -95.68 -170.56 0
v -95.36 -170.56 0
v -96.96 -170.88 0
v -97.28 -170.88 0
v -97.28 -170.56 0
v -96.96 -170.56 0
v -98.56 -170.88 0
v -98.88 -170.88 0
v -98.88 -170.56 0
v -98.56 -170.56 0
v -101.12 -170.88 0
v -101.44 -170.88 0
v -101.44 -170.56 0
v -101.12 -170.56 0
v -93.12 -171.2 0
v -93.43999 -171.2 0
v -93.43999 -170.88 0
v -93.12 -170.88 0
v -93.43999 -171.2 0
v -93.75999 -171.2 0
v -93.75999 -170.88 0
v -93.43999 -170.88 0
v -95.04 -171.84 0
v -95.36 -171.84 0
v -95.36 -171.52 0
v -95.04 -171.52 0
v -93.43999 -172.16 0
v -93.75999 -172.16 0
v -93.75999 -171.84 0
v -93.43999 -171.84 0
v -96.96 -172.16 0
v -97.28 -172.16 0
v -97.28 -171.84 0
v -96.96 -171.84 0
v -84.48 -172.48 0
v -84.8 -172.48 0
v -84.8 -172.16 0
v -84.48 -172.16 0
v -98.24 -172.48 0
v -98.56 -172.48 0
v -98.56 -172.16 0
v -98.24 -172.16 0
v -87.04 -173.76 0
v -87.36 -173.76 0
v -87.36 -173.44 0
v -87.04 -173.44 0
v -88 -173.76 0
v -88.32 -173.76 0
v -88.32 -173.44 0
v -88 -173.44 0
v -89.6 -173.76 0
v -89.92 -173.76 0
v -89.92 -173.44 0
v -89.6 -173.44 0
v -86.72 -174.08 0
v -87.04 -174.08 0
v -87.04 -173.76 0
v -86.72 -173.76 0
v -88 -174.08 0
v -88.32 -174.08 0
v -88.32 -173.76 0
v -88 -173.76 0
v -90.88 -174.08 0
v -91.2 -174.08 0
v -91.2 -173.76 0
v -90.88 -173.76 0
v -92.16 -174.08 0
v -92.48 -174.08 0
v -92.48 -173.76 0
v -92.16 -173.76 0
v -88.32 -174.72 0
v -88.64 -174.72 0
v -88.64 -174.4 0
v -88.32 -174.4 0
v -85.43999 -175.36 0
v -85.75999 -175.36 0
v -85.75999 -175.04 0
v -85.43999 -175.04 0
v -89.6 -175.36 0
v -89.92 -175.36 0
v -89.92 -175.04 0
v -89.6 -175.04 0
v -91.84 -175.36 0
v -92.16 -175.36 0
v -92.16 -175.04 0
v -91.84 -175.04 0
v -83.84 -176 0
v -84.16 -176 0
v -84.16 -175.68 0
v -83.84 -175.68 0
v -85.75999 -176 0
v -86.08 -176 0
v -86.08 -175.68 0
v -85.75999 -175.68 0
v -88 -176 0
v -88.32 -176 0
v -88.32 -175.68 0
v -88 -175.68 0
v -93.75999 -176 0
v -94.07999 -176 0
v -94.07999 -175.68 0
v -93.75999 -175.68 0
v -87.36 -176.32 0
v -87.68 -176.32 0
v -87.68 -176 0
v -87.36 -176 0
v -88 -176.32 0
v -88.32 -176.32 0
v -88.32 -176 0
v -88 -176 0
v -81.6 -176.64 0
v -81.92 -176.64 0
v -81.92 -176.32 0
v -81.6 -176.32 0
v -84.8 -176.64 0
v -85.12 -176.64 0
v -85.12 -176.32 0
v -84.8 -176.32 0
v -89.92 -176.64 0
v -90.24 -176.64 0
v -90.24 -176.32 0
v -89.92 -176.32 0
v -83.52 -176.96 0
v -83.84 -176.96 0
v -83.84 -176.64 0
v -83.52 -176.64 0
v -94.07999 -176.96 0
v -94.4 -176.96 0
v -94.4 -176.64 0
v -94.07999 -176.64 0
v -80 -177.28 0
v -80.32 -177.28 0
v -80.32 -176.96 0
v -80 -176.96 0
v -80.64 -177.28 0
v -80.96 -177.28 0
v -80.96 -176.96 0
v -80.64 -176.96 0
v -88.96 -177.28 0
v -89.28 -177.28 0
v -89.28 -176.96 0
v -88.96 -176.96 0
v -86.4 -177.6 0
v -86.72 -177.6 0
v -86.72 -177.28 0
v -86.4 -177.28 0
v -92.48 -177.6 0
v -92.8 -177.6 0
v -92.8 -177.28 0
v -92.48 -177.28 0
v -89.92 -177.92 0
v -90.24 -177.92 0
v -90.24 -177.6 0
v -89.92 -177.6 0
v -91.52 -178.56 0
v -91.84 -178.56 0
v -91.84 -178.24 0
v -91.52 -178.24 0
v -81.28 -178.88 0
v -81.6 -178.88 0
v -81.6 -178.56 0
v -81.28 -178.56 0
v -87.68 -178.88 0
v -88 -178.88 0
v -88 -178.56 0
v -87.68 -178.56 0
v -93.12 -178.88 0
v -93.43999 -178.88 0
v -93.43999 -178.56 0
v -93.12 -178.56 0
v -93.43999 -178.88 0
v -93.75999 -178.88 0
v -93.75999 -178.56 0
v -93.43999 -178.56 0
v -95.04 -178.88 0
v -95.36 -178.88 0
v -95.36 -178.56 0
v -95.04 -178.56 0
v -99.52 -178.88 0
v -99.84 -178.88 0
v -99.84 -178.56 0
v -99.52 -178.56 0
v -83.2 -179.2 0
v -83.52 -179.2 0
v -83.52 -178.88 0
v -83.2 -178.88 0
v -93.12 -179.2 0
v -93.43999 -179.2 0
v -93.43999 -178.88 0
v -93.12 -178.88 0
v -98.24 -179.2 0
v -98.56 -179.2 0
v -98.56 -178.88 0
v -98.24 -178.88 0
v -90.56 -179.52 0
v -90.88 -179.52 0
v -90.88 -179.2 0
v -90.56 -179.2 0
v -96.32 -179.52 0
v -96.64 -179.52 0
v -96.64 -179.2 0
v -96.32 -179.2 0
v -80.32 -179.84 0
v -80.64 -179.84 0
v -80.64 -179.52 0
v -80.32 -179.52 0
v -94.72 -180.16 0
v -95.04 -180.16 0
v -95.04 -179.84 0
v -94.72 -179.84 0
v -81.6 -180.48 0
v -81.92 -180.48 0
v -81.92 -180.16 0
v -81.6 -180.16 0
v -83.52 -180.48 0
v -83.84 -180.48 0
v -83.84 -180.16 0
v -83.52 -180.16 0
v -92.16 -180.48 0
v -92.48 -180.48 0
v -92.48 -180.16 0
v -92.16 -180.16 0
v -99.2 -180.48 0
v -99.52 -180.48 0
v -99.52 -180.16 0
v -99.2 -180.16 0
v -96.32 -180.8 0
v -96.64 -180.8 0
v -96.64 -180.48 0
v -96.32 -180.48 0
v -93.12 -181.76 0
v -93.43999 -181.76 0
v -93.43999 -181.44 0
v -93.12 -181.44 0
v -92.48 -182.72 0
v -92.8 -182.72 0
v -92.8 -182.4 0
v -92.48 -182.4 0
v -92.8 -182.72 0
v -93.12 -182.72 0
v -93.12 -182.4 0
v -92.8 -182.4 0
v -95.04 -183.04 0
v -95.36 -183.04 0
v -95.36 -182.72 0
v -95.04 -182.72 0
v -91.2 -183.36 0
v -91.52 -183.36 0
v -91.52 -183.04 0
v -91.2 -183.04 0
v -92.48 -184.96 0
v -92.8 -184.96 0
v -92.8 -184.64 0
v -92.48 -184.64 0
v -93.12 -184.96 0
v -93.43999 -184.96 0
v -93.43999 -184.64 0
v -93.12 -184.64 0
v -93.43999 -185.92 0
v -93.75999 -185.92 0
v -93.75999 -185.6 0
v -93.43999 -185.6 0
v -91.84 -186.88 0
v -92.16 -186.88 0
v -92.16 -186.56 0
v -91.84 -186.56 0
v -91.2 -188.16 0
v -91.52 -188.16 0
v -91.52 -187.84 0
v -91.2 -187.84 0
v -93.12 -189.12 0
v -93.43999 -189.12 0
v -93.43999 -188.8 0
v -93.12 -188.8 0
v -91.2 -190.08 0
v -91.52 -190.08 0
v -91.52 -189.76 0
v -91.2 -189.76 0
v -92.48 -190.4 0
v -92.8 -190.4 0
v -92.8 -190.08 0
v -92.48 -190.08 0
v -95.04 -190.72 0
v -95.36 -190.72 0
v -95.36 -190.4 0
v -95.04 -190.4 0
v -93.43999 -191.04 0
v -93.75999 -191.04 0
v -93.75999 -190.72 0
v -93.43999 -190.72 0
v -93.43999 -191.36 0
v -93.75999 -191.36 0
v -93.75999 -191.04 0
v -93.43999 -191.04 0
v -95.36 -191.36 0
v -95.68 -191.36 0
v -95.68 -191.04 0
v -95.36 -191.04 0
v -91.84 -192.32 0
v -92.16 -192.32 0
v -92.16 -192 0
v -91.84 -192 0
v -94.4 -192.32 0
v -94.72 -192.32 0
v -94.72 -192 0
v -94.4 -192 0
v -92.48 -192.64 0
v -92.8 -192.64 0
v -92.8 -192.32 0
v -92.48 -192.32 0

# Texture cooridinates (Count = 28)
vt 0.125 0.6875
vt 0.1875 0.6875
vt 0.1875 0.75
vt 0.125 0.75
vt 0.0625 0.375
vt 0.125 0.375
vt 0.125 0.4375
vt 0.0625 0.4375
vt 0.4375 0.625
vt 0.5 0.625
vt 0.5 0.6875
vt 0.4375 0.6875
vt 0.6875 0.25
vt 0.75 0.25
vt 0.75 0.3125
vt 0.6875 0.3125
vt 0.0625 0.8125
vt 0.125 0.8125
vt 0.125 0.875
vt 0.0625 0.875
vt 0.1875 0.8125
vt 0.1875 0.875
vt 0.25 0.8125
vt 0.25 0.875
vt 0.0625 0.75
vt 0.25 0.75
vt 0.5 0.75
vt 0.4375 0.75

# Normal
vn 0 0 -1

# Mesh description
g untitled_mesh_0050

# Faces
f 1/1/1 2/2/1 3/3/1 4/4/1
f 5/5/1 6/6/1 7/7/1 8/8/1
f 9/5/1 10/6/1 11/7/1 12/8/1
f 13/9/1 14/10/1 15/11/1 16/12/1
f 17/13/1 18/14/1 19/15/1 20/16/1
f 21/13/1 22/14/1 23/15/1 24/16/1
f 25/9/1 26/10/1 27/11/1 28/12/1
f 29/17/1 30/18/1 31/19/1 32/20/1
f 33/18/1 34/21/1 35/22/1 36/19/1
f 37/21/1 38/23/1 39/24/1 40/22/1
f 41/25/1 42/4/1 43/18/1 44/17/1
f 45/4/1 46/3/1 47/21/1 48/18/1
f 49/3/1 50/26/1 51/23/1 52/21/1
f 53/9/1 54/10/1 55/11/1 56/12/1
f 57/1/1 58/2/1 59/3/1 60/4/1
f 61/12/1 62/11/1 63/27/1 64/28/1
f 65/12/1 66/11/1 67/27/1 68/28/1
f 69/13/1 70/14/1 71/15/1 72/16/1
f 73/9/1 74/10/1 75/11/1 76/12/1
f 77/13/1 78/14/1 79/15/1 80/16/1
f 81/12/1 82/11/1 83/27/1 84/28/1
f 85/12/1 86/11/1 87/27/1 88/28/1
f 89/12/1 90/11/1 91/27/1 92/28/1
f 93/9/1 94/10/1 95/11/1 96/12/1
f 97/13/1 98/14/1 99/15/1 100/16/1
f 101/9/1 102/10/1 103/11/1 104/12/1
f 105/13/1 106/14/1 107/15/1 108/16/1
f 109/9/1 110/10/1 111/11/1 112/12/1
f 113/12/1 114/11/1 115/27/1 116/28/1
f 117/12/1 118/11/1 119/27/1 120/28/1
f 121/9/1 122/10/1 123/11/1 124/12/1
f 125/12/1 126/11/1 127/27/1 128/28/1
f 129/12/1 130/11/1 131/27/1 132/28/1
f 133/13/1 134/14/1 135/15/1 136/16/1
f 137/12/1 138/11/1 139/27/1 140/28/1
f 141/13/1 142/14/1 143/15/1 144/16/1
f 145/12/1 146/11/1 147/27/1 148/28/1
f 149/12/1 150/11/1 151/27/1 152/28/1
f 153/13/1 154/14/1 155/15/1 156/16/1
f 157/13/1 158/14/1 159/15/1 160/16/1
f 161/12/1 162/11/1 163/27/1 164/28/1
f 165/9/1 166/10/1 167/11/1 168/12/1
f 169/9/1 170/10/1 171/11/1 172/12/1
f 173/12/1 174/11/1 175/27/1 176/28/1
f 177/12/1 178/11/1 179/27/1 180/28/1
f 181/12/1 182/11/1 183/27/1 184/28/1
f 185/12/1 186/11/1 187/27/1 188/28/1
f 189/12/1 190/11/1 191/27/1 192/28/1
f 193/12/1 194/11/1 195/27/1 196/28/1
f 197/9/1 198/10/1 199/11/1 200/12/1
f 201/9/1 202/10/1 203/11/1 204/12/1
f 205/13/1 206/14/1 207/15/1 208/16/1
f 209/12/1 210/11/1 211/27/1 212/28/1
f 213/13/1 214/14/1 215/15/1 216/16/1
f 217/12/1 218/11/1 219/27/1 220/28/1
f 221/13/1 222/14/1 223/15/1 224/16/1
f 225/13/1 226/14/1 227/15/1 228/16/1
f 229/9/1 230/10/1 231/11/1 232/12/1
f 233/13/1 234/14/1 235/15/1 236/16/1
f 237/9/1 238/10/1 239/11/1 240/12/1
f 241/9/1 242/10/1 243/11/1 244/12/1
f 245/9/1 246/10/1 247/11/1 248/12/1
f 249/9/1 250/10/1 251/11/1 252/12/1
f 253/9/1 254/10/1 255/11/1 256/12/1
f 257/9/1 258/10/1 259/11/1 260/12/1
f 261/9/1 262/10/1 263/11/1 264/12/1
f 265/13/1 266/14/1 267/15/1 268/16/1
f 269/12/1 270/11/1 271/27/1 272/28/1
f 273/13/1 274/14/1 275/15/1 276/16/1
f 277/9/1 278/10/1 279/11/1 280/12/1
f 281/12/1 282/11/1 283/27/1 284/28/1
f 285/13/1 286/14/1 287/15/1 288/16/1
f 289/9/1 290/10/1 291/11/1 292/12/1
f 293/9/1 294/10/1 295/11/1 296/12/1
f 297/13/1 298/14/1 299/15/1 300/16/1
f 301/9/1 302/10/1 303/11/1 304/12/1
f 305/9/1 306/10/1 307/11/1 308/12/1
f 309/13/1 310/14/1 311/15/1 312/16/1
f 313/13/1 314/14/1 315/15/1 316/16/1
f 317/12/1 318/11/1 319/27/1 320/28/1
f 321/13/1 322/14/1 323/15/1 324/16/1
f 325/9/1 326/10/1 327/11/1 328/12/1
f 329/9/1 330/10/1 331/11/1 332/12/1
f 333/12/1 334/11/1 335/27/1 336/28/1
f 337/12/1 338/11/1 339/27/1 340/28/1
f 341/9/1 342/10/1 343/11/1 344/12/1
f 345/12/1 346/11/1 347/27/1 348/28/1
f 349/12/1 350/11/1 351/27/1 352/28/1
f 353/13/1 354/14/1 355/15/1 356/16/1
f 357/9/1 358/10/1 359/11/1 360/12/1
f 361/13/1 362/14/1 363/15/1 364/16/1
f 365/9/1 366/10/1 367/11/1 368/12/1
f 369/13/1 370/14/1 371/15/1 372/16/1
f 373/12/1 374/11/1 375/27/1 376/28/1
f 377/13/1 378/14/1 379/15/1 380/16/1
f 381/13/1 382/14/1 383/15/1 384/16/1

