# Tiled2Unity generated file. Do not modify by hand.
# Wavefront file for 'untitled_mesh_0111.obj'

# Vertices (Count = 40)
v -168 -100.48 0
v -168.32 -100.48 0
v -168.32 -100.16 0
v -168 -100.16 0
v -168.32 -100.48 0
v -168.64 -100.48 0
v -168.64 -100.16 0
v -168.32 -100.16 0
v -168.64 -100.48 0
v -168.96 -100.48 0
v -168.96 -100.16 0
v -168.64 -100.16 0
v -168.96 -100.48 0
v -169.28 -100.48 0
v -169.28 -100.16 0
v -168.96 -100.16 0
v -168 -100.8 0
v -168.32 -100.8 0
v -168.32 -100.48 0
v -168 -100.48 0
v -168.32 -100.8 0
v -168.64 -100.8 0
v -168.64 -100.48 0
v -168.32 -100.48 0
v -168.64 -100.8 0
v -168.96 -100.8 0
v -168.96 -100.48 0
v -168.64 -100.48 0
v -168.96 -100.8 0
v -169.28 -100.8 0
v -169.28 -100.48 0
v -168.96 -100.48 0
v -168 -101.12 0
v -168.32 -101.12 0
v -168.32 -100.8 0
v -168 -100.8 0
v -168.96 -101.12 0
v -169.28 -101.12 0
v -169.28 -100.8 0
v -168.96 -100.8 0

# Texture cooridinates (Count = 19)
vt 0.6666667 0.4166667
vt 0.75 0.4166667
vt 0.75 0.5
vt 0.6666667 0.5
vt 0.8333333 0.4166667
vt 0.8333333 0.5
vt 0.9166667 0.4166667
vt 0.9166667 0.5
vt 1 0.4166667
vt 1 0.5
vt 0.6666667 0.3333333
vt 0.75 0.3333333
vt 0.8333333 0.3333333
vt 0.9166667 0.3333333
vt 1 0.3333333
vt 0.6666667 0.25
vt 0.75 0.25
vt 0.9166667 0.25
vt 1 0.25

# Normal
vn 0 0 -1

# Mesh description
g untitled_mesh_0111

# Faces
f 1/1/1 2/2/1 3/3/1 4/4/1
f 5/2/1 6/5/1 7/6/1 8/3/1
f 9/5/1 10/7/1 11/8/1 12/6/1
f 13/7/1 14/9/1 15/10/1 16/8/1
f 17/11/1 18/12/1 19/2/1 20/1/1
f 21/12/1 22/13/1 23/5/1 24/2/1
f 25/13/1 26/14/1 27/7/1 28/5/1
f 29/14/1 30/15/1 31/9/1 32/7/1
f 33/16/1 34/17/1 35/12/1 36/11/1
f 37/18/1 38/19/1 39/15/1 40/14/1

