# Tiled2Unity generated file. Do not modify by hand.
# Wavefront file for 'untitled_mesh_0069.obj'

# Vertices (Count = 128)
v -243.52 -115.84 0
v -243.84 -115.84 0
v -243.84 -115.52 0
v -243.52 -115.52 0
v -243.52 -116.16 0
v -243.84 -116.16 0
v -243.84 -115.84 0
v -243.52 -115.84 0
v -242.88 -116.48 0
v -243.2 -116.48 0
v -243.2 -116.16 0
v -242.88 -116.16 0
v -243.52 -116.48 0
v -243.84 -116.48 0
v -243.84 -116.16 0
v -243.52 -116.16 0
v -244.16 -116.48 0
v -244.48 -116.48 0
v -244.48 -116.16 0
v -244.16 -116.16 0
v -242.88 -116.8 0
v -243.2 -116.8 0
v -243.2 -116.48 0
v -242.88 -116.48 0
v -243.52 -116.8 0
v -243.84 -116.8 0
v -243.84 -116.48 0
v -243.52 -116.48 0
v -244.16 -116.8 0
v -244.48 -116.8 0
v -244.48 -116.48 0
v -244.16 -116.48 0
v -242.88 -117.12 0
v -243.2 -117.12 0
v -243.2 -116.8 0
v -242.88 -116.8 0
v -243.2 -117.12 0
v -243.52 -117.12 0
v -243.52 -116.8 0
v -243.2 -116.8 0
v -243.52 -117.12 0
v -243.84 -117.12 0
v -243.84 -116.8 0
v -243.52 -116.8 0
v -243.84 -117.12 0
v -244.16 -117.12 0
v -244.16 -116.8 0
v -243.84 -116.8 0
v -244.16 -117.12 0
v -244.48 -117.12 0
v -244.48 -116.8 0
v -244.16 -116.8 0
v -242.88 -117.44 0
v -243.2 -117.44 0
v -243.2 -117.12 0
v -242.88 -117.12 0
v -243.2 -117.44 0
v -243.52 -117.44 0
v -243.52 -117.12 0
v -243.2 -117.12 0
v -243.52 -117.44 0
v -243.84 -117.44 0
v -243.84 -117.12 0
v -243.52 -117.12 0
v -243.84 -117.44 0
v -244.16 -117.44 0
v -244.16 -117.12 0
v -243.84 -117.12 0
v -244.16 -117.44 0
v -244.48 -117.44 0
v -244.48 -117.12 0
v -244.16 -117.12 0
v -242.88 -117.76 0
v -243.2 -117.76 0
v -243.2 -117.44 0
v -242.88 -117.44 0
v -244.16 -117.76 0
v -244.48 -117.76 0
v -244.48 -117.44 0
v -244.16 -117.44 0
v -253.44 -123.52 0
v -253.76 -123.52 0
v -253.76 -123.2 0
v -253.44 -123.2 0
v -253.76 -123.52 0
v -254.08 -123.52 0
v -254.08 -123.2 0
v -253.76 -123.2 0
v -254.4 -123.52 0
v -254.72 -123.52 0
v -254.72 -123.2 0
v -254.4 -123.2 0
v -254.72 -123.52 0
v -255.04 -123.52 0
v -255.04 -123.2 0
v -254.72 -123.2 0
v -253.44 -123.84 0
v -253.76 -123.84 0
v -253.76 -123.52 0
v -253.44 -123.52 0
v -253.76 -123.84 0
v -254.08 -123.84 0
v -254.08 -123.52 0
v -253.76 -123.52 0
v -254.4 -123.84 0
v -254.72 -123.84 0
v -254.72 -123.52 0
v -254.4 -123.52 0
v -254.72 -123.84 0
v -255.04 -123.84 0
v -255.04 -123.52 0
v -254.72 -123.52 0
v -252.8 -124.48 0
v -253.12 -124.48 0
v -253.12 -124.16 0
v -252.8 -124.16 0
v -255.36 -124.48 0
v -255.68 -124.48 0
v -255.68 -124.16 0
v -255.36 -124.16 0
v -252.8 -124.8 0
v -253.12 -124.8 0
v -253.12 -124.48 0
v -252.8 -124.48 0
v -255.36 -124.8 0
v -255.68 -124.8 0
v -255.68 -124.48 0
v -255.36 -124.48 0

# Texture cooridinates (Count = 43)
vt 0.25 0.9375
vt 0.3125 0.9375
vt 0.3125 1
vt 0.25 1
vt 0.25 0.875
vt 0.3125 0.875
vt 0.375 0.875
vt 0.4375 0.875
vt 0.4375 0.9375
vt 0.375 0.9375
vt 0.1875 0.9375
vt 0.1875 1
vt 0.1875 0.875
vt 0.5 0.9375
vt 0.5625 0.9375
vt 0.5625 1
vt 0.5 1
vt 0.625 0.9375
vt 0.625 1
vt 0.6875 0.9375
vt 0.6875 1
vt 0.5 0.875
vt 0.5625 0.875
vt 0.625 0.875
vt 0.6875 0.875
vt 0.375 0.8125
vt 0.4375 0.8125
vt 0.3125 0.8125
vt 0.75 0.6875
vt 0.8125 0.6875
vt 0.8125 0.75
vt 0.75 0.75
vt 0.875 0.6875
vt 0.875 0.75
vt 0.9375 0.6875
vt 0.9375 0.75
vt 1 0.6875
vt 1 0.75
vt 0.75 0.625
vt 0.8125 0.625
vt 0.875 0.625
vt 0.9375 0.625
vt 1 0.625

# Normal
vn 0 0 -1

# Mesh description
g untitled_mesh_0069

# Faces
f 1/1/1 2/2/1 3/3/1 4/4/1
f 5/5/1 6/6/1 7/2/1 8/1/1
f 9/1/1 10/2/1 11/3/1 12/4/1
f 13/7/1 14/8/1 15/9/1 16/10/1
f 17/11/1 18/1/1 19/4/1 20/12/1
f 21/5/1 22/6/1 23/2/1 24/1/1
f 25/7/1 26/8/1 27/9/1 28/10/1
f 29/13/1 30/5/1 31/1/1 32/11/1
f 33/6/1 34/7/1 35/10/1 36/2/1
f 37/14/1 38/15/1 39/16/1 40/17/1
f 41/15/1 42/18/1 43/19/1 44/16/1
f 45/18/1 46/20/1 47/21/1 48/19/1
f 49/7/1 50/8/1 51/9/1 52/10/1
f 53/7/1 54/8/1 55/9/1 56/10/1
f 57/22/1 58/23/1 59/15/1 60/14/1
f 61/23/1 62/24/1 63/18/1 64/15/1
f 65/24/1 66/25/1 67/20/1 68/18/1
f 69/6/1 70/7/1 71/10/1 72/2/1
f 73/26/1 74/27/1 75/8/1 76/7/1
f 77/28/1 78/26/1 79/7/1 80/6/1
f 81/29/1 82/30/1 83/31/1 84/32/1
f 85/30/1 86/33/1 87/34/1 88/31/1
f 89/33/1 90/35/1 91/36/1 92/34/1
f 93/35/1 94/37/1 95/38/1 96/36/1
f 97/39/1 98/40/1 99/30/1 100/29/1
f 101/40/1 102/41/1 103/33/1 104/30/1
f 105/41/1 106/42/1 107/35/1 108/33/1
f 109/42/1 110/43/1 111/37/1 112/35/1
f 113/11/1 114/1/1 115/4/1 116/12/1
f 117/11/1 118/1/1 119/4/1 120/12/1
f 121/13/1 122/5/1 123/1/1 124/11/1
f 125/13/1 126/5/1 127/1/1 128/11/1

