# Tiled2Unity generated file. Do not modify by hand.
# Wavefront file for 'untitled_mesh_0052.obj'

# Vertices (Count = 596)
v -244.48 -114.88 0
v -244.8 -114.88 0
v -244.8 -114.56 0
v -244.48 -114.56 0
v -245.44 -115.2 0
v -245.76 -115.2 0
v -245.76 -114.88 0
v -245.44 -114.88 0
v -246.4 -115.52 0
v -246.72 -115.52 0
v -246.72 -115.2 0
v -246.4 -115.2 0
v -246.72 -115.52 0
v -247.04 -115.52 0
v -247.04 -115.2 0
v -246.72 -115.2 0
v -242.24 -115.84 0
v -242.56 -115.84 0
v -242.56 -115.52 0
v -242.24 -115.52 0
v -243.2 -116.16 0
v -243.52 -116.16 0
v -243.52 -115.84 0
v -243.2 -115.84 0
v -245.76 -116.16 0
v -246.08 -116.16 0
v -246.08 -115.84 0
v -245.76 -115.84 0
v -240.32 -116.48 0
v -240.64 -116.48 0
v -240.64 -116.16 0
v -240.32 -116.16 0
v -242.24 -116.48 0
v -242.56 -116.48 0
v -242.56 -116.16 0
v -242.24 -116.16 0
v -241.6 -116.8 0
v -241.92 -116.8 0
v -241.92 -116.48 0
v -241.6 -116.48 0
v -243.52 -116.8 0
v -243.84 -116.8 0
v -243.84 -116.48 0
v -243.52 -116.48 0
v -252.48 -116.8 0
v -252.8 -116.8 0
v -252.8 -116.48 0
v -252.48 -116.48 0
v -253.12 -116.8 0
v -253.44 -116.8 0
v -253.44 -116.48 0
v -253.12 -116.48 0
v -243.2 -117.12 0
v -243.52 -117.12 0
v -243.52 -116.8 0
v -243.2 -116.8 0
v -243.52 -117.12 0
v -243.84 -117.12 0
v -243.84 -116.8 0
v -243.52 -116.8 0
v -243.84 -117.12 0
v -244.16 -117.12 0
v -244.16 -116.8 0
v -243.84 -116.8 0
v -244.8 -117.12 0
v -245.12 -117.12 0
v -245.12 -116.8 0
v -244.8 -116.8 0
v -252.48 -117.12 0
v -252.8 -117.12 0
v -252.8 -116.8 0
v -252.48 -116.8 0
v -243.2 -117.44 0
v -243.52 -117.44 0
v -243.52 -117.12 0
v -243.2 -117.12 0
v -243.52 -117.44 0
v -243.84 -117.44 0
v -243.84 -117.12 0
v -243.52 -117.12 0
v -243.84 -117.44 0
v -244.16 -117.44 0
v -244.16 -117.12 0
v -243.84 -117.12 0
v -243.2 -117.76 0
v -243.52 -117.76 0
v -243.52 -117.44 0
v -243.2 -117.44 0
v -243.52 -117.76 0
v -243.84 -117.76 0
v -243.84 -117.44 0
v -243.52 -117.44 0
v -243.84 -117.76 0
v -244.16 -117.76 0
v -244.16 -117.44 0
v -243.84 -117.44 0
v -246.4 -117.76 0
v -246.72 -117.76 0
v -246.72 -117.44 0
v -246.4 -117.44 0
v -254.08 -117.76 0
v -254.4 -117.76 0
v -254.4 -117.44 0
v -254.08 -117.44 0
v -240 -118.08 0
v -240.32 -118.08 0
v -240.32 -117.76 0
v -240 -117.76 0
v -240.32 -118.08 0
v -240.64 -118.08 0
v -240.64 -117.76 0
v -240.32 -117.76 0
v -242.56 -118.08 0
v -242.88 -118.08 0
v -242.88 -117.76 0
v -242.56 -117.76 0
v -254.4 -118.08 0
v -254.72 -118.08 0
v -254.72 -117.76 0
v -254.4 -117.76 0
v -250.24 -118.4 0
v -250.56 -118.4 0
v -250.56 -118.08 0
v -250.24 -118.08 0
v -242.56 -118.72 0
v -242.88 -118.72 0
v -242.88 -118.4 0
v -242.56 -118.4 0
v -252.16 -118.72 0
v -252.48 -118.72 0
v -252.48 -118.4 0
v -252.16 -118.4 0
v -252.48 -118.72 0
v -252.8 -118.72 0
v -252.8 -118.4 0
v -252.48 -118.4 0
v -252.8 -118.72 0
v -253.12 -118.72 0
v -253.12 -118.4 0
v -252.8 -118.4 0
v -241.28 -119.04 0
v -241.6 -119.04 0
v -241.6 -118.72 0
v -241.28 -118.72 0
v -241.6 -119.04 0
v -241.92 -119.04 0
v -241.92 -118.72 0
v -241.6 -118.72 0
v -242.56 -119.04 0
v -242.88 -119.04 0
v -242.88 -118.72 0
v -242.56 -118.72 0
v -246.4 -119.04 0
v -246.72 -119.04 0
v -246.72 -118.72 0
v -246.4 -118.72 0
v -240.96 -119.36 0
v -241.28 -119.36 0
v -241.28 -119.04 0
v -240.96 -119.04 0
v -243.84 -119.36 0
v -244.16 -119.36 0
v -244.16 -119.04 0
v -243.84 -119.04 0
v -244.16 -119.36 0
v -244.48 -119.36 0
v -244.48 -119.04 0
v -244.16 -119.04 0
v -246.4 -119.36 0
v -246.72 -119.36 0
v -246.72 -119.04 0
v -246.4 -119.04 0
v -248 -119.36 0
v -248.32 -119.36 0
v -248.32 -119.04 0
v -248 -119.04 0
v -249.28 -119.36 0
v -249.6 -119.36 0
v -249.6 -119.04 0
v -249.28 -119.04 0
v -252.48 -119.36 0
v -252.8 -119.36 0
v -252.8 -119.04 0
v -252.48 -119.04 0
v -254.08 -119.36 0
v -254.4 -119.36 0
v -254.4 -119.04 0
v -254.08 -119.04 0
v -254.4 -119.36 0
v -254.72 -119.36 0
v -254.72 -119.04 0
v -254.4 -119.04 0
v -248 -119.68 0
v -248.32 -119.68 0
v -248.32 -119.36 0
v -248 -119.36 0
v -249.28 -119.68 0
v -249.6 -119.68 0
v -249.6 -119.36 0
v -249.28 -119.36 0
v -240 -120.32 0
v -240.32 -120.32 0
v -240.32 -120 0
v -240 -120 0
v -241.6 -120.32 0
v -241.92 -120.32 0
v -241.92 -120 0
v -241.6 -120 0
v -244.48 -120.32 0
v -244.8 -120.32 0
v -244.8 -120 0
v -244.48 -120 0
v -255.36 -120.32 0
v -255.68 -120.32 0
v -255.68 -120 0
v -255.36 -120 0
v -251.52 -120.64 0
v -251.84 -120.64 0
v -251.84 -120.32 0
v -251.52 -120.32 0
v -242.88 -120.96 0
v -243.2 -120.96 0
v -243.2 -120.64 0
v -242.88 -120.64 0
v -243.2 -120.96 0
v -243.52 -120.96 0
v -243.52 -120.64 0
v -243.2 -120.64 0
v -244.16 -120.96 0
v -244.48 -120.96 0
v -244.48 -120.64 0
v -244.16 -120.64 0
v -245.76 -120.96 0
v -246.08 -120.96 0
v -246.08 -120.64 0
v -245.76 -120.64 0
v -250.56 -120.96 0
v -250.88 -120.96 0
v -250.88 -120.64 0
v -250.56 -120.64 0
v -253.44 -120.96 0
v -253.76 -120.96 0
v -253.76 -120.64 0
v -253.44 -120.64 0
v -253.76 -120.96 0
v -254.08 -120.96 0
v -254.08 -120.64 0
v -253.76 -120.64 0
v -241.92 -121.28 0
v -242.24 -121.28 0
v -242.24 -120.96 0
v -241.92 -120.96 0
v -243.84 -121.28 0
v -244.16 -121.28 0
v -244.16 -120.96 0
v -243.84 -120.96 0
v -247.68 -121.28 0
v -248 -121.28 0
v -248 -120.96 0
v -247.68 -120.96 0
v -239.36 -121.6 0
v -239.68 -121.6 0
v -239.68 -121.28 0
v -239.36 -121.28 0
v -247.68 -121.6 0
v -248 -121.6 0
v -248 -121.28 0
v -247.68 -121.28 0
v -239.36 -121.92 0
v -239.68 -121.92 0
v -239.68 -121.6 0
v -239.36 -121.6 0
v -245.76 -121.92 0
v -246.08 -121.92 0
v -246.08 -121.6 0
v -245.76 -121.6 0
v -253.44 -121.92 0
v -253.76 -121.92 0
v -253.76 -121.6 0
v -253.44 -121.6 0
v -244.8 -122.24 0
v -245.12 -122.24 0
v -245.12 -121.92 0
v -244.8 -121.92 0
v -239.36 -122.56 0
v -239.68 -122.56 0
v -239.68 -122.24 0
v -239.36 -122.24 0
v -241.6 -122.56 0
v -241.92 -122.56 0
v -241.92 -122.24 0
v -241.6 -122.24 0
v -251.2 -122.56 0
v -251.52 -122.56 0
v -251.52 -122.24 0
v -251.2 -122.24 0
v -251.52 -122.56 0
v -251.84 -122.56 0
v -251.84 -122.24 0
v -251.52 -122.24 0
v -252.48 -122.56 0
v -252.8 -122.56 0
v -252.8 -122.24 0
v -252.48 -122.24 0
v -239.36 -122.88 0
v -239.68 -122.88 0
v -239.68 -122.56 0
v -239.36 -122.56 0
v -241.92 -122.88 0
v -242.24 -122.88 0
v -242.24 -122.56 0
v -241.92 -122.56 0
v -252.48 -122.88 0
v -252.8 -122.88 0
v -252.8 -122.56 0
v -252.48 -122.56 0
v -240.32 -123.2 0
v -240.64 -123.2 0
v -240.64 -122.88 0
v -240.32 -122.88 0
v -251.2 -123.2 0
v -251.52 -123.2 0
v -251.52 -122.88 0
v -251.2 -122.88 0
v -251.52 -123.2 0
v -251.84 -123.2 0
v -251.84 -122.88 0
v -251.52 -122.88 0
v -240 -123.52 0
v -240.32 -123.52 0
v -240.32 -123.2 0
v -240 -123.2 0
v -240.64 -123.52 0
v -240.96 -123.52 0
v -240.96 -123.2 0
v -240.64 -123.2 0
v -240.96 -123.52 0
v -241.28 -123.52 0
v -241.28 -123.2 0
v -240.96 -123.2 0
v -242.56 -123.52 0
v -242.88 -123.52 0
v -242.88 -123.2 0
v -242.56 -123.2 0
v -242.88 -123.52 0
v -243.2 -123.52 0
v -243.2 -123.2 0
v -242.88 -123.2 0
v -244.8 -123.52 0
v -245.12 -123.52 0
v -245.12 -123.2 0
v -244.8 -123.2 0
v -246.72 -123.52 0
v -247.04 -123.52 0
v -247.04 -123.2 0
v -246.72 -123.2 0
v -242.56 -123.84 0
v -242.88 -123.84 0
v -242.88 -123.52 0
v -242.56 -123.52 0
v -242.88 -123.84 0
v -243.2 -123.84 0
v -243.2 -123.52 0
v -242.88 -123.52 0
v -247.04 -123.84 0
v -247.36 -123.84 0
v -247.36 -123.52 0
v -247.04 -123.52 0
v -247.36 -123.84 0
v -247.68 -123.84 0
v -247.68 -123.52 0
v -247.36 -123.52 0
v -244.8 -124.16 0
v -245.12 -124.16 0
v -245.12 -123.84 0
v -244.8 -123.84 0
v -249.6 -124.16 0
v -249.92 -124.16 0
v -249.92 -123.84 0
v -249.6 -123.84 0
v -239.68 -124.48 0
v -240 -124.48 0
v -240 -124.16 0
v -239.68 -124.16 0
v -249.28 -124.48 0
v -249.6 -124.48 0
v -249.6 -124.16 0
v -249.28 -124.16 0
v -253.76 -124.48 0
v -254.08 -124.48 0
v -254.08 -124.16 0
v -253.76 -124.16 0
v -254.08 -124.48 0
v -254.4 -124.48 0
v -254.4 -124.16 0
v -254.08 -124.16 0
v -254.4 -124.48 0
v -254.72 -124.48 0
v -254.72 -124.16 0
v -254.4 -124.16 0
v -245.12 -124.8 0
v -245.44 -124.8 0
v -245.44 -124.48 0
v -245.12 -124.48 0
v -251.84 -124.8 0
v -252.16 -124.8 0
v -252.16 -124.48 0
v -251.84 -124.48 0
v -252.16 -124.8 0
v -252.48 -124.8 0
v -252.48 -124.48 0
v -252.16 -124.48 0
v -253.76 -124.8 0
v -254.08 -124.8 0
v -254.08 -124.48 0
v -253.76 -124.48 0
v -254.08 -124.8 0
v -254.4 -124.8 0
v -254.4 -124.48 0
v -254.08 -124.48 0
v -254.4 -124.8 0
v -254.72 -124.8 0
v -254.72 -124.48 0
v -254.4 -124.48 0
v -239.04 -125.12 0
v -239.36 -125.12 0
v -239.36 -124.8 0
v -239.04 -124.8 0
v -239.36 -125.12 0
v -239.68 -125.12 0
v -239.68 -124.8 0
v -239.36 -124.8 0
v -242.24 -125.12 0
v -242.56 -125.12 0
v -242.56 -124.8 0
v -242.24 -124.8 0
v -248.32 -125.12 0
v -248.64 -125.12 0
v -248.64 -124.8 0
v -248.32 -124.8 0
v -252.16 -125.12 0
v -252.48 -125.12 0
v -252.48 -124.8 0
v -252.16 -124.8 0
v -253.76 -125.12 0
v -254.08 -125.12 0
v -254.08 -124.8 0
v -253.76 -124.8 0
v -254.08 -125.12 0
v -254.4 -125.12 0
v -254.4 -124.8 0
v -254.08 -124.8 0
v -254.4 -125.12 0
v -254.72 -125.12 0
v -254.72 -124.8 0
v -254.4 -124.8 0
v -246.4 -125.44 0
v -246.72 -125.44 0
v -246.72 -125.12 0
v -246.4 -125.12 0
v -246.72 -125.44 0
v -247.04 -125.44 0
v -247.04 -125.12 0
v -246.72 -125.12 0
v -251.2 -125.44 0
v -251.52 -125.44 0
v -251.52 -125.12 0
v -251.2 -125.12 0
v -243.84 -125.76 0
v -244.16 -125.76 0
v -244.16 -125.44 0
v -243.84 -125.44 0
v -244.48 -125.76 0
v -244.8 -125.76 0
v -244.8 -125.44 0
v -244.48 -125.44 0
v -246.72 -125.76 0
v -247.04 -125.76 0
v -247.04 -125.44 0
v -246.72 -125.44 0
v -247.04 -125.76 0
v -247.36 -125.76 0
v -247.36 -125.44 0
v -247.04 -125.44 0
v -248.96 -125.76 0
v -249.28 -125.76 0
v -249.28 -125.44 0
v -248.96 -125.44 0
v -243.84 -126.08 0
v -244.16 -126.08 0
v -244.16 -125.76 0
v -243.84 -125.76 0
v -246.4 -126.08 0
v -246.72 -126.08 0
v -246.72 -125.76 0
v -246.4 -125.76 0
v -247.04 -126.08 0
v -247.36 -126.08 0
v -247.36 -125.76 0
v -247.04 -125.76 0
v -248.96 -126.08 0
v -249.28 -126.08 0
v -249.28 -125.76 0
v -248.96 -125.76 0
v -254.4 -126.08 0
v -254.72 -126.08 0
v -254.72 -125.76 0
v -254.4 -125.76 0
v -254.72 -126.08 0
v -255.04 -126.08 0
v -255.04 -125.76 0
v -254.72 -125.76 0
v -255.68 -126.08 0
v -256 -126.08 0
v -256 -125.76 0
v -255.68 -125.76 0
v -248 -126.4 0
v -248.32 -126.4 0
v -248.32 -126.08 0
v -248 -126.08 0
v -249.28 -126.4 0
v -249.6 -126.4 0
v -249.6 -126.08 0
v -249.28 -126.08 0
v -246.4 -126.72 0
v -246.72 -126.72 0
v -246.72 -126.4 0
v -246.4 -126.4 0
v -252.8 -126.72 0
v -253.12 -126.72 0
v -253.12 -126.4 0
v -252.8 -126.4 0
v -256.96 -126.72 0
v -257.28 -126.72 0
v -257.28 -126.4 0
v -256.96 -126.4 0
v -240 -127.04 0
v -240.32 -127.04 0
v -240.32 -126.72 0
v -240 -126.72 0
v -240.96 -127.04 0
v -241.28 -127.04 0
v -241.28 -126.72 0
v -240.96 -126.72 0
v -241.28 -127.04 0
v -241.6 -127.04 0
v -241.6 -126.72 0
v -241.28 -126.72 0
v -251.84 -127.04 0
v -252.16 -127.04 0
v -252.16 -126.72 0
v -251.84 -126.72 0
v -257.28 -127.04 0
v -257.6 -127.04 0
v -257.6 -126.72 0
v -257.28 -126.72 0
v -241.28 -127.36 0
v -241.6 -127.36 0
v -241.6 -127.04 0
v -241.28 -127.04 0
v -241.6 -127.68 0
v -241.92 -127.68 0
v -241.92 -127.36 0
v -241.6 -127.36 0
v -246.72 -127.68 0
v -247.04 -127.68 0
v -247.04 -127.36 0
v -246.72 -127.36 0
v -247.04 -127.68 0
v -247.36 -127.68 0
v -247.36 -127.36 0
v -247.04 -127.36 0
v -257.28 -128 0
v -257.6 -128 0
v -257.6 -127.68 0
v -257.28 -127.68 0
v -239.36 -128.32 0
v -239.68 -128.32 0
v -239.68 -128 0
v -239.36 -128 0
v -250.56 -128.32 0
v -250.88 -128.32 0
v -250.88 -128 0
v -250.56 -128 0
v -250.56 -128.64 0
v -250.88 -128.64 0
v -250.88 -128.32 0
v -250.56 -128.32 0
v -240.96 -128.96 0
v -241.28 -128.96 0
v -241.28 -128.64 0
v -240.96 -128.64 0
v -250.56 -128.96 0
v -250.88 -128.96 0
v -250.88 -128.64 0
v -250.56 -128.64 0

# Texture cooridinates (Count = 75)
vt 0.375 0
vt 0.4375 0
vt 0.4375 0.0625
vt 0.375 0.0625
vt 0.25 0.1875
vt 0.3125 0.1875
vt 0.3125 0.25
vt 0.25 0.25
vt 0 0.625
vt 0.0625 0.625
vt 0.0625 0.6875
vt 0 0.6875
vt 0.25 0.3125
vt 0.3125 0.3125
vt 0.3125 0.375
vt 0.25 0.375
vt 0.6875 0.0625
vt 0.75 0.0625
vt 0.75 0.125
vt 0.6875 0.125
vt 0.9375 0
vt 1 0
vt 1 0.0625
vt 0.9375 0.0625
vt 0.875 0.1875
vt 0.9375 0.1875
vt 0.9375 0.25
vt 0.875 0.25
vt 0.75 0.1875
vt 0.6875 0.1875
vt 0.3125 0.875
vt 0.375 0.875
vt 0.375 0.9375
vt 0.3125 0.9375
vt 0.0625 0.1875
vt 0.125 0.1875
vt 0.125 0.25
vt 0.0625 0.25
vt 0.8125 0.1875
vt 0.8125 0.25
vt 0.1875 0.5
vt 0.25 0.5
vt 0.25 0.5625
vt 0.1875 0.5625
vt 0.3125 0.8125
vt 0.375 0.8125
vt 0.3125 0.5
vt 0.375 0.5
vt 0.375 0.5625
vt 0.3125 0.5625
vt 0.1875 0.4375
vt 0.25 0.4375
vt 0.3125 0.4375
vt 0.375 0.4375
vt 0.1875 0.375
vt 0.375 0.375
vt 0.125 0.3125
vt 0.0625 0.3125
vt 0.1875 0.25
vt 0.1875 0.3125
vt 0.25 0
vt 0.3125 0
vt 0.3125 0.0625
vt 0.25 0.0625
vt 1 0.125
vt 0.9375 0.125
vt 0.625 0.125
vt 0.625 0.1875
vt 0.8125 0.0625
vt 0.8125 0.125
vt 0.1875 0.1875
vt 0.875 0.0625
vt 0.875 0.125
vt 0.875 0.3125
vt 0.8125 0.3125

# Normal
vn 0 0 -1

# Mesh description
g untitled_mesh_0052

# Faces
f 1/1/1 2/2/1 3/3/1 4/4/1
f 5/5/1 6/6/1 7/7/1 8/8/1
f 9/9/1 10/10/1 11/11/1 12/12/1
f 13/13/1 14/14/1 15/15/1 16/16/1
f 17/1/1 18/2/1 19/3/1 20/4/1
f 21/17/1 22/18/1 23/19/1 24/20/1
f 25/21/1 26/22/1 27/23/1 28/24/1
f 29/25/1 30/26/1 31/27/1 32/28/1
f 33/13/1 34/14/1 35/15/1 36/16/1
f 37/20/1 38/19/1 39/29/1 40/30/1
f 41/31/1 42/32/1 43/33/1 44/34/1
f 45/35/1 46/36/1 47/37/1 48/38/1
f 49/39/1 50/25/1 51/28/1 52/40/1
f 53/41/1 54/42/1 55/43/1 56/44/1
f 57/45/1 58/46/1 59/32/1 60/31/1
f 61/47/1 62/48/1 63/49/1 64/50/1
f 65/39/1 66/25/1 67/28/1 68/40/1
f 69/25/1 70/26/1 71/27/1 72/28/1
f 73/51/1 74/52/1 75/42/1 76/41/1
f 77/52/1 78/53/1 79/47/1 80/42/1
f 81/53/1 82/54/1 83/48/1 84/47/1
f 85/55/1 86/16/1 87/52/1 88/51/1
f 89/16/1 90/15/1 91/53/1 92/52/1
f 93/15/1 94/56/1 95/54/1 96/53/1
f 97/38/1 98/37/1 99/57/1 100/58/1
f 101/13/1 102/14/1 103/15/1 104/16/1
f 105/21/1 106/22/1 107/23/1 108/24/1
f 109/37/1 110/59/1 111/60/1 112/57/1
f 113/17/1 114/18/1 115/19/1 116/20/1
f 117/25/1 118/26/1 119/27/1 120/28/1
f 121/17/1 122/18/1 123/19/1 124/20/1
f 125/61/1 126/62/1 127/63/1 128/64/1
f 129/21/1 130/22/1 131/23/1 132/24/1
f 133/24/1 134/23/1 135/65/1 136/66/1
f 137/67/1 138/20/1 139/30/1 140/68/1
f 141/18/1 142/69/1 143/70/1 144/19/1
f 145/19/1 146/70/1 147/39/1 148/29/1
f 149/5/1 150/6/1 151/7/1 152/8/1
f 153/67/1 154/20/1 155/30/1 156/68/1
f 157/18/1 158/69/1 159/70/1 160/19/1
f 161/67/1 162/20/1 163/30/1 164/68/1
f 165/37/1 166/59/1 167/60/1 168/57/1
f 169/60/1 170/13/1 171/16/1 172/55/1
f 173/9/1 174/10/1 175/11/1 176/12/1
f 177/20/1 178/19/1 179/29/1 180/30/1
f 181/37/1 182/59/1 183/60/1 184/57/1
f 185/5/1 186/6/1 187/7/1 188/8/1
f 189/38/1 190/37/1 191/57/1 192/58/1
f 193/36/1 194/71/1 195/59/1 196/37/1
f 197/13/1 198/14/1 199/15/1 200/16/1
f 201/39/1 202/25/1 203/28/1 204/40/1
f 205/72/1 206/24/1 207/66/1 208/73/1
f 209/72/1 210/24/1 211/66/1 212/73/1
f 213/61/1 214/62/1 215/63/1 216/64/1
f 217/72/1 218/24/1 219/66/1 220/73/1
f 221/72/1 222/24/1 223/66/1 224/73/1
f 225/19/1 226/70/1 227/39/1 228/29/1
f 229/21/1 230/22/1 231/23/1 232/24/1
f 233/19/1 234/70/1 235/39/1 236/29/1
f 237/24/1 238/23/1 239/65/1 240/66/1
f 241/24/1 242/23/1 243/65/1 244/66/1
f 245/24/1 246/23/1 247/65/1 248/66/1
f 249/20/1 250/19/1 251/29/1 252/30/1
f 253/25/1 254/26/1 255/27/1 256/28/1
f 257/1/1 258/2/1 259/3/1 260/4/1
f 261/13/1 262/14/1 263/15/1 264/16/1
f 265/37/1 266/59/1 267/60/1 268/57/1
f 269/60/1 270/13/1 271/16/1 272/55/1
f 273/18/1 274/69/1 275/70/1 276/19/1
f 277/39/1 278/25/1 279/28/1 280/40/1
f 281/39/1 282/25/1 283/28/1 284/40/1
f 285/13/1 286/14/1 287/15/1 288/16/1
f 289/40/1 290/28/1 291/74/1 292/75/1
f 293/40/1 294/28/1 295/74/1 296/75/1
f 297/72/1 298/24/1 299/66/1 300/73/1
f 301/5/1 302/6/1 303/7/1 304/8/1
f 305/36/1 306/71/1 307/59/1 308/37/1
f 309/61/1 310/62/1 311/63/1 312/64/1
f 313/38/1 314/37/1 315/57/1 316/58/1
f 317/9/1 318/10/1 319/11/1 320/12/1
f 321/19/1 322/70/1 323/39/1 324/29/1
f 325/36/1 326/71/1 327/59/1 328/37/1
f 329/9/1 330/10/1 331/11/1 332/12/1
f 333/40/1 334/28/1 335/74/1 336/75/1
f 337/17/1 338/18/1 339/19/1 340/20/1
f 341/38/1 342/37/1 343/57/1 344/58/1
f 345/21/1 346/22/1 347/23/1 348/24/1
f 349/24/1 350/23/1 351/65/1 352/66/1
f 353/18/1 354/69/1 355/70/1 356/19/1
f 357/5/1 358/6/1 359/7/1 360/8/1
f 361/61/1 362/62/1 363/63/1 364/64/1
f 365/1/1 366/2/1 367/3/1 368/4/1
f 369/19/1 370/70/1 371/39/1 372/29/1
f 373/38/1 374/37/1 375/57/1 376/58/1
f 377/67/1 378/20/1 379/30/1 380/68/1
f 381/25/1 382/26/1 383/27/1 384/28/1
f 385/21/1 386/22/1 387/23/1 388/24/1
f 389/41/1 390/42/1 391/43/1 392/44/1
f 393/42/1 394/47/1 395/50/1 396/43/1
f 397/47/1 398/48/1 399/49/1 400/50/1
f 401/1/1 402/2/1 403/3/1 404/4/1
f 405/18/1 406/69/1 407/70/1 408/19/1
f 409/21/1 410/22/1 411/23/1 412/24/1
f 413/51/1 414/52/1 415/42/1 416/41/1
f 417/52/1 418/53/1 419/47/1 420/42/1
f 421/53/1 422/54/1 423/48/1 424/47/1
f 425/25/1 426/26/1 427/27/1 428/28/1
f 429/39/1 430/25/1 431/28/1 432/40/1
f 433/5/1 434/6/1 435/7/1 436/8/1
f 437/21/1 438/22/1 439/23/1 440/24/1
f 441/1/1 442/2/1 443/3/1 444/4/1
f 445/55/1 446/16/1 447/52/1 448/51/1
f 449/16/1 450/15/1 451/53/1 452/52/1
f 453/15/1 454/56/1 455/54/1 456/53/1
f 457/60/1 458/13/1 459/16/1 460/55/1
f 461/18/1 462/69/1 463/70/1 464/19/1
f 465/18/1 466/69/1 467/70/1 468/19/1
f 469/13/1 470/14/1 471/15/1 472/16/1
f 473/19/1 474/70/1 475/39/1 476/29/1
f 477/5/1 478/6/1 479/7/1 480/8/1
f 481/19/1 482/70/1 483/39/1 484/29/1
f 485/21/1 486/22/1 487/23/1 488/24/1
f 489/37/1 490/59/1 491/60/1 492/57/1
f 493/37/1 494/59/1 495/60/1 496/57/1
f 497/37/1 498/59/1 499/60/1 500/57/1
f 501/40/1 502/28/1 503/74/1 504/75/1
f 505/25/1 506/26/1 507/27/1 508/28/1
f 509/17/1 510/18/1 511/19/1 512/20/1
f 513/38/1 514/37/1 515/57/1 516/58/1
f 517/38/1 518/37/1 519/57/1 520/58/1
f 521/35/1 522/36/1 523/37/1 524/38/1
f 525/1/1 526/2/1 527/3/1 528/4/1
f 529/35/1 530/36/1 531/37/1 532/38/1
f 533/24/1 534/23/1 535/65/1 536/66/1
f 537/24/1 538/23/1 539/65/1 540/66/1
f 541/13/1 542/14/1 543/15/1 544/16/1
f 545/24/1 546/23/1 547/65/1 548/66/1
f 549/60/1 550/13/1 551/16/1 552/55/1
f 553/36/1 554/71/1 555/59/1 556/37/1
f 557/18/1 558/69/1 559/70/1 560/19/1
f 561/40/1 562/28/1 563/74/1 564/75/1
f 565/37/1 566/59/1 567/60/1 568/57/1
f 569/18/1 570/69/1 571/70/1 572/19/1
f 573/38/1 574/37/1 575/57/1 576/58/1
f 577/17/1 578/18/1 579/19/1 580/20/1
f 581/25/1 582/26/1 583/27/1 584/28/1
f 585/35/1 586/36/1 587/37/1 588/38/1
f 589/13/1 590/14/1 591/15/1 592/16/1
f 593/35/1 594/36/1 595/37/1 596/38/1

