# Tiled2Unity generated file. Do not modify by hand.
# Wavefront file for 'untitled_mesh_0110.obj'

# Vertices (Count = 16)
v -144.32 -32.96 0
v -144.64 -32.96 0
v -144.64 -32.64 0
v -144.32 -32.64 0
v -144.64 -32.96 0
v -144.96 -32.96 0
v -144.96 -32.64 0
v -144.64 -32.64 0
v -144.64 -33.28 0
v -144.96 -33.28 0
v -144.96 -32.96 0
v -144.64 -32.96 0
v -144.64 -33.6 0
v -144.96 -33.6 0
v -144.96 -33.28 0
v -144.64 -33.28 0

# Texture cooridinates (Count = 10)
vt 0.75 0.125
vt 0.8125 0.125
vt 0.8125 0.1875
vt 0.75 0.1875
vt 0.875 0.125
vt 0.875 0.1875
vt 0.8125 0.0625
vt 0.875 0.0625
vt 0.8125 0
vt 0.875 0

# Normal
vn 0 0 -1

# Mesh description
g untitled_mesh_0110

# Faces
f 1/1/1 2/2/1 3/3/1 4/4/1
f 5/2/1 6/5/1 7/6/1 8/3/1
f 9/7/1 10/8/1 11/5/1 12/2/1
f 13/9/1 14/10/1 15/8/1 16/7/1

