# Tiled2Unity generated file. Do not modify by hand.
# Wavefront file for 'untitled_mesh_0059.obj'

# Vertices (Count = 340)
v -64.96 -13.76 0
v -65.28 -13.76 0
v -65.28 -13.44 0
v -64.96 -13.44 0
v -65.6 -13.76 0
v -65.92 -13.76 0
v -65.92 -13.44 0
v -65.6 -13.44 0
v -67.2 -13.76 0
v -67.52 -13.76 0
v -67.52 -13.44 0
v -67.2 -13.44 0
v -62.72 -14.08 0
v -63.04 -14.08 0
v -63.04 -13.76 0
v -62.72 -13.76 0
v -64.96 -14.08 0
v -65.28 -14.08 0
v -65.28 -13.76 0
v -64.96 -13.76 0
v -66.24 -14.08 0
v -66.56 -14.08 0
v -66.56 -13.76 0
v -66.24 -13.76 0
v -62.72 -14.4 0
v -63.04 -14.4 0
v -63.04 -14.08 0
v -62.72 -14.08 0
v -65.6 -14.4 0
v -65.92 -14.4 0
v -65.92 -14.08 0
v -65.6 -14.08 0
v -66.24 -14.4 0
v -66.56 -14.4 0
v -66.56 -14.08 0
v -66.24 -14.08 0
v -66.56 -14.72 0
v -66.88 -14.72 0
v -66.88 -14.4 0
v -66.56 -14.4 0
v -62.72 -15.04 0
v -63.04 -15.04 0
v -63.04 -14.72 0
v -62.72 -14.72 0
v -64.64 -15.04 0
v -64.96 -15.04 0
v -64.96 -14.72 0
v -64.64 -14.72 0
v -65.6 -15.04 0
v -65.92 -15.04 0
v -65.92 -14.72 0
v -65.6 -14.72 0
v -59.84 -15.36 0
v -60.16 -15.36 0
v -60.16 -15.04 0
v -59.84 -15.04 0
v -61.12 -15.36 0
v -61.44 -15.36 0
v -61.44 -15.04 0
v -61.12 -15.04 0
v -65.6 -15.36 0
v -65.92 -15.36 0
v -65.92 -15.04 0
v -65.6 -15.04 0
v -59.84 -15.68 0
v -60.16 -15.68 0
v -60.16 -15.36 0
v -59.84 -15.36 0
v -63.68 -15.68 0
v -64 -15.68 0
v -64 -15.36 0
v -63.68 -15.36 0
v -59.84 -16 0
v -60.16 -16 0
v -60.16 -15.68 0
v -59.84 -15.68 0
v -63.04 -16 0
v -63.36 -16 0
v -63.36 -15.68 0
v -63.04 -15.68 0
v -63.68 -16 0
v -64 -16 0
v -64 -15.68 0
v -63.68 -15.68 0
v -65.92 -16 0
v -66.24 -16 0
v -66.24 -15.68 0
v -65.92 -15.68 0
v -59.2 -16.64 0
v -59.52 -16.64 0
v -59.52 -16.32 0
v -59.2 -16.32 0
v -60.8 -16.64 0
v -61.12 -16.64 0
v -61.12 -16.32 0
v -60.8 -16.32 0
v -58.88 -17.28 0
v -59.2 -17.28 0
v -59.2 -16.96 0
v -58.88 -16.96 0
v -58.88 -17.6 0
v -59.2 -17.6 0
v -59.2 -17.28 0
v -58.88 -17.28 0
v -60.16 -17.6 0
v -60.48 -17.6 0
v -60.48 -17.28 0
v -60.16 -17.28 0
v -58.88 -17.92 0
v -59.2 -17.92 0
v -59.2 -17.6 0
v -58.88 -17.6 0
v -59.52 -17.92 0
v -59.84 -17.92 0
v -59.84 -17.6 0
v -59.52 -17.6 0
v -59.84 -18.56 0
v -60.16 -18.56 0
v -60.16 -18.24 0
v -59.84 -18.24 0
v -59.84 -18.88 0
v -60.16 -18.88 0
v -60.16 -18.56 0
v -59.84 -18.56 0
v -190.72 -62.4 0
v -191.04 -62.4 0
v -191.04 -62.08 0
v -190.72 -62.08 0
v -190.72 -62.72 0
v -191.04 -62.72 0
v -191.04 -62.4 0
v -190.72 -62.4 0
v -193.28 -64.32 0
v -193.6 -64.32 0
v -193.6 -64 0
v -193.28 -64 0
v -193.28 -64.64 0
v -193.6 -64.64 0
v -193.6 -64.32 0
v -193.28 -64.32 0
v -189.12 -65.28 0
v -189.44 -65.28 0
v -189.44 -64.96 0
v -189.12 -64.96 0
v -191.36 -65.28 0
v -191.68 -65.28 0
v -191.68 -64.96 0
v -191.36 -64.96 0
v -189.12 -65.6 0
v -189.44 -65.6 0
v -189.44 -65.28 0
v -189.12 -65.28 0
v -191.36 -65.6 0
v -191.68 -65.6 0
v -191.68 -65.28 0
v -191.36 -65.28 0
v -191.36 -67.52 0
v -191.68 -67.52 0
v -191.68 -67.2 0
v -191.36 -67.2 0
v -191.36 -67.84 0
v -191.68 -67.84 0
v -191.68 -67.52 0
v -191.36 -67.52 0
v -244.48 -115.84 0
v -244.8 -115.84 0
v -244.8 -115.52 0
v -244.48 -115.52 0
v -241.28 -117.44 0
v -241.6 -117.44 0
v -241.6 -117.12 0
v -241.28 -117.12 0
v -241.28 -117.76 0
v -241.6 -117.76 0
v -241.6 -117.44 0
v -241.28 -117.44 0
v -245.44 -118.08 0
v -245.76 -118.08 0
v -245.76 -117.76 0
v -245.44 -117.76 0
v -253.44 -118.08 0
v -253.76 -118.08 0
v -253.76 -117.76 0
v -253.44 -117.76 0
v -250.88 -118.72 0
v -251.2 -118.72 0
v -251.2 -118.4 0
v -250.88 -118.4 0
v -244.8 -119.04 0
v -245.12 -119.04 0
v -245.12 -118.72 0
v -244.8 -118.72 0
v -250.88 -119.04 0
v -251.2 -119.04 0
v -251.2 -118.72 0
v -250.88 -118.72 0
v -240.32 -119.36 0
v -240.64 -119.36 0
v -240.64 -119.04 0
v -240.32 -119.04 0
v -252.48 -119.68 0
v -252.8 -119.68 0
v -252.8 -119.36 0
v -252.48 -119.36 0
v -242.24 -120 0
v -242.56 -120 0
v -242.56 -119.68 0
v -242.24 -119.68 0
v -247.04 -120 0
v -247.36 -120 0
v -247.36 -119.68 0
v -247.04 -119.68 0
v -250.24 -120 0
v -250.56 -120 0
v -250.56 -119.68 0
v -250.24 -119.68 0
v -252.48 -120 0
v -252.8 -120 0
v -252.8 -119.68 0
v -252.48 -119.68 0
v -247.04 -120.32 0
v -247.36 -120.32 0
v -247.36 -120 0
v -247.04 -120 0
v -250.24 -120.32 0
v -250.56 -120.32 0
v -250.56 -120 0
v -250.24 -120 0
v -254.08 -120.32 0
v -254.4 -120.32 0
v -254.4 -120 0
v -254.08 -120 0
v -240.64 -120.64 0
v -240.96 -120.64 0
v -240.96 -120.32 0
v -240.64 -120.32 0
v -240.64 -120.96 0
v -240.96 -120.96 0
v -240.96 -120.64 0
v -240.64 -120.64 0
v -252.48 -121.6 0
v -252.8 -121.6 0
v -252.8 -121.28 0
v -252.48 -121.28 0
v -238.72 -121.92 0
v -239.04 -121.92 0
v -239.04 -121.6 0
v -238.72 -121.6 0
v -238.72 -122.24 0
v -239.04 -122.24 0
v -239.04 -121.92 0
v -238.72 -121.92 0
v -240.64 -122.24 0
v -240.96 -122.24 0
v -240.96 -121.92 0
v -240.64 -121.92 0
v -249.6 -122.56 0
v -249.92 -122.56 0
v -249.92 -122.24 0
v -249.6 -122.24 0
v -245.76 -122.88 0
v -246.08 -122.88 0
v -246.08 -122.56 0
v -245.76 -122.56 0
v -249.6 -122.88 0
v -249.92 -122.88 0
v -249.92 -122.56 0
v -249.6 -122.56 0
v -252.48 -122.88 0
v -252.8 -122.88 0
v -252.8 -122.56 0
v -252.48 -122.56 0
v -239.04 -123.2 0
v -239.36 -123.2 0
v -239.36 -122.88 0
v -239.04 -122.88 0
v -245.76 -123.2 0
v -246.08 -123.2 0
v -246.08 -122.88 0
v -245.76 -122.88 0
v -252.48 -123.2 0
v -252.8 -123.2 0
v -252.8 -122.88 0
v -252.48 -122.88 0
v -239.04 -123.52 0
v -239.36 -123.52 0
v -239.36 -123.2 0
v -239.04 -123.2 0
v -240.32 -124.16 0
v -240.64 -124.16 0
v -240.64 -123.84 0
v -240.32 -123.84 0
v -246.72 -124.48 0
v -247.04 -124.48 0
v -247.04 -124.16 0
v -246.72 -124.16 0
v -241.92 -125.12 0
v -242.24 -125.12 0
v -242.24 -124.8 0
v -241.92 -124.8 0
v -244.8 -125.12 0
v -245.12 -125.12 0
v -245.12 -124.8 0
v -244.8 -124.8 0
v -250.24 -125.12 0
v -250.56 -125.12 0
v -250.56 -124.8 0
v -250.24 -124.8 0
v -241.92 -125.44 0
v -242.24 -125.44 0
v -242.24 -125.12 0
v -241.92 -125.12 0
v -244.8 -125.44 0
v -245.12 -125.44 0
v -245.12 -125.12 0
v -244.8 -125.12 0
v -240.32 -125.76 0
v -240.64 -125.76 0
v -240.64 -125.44 0
v -240.32 -125.44 0
v -252.16 -126.08 0
v -252.48 -126.08 0
v -252.48 -125.76 0
v -252.16 -125.76 0
v -245.44 -126.4 0
v -245.76 -126.4 0
v -245.76 -126.08 0
v -245.44 -126.08 0
v -252.16 -126.4 0
v -252.48 -126.4 0
v -252.48 -126.08 0
v -252.16 -126.08 0
v -242.24 -126.72 0
v -242.56 -126.72 0
v -242.56 -126.4 0
v -242.24 -126.4 0
v -250.56 -126.72 0
v -250.88 -126.72 0
v -250.88 -126.4 0
v -250.56 -126.4 0

# Texture cooridinates (Count = 54)
vt 0.625 0.25
vt 0.6875 0.25
vt 0.6875 0.3125
vt 0.625 0.3125
vt 0.5 0.5
vt 0.5625 0.5
vt 0.5625 0.5625
vt 0.5 0.5625
vt 0.625 0.5
vt 0.625 0.5625
vt 0.625 0.1875
vt 0.6875 0.1875
vt 0.625 0.4375
vt 0.6875 0.4375
vt 0.6875 0.5
vt 0.875 0.5
vt 0.9375 0.5
vt 0.9375 0.5625
vt 0.875 0.5625
vt 0.5 0.3125
vt 0.5625 0.3125
vt 0.5625 0.375
vt 0.5 0.375
vt 0.6875 0.5625
vt 0.5 0.25
vt 0.5625 0.25
vt 0.5 0.1875
vt 0.5625 0.1875
vt 0.8125 0.5
vt 0.8125 0.5625
vt 0.5 0.4375
vt 0.5625 0.4375
vt 1 0.5
vt 1 0.5625
vt 0.8125 0.4375
vt 0.875 0.4375
vt 0.1875 0.875
vt 0.25 0.875
vt 0.25 0.9375
vt 0.1875 0.9375
vt 0.1875 0.8125
vt 0.25 0.8125
vt 0 0.875
vt 0.0625 0.875
vt 0.0625 0.9375
vt 0 0.9375
vt 0 0.8125
vt 0.0625 0.8125
vt 0.25 0.5
vt 0.3125 0.5
vt 0.3125 0.5625
vt 0.25 0.5625
vt 0.25 0.4375
vt 0.3125 0.4375

# Normal
vn 0 0 -1

# Mesh description
g untitled_mesh_0059

# Faces
f 1/1/1 2/2/1 3/3/1 4/4/1
f 5/5/1 6/6/1 7/7/1 8/8/1
f 9/6/1 10/9/1 11/10/1 12/7/1
f 13/1/1 14/2/1 15/3/1 16/4/1
f 17/11/1 18/12/1 19/2/1 20/1/1
f 21/1/1 22/2/1 23/3/1 24/4/1
f 25/11/1 26/12/1 27/2/1 28/1/1
f 29/13/1 30/14/1 31/15/1 32/9/1
f 33/11/1 34/12/1 35/2/1 36/1/1
f 37/16/1 38/17/1 39/18/1 40/19/1
f 41/16/1 42/17/1 43/18/1 44/19/1
f 45/5/1 46/6/1 47/7/1 48/8/1
f 49/1/1 50/2/1 51/3/1 52/4/1
f 53/20/1 54/21/1 55/22/1 56/23/1
f 57/9/1 58/15/1 59/24/1 60/10/1
f 61/11/1 62/12/1 63/2/1 64/1/1
f 65/25/1 66/26/1 67/21/1 68/20/1
f 69/1/1 70/2/1 71/3/1 72/4/1
f 73/27/1 74/28/1 75/26/1 76/25/1
f 77/5/1 78/6/1 79/7/1 80/8/1
f 81/11/1 82/12/1 83/2/1 84/1/1
f 85/29/1 86/16/1 87/19/1 88/30/1
f 89/31/1 90/32/1 91/6/1 92/5/1
f 93/13/1 94/14/1 95/15/1 96/9/1
f 97/20/1 98/21/1 99/22/1 100/23/1
f 101/25/1 102/26/1 103/21/1 104/20/1
f 105/6/1 106/9/1 107/10/1 108/7/1
f 109/27/1 110/28/1 111/26/1 112/25/1
f 113/17/1 114/33/1 115/34/1 116/18/1
f 117/35/1 118/36/1 119/16/1 120/29/1
f 121/6/1 122/9/1 123/10/1 124/7/1
f 125/37/1 126/38/1 127/39/1 128/40/1
f 129/41/1 130/42/1 131/38/1 132/37/1
f 133/37/1 134/38/1 135/39/1 136/40/1
f 137/41/1 138/42/1 139/38/1 140/37/1
f 141/37/1 142/38/1 143/39/1 144/40/1
f 145/37/1 146/38/1 147/39/1 148/40/1
f 149/41/1 150/42/1 151/38/1 152/37/1
f 153/41/1 154/42/1 155/38/1 156/37/1
f 157/37/1 158/38/1 159/39/1 160/40/1
f 161/41/1 162/42/1 163/38/1 164/37/1
f 165/43/1 166/44/1 167/45/1 168/46/1
f 169/37/1 170/38/1 171/39/1 172/40/1
f 173/41/1 174/42/1 175/38/1 176/37/1
f 177/47/1 178/48/1 179/44/1 180/43/1
f 181/47/1 182/48/1 183/44/1 184/43/1
f 185/37/1 186/38/1 187/39/1 188/40/1
f 189/47/1 190/48/1 191/44/1 192/43/1
f 193/41/1 194/42/1 195/38/1 196/37/1
f 197/47/1 198/48/1 199/44/1 200/43/1
f 201/37/1 202/38/1 203/39/1 204/40/1
f 205/47/1 206/48/1 207/44/1 208/43/1
f 209/37/1 210/38/1 211/39/1 212/40/1
f 213/49/1 214/50/1 215/51/1 216/52/1
f 217/41/1 218/42/1 219/38/1 220/37/1
f 221/41/1 222/42/1 223/38/1 224/37/1
f 225/53/1 226/54/1 227/50/1 228/49/1
f 229/47/1 230/48/1 231/44/1 232/43/1
f 233/37/1 234/38/1 235/39/1 236/40/1
f 237/41/1 238/42/1 239/38/1 240/37/1
f 241/47/1 242/48/1 243/44/1 244/43/1
f 245/49/1 246/50/1 247/51/1 248/52/1
f 249/53/1 250/54/1 251/50/1 252/49/1
f 253/43/1 254/44/1 255/45/1 256/46/1
f 257/37/1 258/38/1 259/39/1 260/40/1
f 261/37/1 262/38/1 263/39/1 264/40/1
f 265/41/1 266/42/1 267/38/1 268/37/1
f 269/37/1 270/38/1 271/39/1 272/40/1
f 273/37/1 274/38/1 275/39/1 276/40/1
f 277/41/1 278/42/1 279/38/1 280/37/1
f 281/41/1 282/42/1 283/38/1 284/37/1
f 285/41/1 286/42/1 287/38/1 288/37/1
f 289/47/1 290/48/1 291/44/1 292/43/1
f 293/43/1 294/44/1 295/45/1 296/46/1
f 297/37/1 298/38/1 299/39/1 300/40/1
f 301/49/1 302/50/1 303/51/1 304/52/1
f 305/47/1 306/48/1 307/44/1 308/43/1
f 309/41/1 310/42/1 311/38/1 312/37/1
f 313/53/1 314/54/1 315/50/1 316/49/1
f 317/43/1 318/44/1 319/45/1 320/46/1
f 321/37/1 322/38/1 323/39/1 324/40/1
f 325/47/1 326/48/1 327/44/1 328/43/1
f 329/41/1 330/42/1 331/38/1 332/37/1
f 333/43/1 334/44/1 335/45/1 336/46/1
f 337/47/1 338/48/1 339/44/1 340/43/1

