# Tiled2Unity generated file. Do not modify by hand.
# Wavefront file for 'untitled_mesh_0062.obj'

# Vertices (Count = 344)
v -146.88 -31.04 0
v -147.2 -31.04 0
v -147.2 -30.72 0
v -146.88 -30.72 0
v -147.2 -31.04 0
v -147.52 -31.04 0
v -147.52 -30.72 0
v -147.2 -30.72 0
v -147.52 -31.04 0
v -147.84 -31.04 0
v -147.84 -30.72 0
v -147.52 -30.72 0
v -146.88 -31.36 0
v -147.2 -31.36 0
v -147.2 -31.04 0
v -146.88 -31.04 0
v -147.2 -31.36 0
v -147.52 -31.36 0
v -147.52 -31.04 0
v -147.2 -31.04 0
v -147.52 -31.36 0
v -147.84 -31.36 0
v -147.84 -31.04 0
v -147.52 -31.04 0
v -146.88 -31.68 0
v -147.2 -31.68 0
v -147.2 -31.36 0
v -146.88 -31.36 0
v -147.52 -31.68 0
v -147.84 -31.68 0
v -147.84 -31.36 0
v -147.52 -31.36 0
v -131.84 -69.43999 0
v -132.16 -69.43999 0
v -132.16 -69.12 0
v -131.84 -69.12 0
v -132.16 -69.43999 0
v -132.48 -69.43999 0
v -132.48 -69.12 0
v -132.16 -69.12 0
v -132.48 -69.43999 0
v -132.8 -69.43999 0
v -132.8 -69.12 0
v -132.48 -69.12 0
v -132.8 -69.43999 0
v -133.12 -69.43999 0
v -133.12 -69.12 0
v -132.8 -69.12 0
v -131.84 -69.76 0
v -132.16 -69.76 0
v -132.16 -69.43999 0
v -131.84 -69.43999 0
v -132.16 -69.76 0
v -132.48 -69.76 0
v -132.48 -69.43999 0
v -132.16 -69.43999 0
v -132.48 -69.76 0
v -132.8 -69.76 0
v -132.8 -69.43999 0
v -132.48 -69.43999 0
v -132.8 -69.76 0
v -133.12 -69.76 0
v -133.12 -69.43999 0
v -132.8 -69.43999 0
v -133.12 -69.76 0
v -133.44 -69.76 0
v -133.44 -69.43999 0
v -133.12 -69.43999 0
v -131.84 -70.08 0
v -132.16 -70.08 0
v -132.16 -69.76 0
v -131.84 -69.76 0
v -132.16 -70.08 0
v -132.48 -70.08 0
v -132.48 -69.76 0
v -132.16 -69.76 0
v -132.48 -70.08 0
v -132.8 -70.08 0
v -132.8 -69.76 0
v -132.48 -69.76 0
v -132.8 -70.08 0
v -133.12 -70.08 0
v -133.12 -69.76 0
v -132.8 -69.76 0
v -133.12 -70.08 0
v -133.44 -70.08 0
v -133.44 -69.76 0
v -133.12 -69.76 0
v -131.84 -70.4 0
v -132.16 -70.4 0
v -132.16 -70.08 0
v -131.84 -70.08 0
v -132.16 -70.4 0
v -132.48 -70.4 0
v -132.48 -70.08 0
v -132.16 -70.08 0
v -132.48 -70.4 0
v -132.8 -70.4 0
v -132.8 -70.08 0
v -132.48 -70.08 0
v -132.8 -70.4 0
v -133.12 -70.4 0
v -133.12 -70.08 0
v -132.8 -70.08 0
v -133.12 -70.4 0
v -133.44 -70.4 0
v -133.44 -70.08 0
v -133.12 -70.08 0
v -131.84 -70.72 0
v -132.16 -70.72 0
v -132.16 -70.4 0
v -131.84 -70.4 0
v -132.16 -70.72 0
v -132.48 -70.72 0
v -132.48 -70.4 0
v -132.16 -70.4 0
v -132.48 -70.72 0
v -132.8 -70.72 0
v -132.8 -70.4 0
v -132.48 -70.4 0
v -132.8 -70.72 0
v -133.12 -70.72 0
v -133.12 -70.4 0
v -132.8 -70.4 0
v -133.12 -70.72 0
v -133.44 -70.72 0
v -133.44 -70.4 0
v -133.12 -70.4 0
v -131.84 -71.04 0
v -132.16 -71.04 0
v -132.16 -70.72 0
v -131.84 -70.72 0
v -132.16 -71.04 0
v -132.48 -71.04 0
v -132.48 -70.72 0
v -132.16 -70.72 0
v -132.48 -71.04 0
v -132.8 -71.04 0
v -132.8 -70.72 0
v -132.48 -70.72 0
v -132.8 -71.04 0
v -133.12 -71.04 0
v -133.12 -70.72 0
v -132.8 -70.72 0
v -133.12 -71.04 0
v -133.44 -71.04 0
v -133.44 -70.72 0
v -133.12 -70.72 0
v -99.2 -169.28 0
v -99.52 -169.28 0
v -99.52 -168.96 0
v -99.2 -168.96 0
v -99.2 -169.6 0
v -99.52 -169.6 0
v -99.52 -169.28 0
v -99.2 -169.28 0
v -90.24 -169.92 0
v -90.56 -169.92 0
v -90.56 -169.6 0
v -90.24 -169.6 0
v -90.56 -169.92 0
v -90.88 -169.92 0
v -90.88 -169.6 0
v -90.56 -169.6 0
v -90.88 -169.92 0
v -91.2 -169.92 0
v -91.2 -169.6 0
v -90.88 -169.6 0
v -94.07999 -169.92 0
v -94.4 -169.92 0
v -94.4 -169.6 0
v -94.07999 -169.6 0
v -90.24 -170.24 0
v -90.56 -170.24 0
v -90.56 -169.92 0
v -90.24 -169.92 0
v -90.56 -170.24 0
v -90.88 -170.24 0
v -90.88 -169.92 0
v -90.56 -169.92 0
v -90.88 -170.24 0
v -91.2 -170.24 0
v -91.2 -169.92 0
v -90.88 -169.92 0
v -94.07999 -170.24 0
v -94.4 -170.24 0
v -94.4 -169.92 0
v -94.07999 -169.92 0
v -90.24 -170.56 0
v -90.56 -170.56 0
v -90.56 -170.24 0
v -90.24 -170.24 0
v -90.56 -170.56 0
v -90.88 -170.56 0
v -90.88 -170.24 0
v -90.56 -170.24 0
v -90.88 -170.56 0
v -91.2 -170.56 0
v -91.2 -170.24 0
v -90.88 -170.24 0
v -96 -171.2 0
v -96.32 -171.2 0
v -96.32 -170.88 0
v -96 -170.88 0
v -91.84 -171.52 0
v -92.16 -171.52 0
v -92.16 -171.2 0
v -91.84 -171.2 0
v -96 -171.52 0
v -96.32 -171.52 0
v -96.32 -171.2 0
v -96 -171.2 0
v -91.84 -171.84 0
v -92.16 -171.84 0
v -92.16 -171.52 0
v -91.84 -171.52 0
v -93.43999 -173.12 0
v -93.75999 -173.12 0
v -93.75999 -172.8 0
v -93.43999 -172.8 0
v -93.43999 -173.44 0
v -93.75999 -173.44 0
v -93.75999 -173.12 0
v -93.43999 -173.12 0
v -88.96 -174.4 0
v -89.28 -174.4 0
v -89.28 -174.08 0
v -88.96 -174.08 0
v -88.96 -174.72 0
v -89.28 -174.72 0
v -89.28 -174.4 0
v -88.96 -174.4 0
v -82.56 -175.04 0
v -82.88 -175.04 0
v -82.88 -174.72 0
v -82.56 -174.72 0
v -82.56 -175.36 0
v -82.88 -175.36 0
v -82.88 -175.04 0
v -82.56 -175.04 0
v -84.16 -176.64 0
v -84.48 -176.64 0
v -84.48 -176.32 0
v -84.16 -176.32 0
v -84.16 -176.96 0
v -84.48 -176.96 0
v -84.48 -176.64 0
v -84.16 -176.64 0
v -88 -176.96 0
v -88.32 -176.96 0
v -88.32 -176.64 0
v -88 -176.64 0
v -90.56 -176.96 0
v -90.88 -176.96 0
v -90.88 -176.64 0
v -90.56 -176.64 0
v -88 -177.28 0
v -88.32 -177.28 0
v -88.32 -176.96 0
v -88 -176.96 0
v -90.56 -177.28 0
v -90.88 -177.28 0
v -90.88 -176.96 0
v -90.56 -176.96 0
v -85.43999 -178.24 0
v -85.75999 -178.24 0
v -85.75999 -177.92 0
v -85.43999 -177.92 0
v -82.56 -178.56 0
v -82.88 -178.56 0
v -82.88 -178.24 0
v -82.56 -178.24 0
v -85.43999 -178.56 0
v -85.75999 -178.56 0
v -85.75999 -178.24 0
v -85.43999 -178.24 0
v -90.24 -178.56 0
v -90.56 -178.56 0
v -90.56 -178.24 0
v -90.24 -178.24 0
v -82.56 -178.88 0
v -82.88 -178.88 0
v -82.88 -178.56 0
v -82.56 -178.56 0
v -90.24 -178.88 0
v -90.56 -178.88 0
v -90.56 -178.56 0
v -90.24 -178.56 0
v -97.28 -178.88 0
v -97.6 -178.88 0
v -97.6 -178.56 0
v -97.28 -178.56 0
v -97.28 -179.2 0
v -97.6 -179.2 0
v -97.6 -178.88 0
v -97.28 -178.88 0
v -95.68 -179.84 0
v -96 -179.84 0
v -96 -179.52 0
v -95.68 -179.52 0
v -95.68 -180.16 0
v -96 -180.16 0
v -96 -179.84 0
v -95.68 -179.84 0
v -94.72 -181.12 0
v -95.04 -181.12 0
v -95.04 -180.8 0
v -94.72 -180.8 0
v -94.72 -181.44 0
v -95.04 -181.44 0
v -95.04 -181.12 0
v -94.72 -181.12 0
v -93.75999 -191.36 0
v -94.07999 -191.36 0
v -94.07999 -191.04 0
v -93.75999 -191.04 0
v -94.07999 -191.36 0
v -94.4 -191.36 0
v -94.4 -191.04 0
v -94.07999 -191.04 0
v -94.4 -191.36 0
v -94.72 -191.36 0
v -94.72 -191.04 0
v -94.4 -191.04 0
v -94.72 -191.36 0
v -95.04 -191.36 0
v -95.04 -191.04 0
v -94.72 -191.04 0
v -93.75999 -191.68 0
v -94.07999 -191.68 0
v -94.07999 -191.36 0
v -93.75999 -191.36 0
v -94.07999 -191.68 0
v -94.4 -191.68 0
v -94.4 -191.36 0
v -94.07999 -191.36 0
v -94.4 -191.68 0
v -94.72 -191.68 0
v -94.72 -191.36 0
v -94.4 -191.36 0
v -94.72 -191.68 0
v -95.04 -191.68 0
v -95.04 -191.36 0
v -94.72 -191.36 0

# Texture cooridinates (Count = 88)
vt 0.0625 0.8125
vt 0.125 0.8125
vt 0.125 0.875
vt 0.0625 0.875
vt 0.1875 0.8125
vt 0.1875 0.875
vt 0.25 0.8125
vt 0.25 0.875
vt 0.0625 0.75
vt 0.125 0.75
vt 0.1875 0.75
vt 0.25 0.75
vt 0.0625 0.6875
vt 0.125 0.6875
vt 0.1875 0.6875
vt 0.25 0.6875
vt 0 0.3125
vt 0.0625 0.3125
vt 0.0625 0.375
vt 0 0.375
vt 0.125 0.3125
vt 0.125 0.375
vt 0.1875 0.3125
vt 0.1875 0.375
vt 0.25 0.3125
vt 0.25 0.375
vt 0 0.25
vt 0.0625 0.25
vt 0.125 0.25
vt 0.1875 0.25
vt 0.25 0.25
vt 0.3125 0.25
vt 0.3125 0.3125
vt 0 0.1875
vt 0.0625 0.1875
vt 0.125 0.1875
vt 0.1875 0.1875
vt 0.25 0.1875
vt 0.3125 0.1875
vt 0 0.125
vt 0.0625 0.125
vt 0.125 0.125
vt 0.1875 0.125
vt 0.25 0.125
vt 0.3125 0.125
vt 0 0.0625
vt 0.0625 0.0625
vt 0.125 0.0625
vt 0.1875 0.0625
vt 0.25 0.0625
vt 0.3125 0.0625
vt 0 0
vt 0.0625 0
vt 0.125 0
vt 0.1875 0
vt 0.25 0
vt 0.3125 0
vt 0.875 0.875
vt 0.9375 0.875
vt 0.9375 0.9375
vt 0.875 0.9375
vt 0.875 0.8125
vt 0.9375 0.8125
vt 0.625 0.125
vt 0.6875 0.125
vt 0.6875 0.1875
vt 0.625 0.1875
vt 0.75 0.125
vt 0.75 0.1875
vt 0.8125 0.125
vt 0.8125 0.1875
vt 0.625 0.0625
vt 0.6875 0.0625
vt 0.75 0.0625
vt 0.8125 0.0625
vt 0.625 0
vt 0.6875 0
vt 0.75 0
vt 0.8125 0
vt 0 0.625
vt 0.0625 0.625
vt 0 0.6875
vt 0.125 0.625
vt 0.1875 0.625
vt 0 0.5625
vt 0.0625 0.5625
vt 0.125 0.5625
vt 0.1875 0.5625

# Normal
vn 0 0 -1

# Mesh description
g untitled_mesh_0062

# Faces
f 1/1/1 2/2/1 3/3/1 4/4/1
f 5/2/1 6/5/1 7/6/1 8/3/1
f 9/5/1 10/7/1 11/8/1 12/6/1
f 13/9/1 14/10/1 15/2/1 16/1/1
f 17/10/1 18/11/1 19/5/1 20/2/1
f 21/11/1 22/12/1 23/7/1 24/5/1
f 25/13/1 26/14/1 27/10/1 28/9/1
f 29/15/1 30/16/1 31/12/1 32/11/1
f 33/17/1 34/18/1 35/19/1 36/20/1
f 37/18/1 38/21/1 39/22/1 40/19/1
f 41/21/1 42/23/1 43/24/1 44/22/1
f 45/23/1 46/25/1 47/26/1 48/24/1
f 49/27/1 50/28/1 51/18/1 52/17/1
f 53/28/1 54/29/1 55/21/1 56/18/1
f 57/29/1 58/30/1 59/23/1 60/21/1
f 61/30/1 62/31/1 63/25/1 64/23/1
f 65/31/1 66/32/1 67/33/1 68/25/1
f 69/34/1 70/35/1 71/28/1 72/27/1
f 73/35/1 74/36/1 75/29/1 76/28/1
f 77/36/1 78/37/1 79/30/1 80/29/1
f 81/37/1 82/38/1 83/31/1 84/30/1
f 85/38/1 86/39/1 87/32/1 88/31/1
f 89/40/1 90/41/1 91/35/1 92/34/1
f 93/41/1 94/42/1 95/36/1 96/35/1
f 97/42/1 98/43/1 99/37/1 100/36/1
f 101/43/1 102/44/1 103/38/1 104/37/1
f 105/44/1 106/45/1 107/39/1 108/38/1
f 109/46/1 110/47/1 111/41/1 112/40/1
f 113/47/1 114/48/1 115/42/1 116/41/1
f 117/48/1 118/49/1 119/43/1 120/42/1
f 121/49/1 122/50/1 123/44/1 124/43/1
f 125/50/1 126/51/1 127/45/1 128/44/1
f 129/52/1 130/53/1 131/47/1 132/46/1
f 133/53/1 134/54/1 135/48/1 136/47/1
f 137/54/1 138/55/1 139/49/1 140/48/1
f 141/55/1 142/56/1 143/50/1 144/49/1
f 145/56/1 146/57/1 147/51/1 148/50/1
f 149/58/1 150/59/1 151/60/1 152/61/1
f 153/62/1 154/63/1 155/59/1 156/58/1
f 157/64/1 158/65/1 159/66/1 160/67/1
f 161/65/1 162/68/1 163/69/1 164/66/1
f 165/68/1 166/70/1 167/71/1 168/69/1
f 169/58/1 170/59/1 171/60/1 172/61/1
f 173/72/1 174/73/1 175/65/1 176/64/1
f 177/73/1 178/74/1 179/68/1 180/65/1
f 181/74/1 182/75/1 183/70/1 184/68/1
f 185/62/1 186/63/1 187/59/1 188/58/1
f 189/76/1 190/77/1 191/73/1 192/72/1
f 193/77/1 194/78/1 195/74/1 196/73/1
f 197/78/1 198/79/1 199/75/1 200/74/1
f 201/58/1 202/59/1 203/60/1 204/61/1
f 205/58/1 206/59/1 207/60/1 208/61/1
f 209/62/1 210/63/1 211/59/1 212/58/1
f 213/62/1 214/63/1 215/59/1 216/58/1
f 217/58/1 218/59/1 219/60/1 220/61/1
f 221/62/1 222/63/1 223/59/1 224/58/1
f 225/58/1 226/59/1 227/60/1 228/61/1
f 229/62/1 230/63/1 231/59/1 232/58/1
f 233/58/1 234/59/1 235/60/1 236/61/1
f 237/62/1 238/63/1 239/59/1 240/58/1
f 241/58/1 242/59/1 243/60/1 244/61/1
f 245/62/1 246/63/1 247/59/1 248/58/1
f 249/58/1 250/59/1 251/60/1 252/61/1
f 253/58/1 254/59/1 255/60/1 256/61/1
f 257/62/1 258/63/1 259/59/1 260/58/1
f 261/62/1 262/63/1 263/59/1 264/58/1
f 265/58/1 266/59/1 267/60/1 268/61/1
f 269/58/1 270/59/1 271/60/1 272/61/1
f 273/62/1 274/63/1 275/59/1 276/58/1
f 277/58/1 278/59/1 279/60/1 280/61/1
f 281/62/1 282/63/1 283/59/1 284/58/1
f 285/62/1 286/63/1 287/59/1 288/58/1
f 289/58/1 290/59/1 291/60/1 292/61/1
f 293/62/1 294/63/1 295/59/1 296/58/1
f 297/58/1 298/59/1 299/60/1 300/61/1
f 301/62/1 302/63/1 303/59/1 304/58/1
f 305/58/1 306/59/1 307/60/1 308/61/1
f 309/62/1 310/63/1 311/59/1 312/58/1
f 313/80/1 314/81/1 315/13/1 316/82/1
f 317/81/1 318/83/1 319/14/1 320/13/1
f 321/81/1 322/83/1 323/14/1 324/13/1
f 325/83/1 326/84/1 327/15/1 328/14/1
f 329/85/1 330/86/1 331/81/1 332/80/1
f 333/86/1 334/87/1 335/83/1 336/81/1
f 337/86/1 338/87/1 339/83/1 340/81/1
f 341/87/1 342/88/1 343/84/1 344/83/1

