# Tiled2Unity generated file. Do not modify by hand.
# Wavefront file for 'untitled_mesh_0090.obj'

# Vertices (Count = 76)
v -12.48 -2.24 0
v -12.8 -2.24 0
v -12.8 -1.92 0
v -12.48 -1.92 0
v -12.48 -2.56 0
v -12.8 -2.56 0
v -12.8 -2.24 0
v -12.48 -2.24 0
v -13.12 -3.52 0
v -13.44 -3.52 0
v -13.44 -3.2 0
v -13.12 -3.2 0
v -13.12 -3.84 0
v -13.44 -3.84 0
v -13.44 -3.52 0
v -13.12 -3.52 0
v -5.12 -9.92 0
v -5.44 -9.92 0
v -5.44 -9.599999 0
v -5.12 -9.599999 0
v -5.44 -9.92 0
v -5.76 -9.92 0
v -5.76 -9.599999 0
v -5.44 -9.599999 0
v -5.12 -10.24 0
v -5.44 -10.24 0
v -5.44 -9.92 0
v -5.12 -9.92 0
v -5.44 -10.24 0
v -5.76 -10.24 0
v -5.76 -9.92 0
v -5.44 -9.92 0
v -68.48 -46.4 0
v -68.8 -46.4 0
v -68.8 -46.08 0
v -68.48 -46.08 0
v -68.8 -46.4 0
v -69.12 -46.4 0
v -69.12 -46.08 0
v -68.8 -46.08 0
v -69.76 -46.4 0
v -70.08 -46.4 0
v -70.08 -46.08 0
v -69.76 -46.08 0
v -70.08 -46.4 0
v -70.4 -46.4 0
v -70.4 -46.08 0
v -70.08 -46.08 0
v -70.72 -46.4 0
v -71.04 -46.4 0
v -71.04 -46.08 0
v -70.72 -46.08 0
v -68.48 -46.72 0
v -68.8 -46.72 0
v -68.8 -46.4 0
v -68.48 -46.4 0
v -68.8 -46.72 0
v -69.12 -46.72 0
v -69.12 -46.4 0
v -68.8 -46.4 0
v -69.76 -46.72 0
v -70.08 -46.72 0
v -70.08 -46.4 0
v -69.76 -46.4 0
v -70.08 -46.72 0
v -70.4 -46.72 0
v -70.4 -46.4 0
v -70.08 -46.4 0
v -70.72 -46.72 0
v -71.04 -46.72 0
v -71.04 -46.4 0
v -70.72 -46.4 0
v -68.48 -52.16 0
v -68.8 -52.16 0
v -68.8 -51.84 0
v -68.48 -51.84 0

# Texture cooridinates (Count = 16)
vt 0.3125 0.875
vt 0.375 0.875
vt 0.375 0.9375
vt 0.3125 0.9375
vt 0.3125 0.8125
vt 0.375 0.8125
vt 0.4375 0.875
vt 0.4375 0.9375
vt 0.4375 0.8125
vt 0.25 0.875
vt 0.25 0.9375
vt 0.25 0.8125
vt 0.125 0.8125
vt 0.1875 0.8125
vt 0.1875 0.875
vt 0.125 0.875

# Normal
vn 0 0 -1

# Mesh description
g untitled_mesh_0090

# Faces
f 1/1/1 2/2/1 3/3/1 4/4/1
f 5/5/1 6/6/1 7/2/1 8/1/1
f 9/1/1 10/2/1 11/3/1 12/4/1
f 13/5/1 14/6/1 15/2/1 16/1/1
f 17/1/1 18/2/1 19/3/1 20/4/1
f 21/2/1 22/7/1 23/8/1 24/3/1
f 25/5/1 26/6/1 27/2/1 28/1/1
f 29/6/1 30/9/1 31/7/1 32/2/1
f 33/1/1 34/2/1 35/3/1 36/4/1
f 37/2/1 38/7/1 39/8/1 40/3/1
f 41/1/1 42/2/1 43/3/1 44/4/1
f 45/2/1 46/7/1 47/8/1 48/3/1
f 49/10/1 50/1/1 51/4/1 52/11/1
f 53/5/1 54/6/1 55/2/1 56/1/1
f 57/6/1 58/9/1 59/7/1 60/2/1
f 61/5/1 62/6/1 63/2/1 64/1/1
f 65/6/1 66/9/1 67/7/1 68/2/1
f 69/12/1 70/5/1 71/1/1 72/10/1
f 73/13/1 74/14/1 75/15/1 76/16/1

