# Tiled2Unity generated file. Do not modify by hand.
# Wavefront file for 'untitled_mesh_0086.obj'

# Vertices (Count = 376)
v -100.16 -168.64 0
v -100.48 -168.64 0
v -100.48 -168.32 0
v -100.16 -168.32 0
v -100.16 -168.96 0
v -100.48 -168.96 0
v -100.48 -168.64 0
v -100.16 -168.64 0
v -97.28 -169.92 0
v -97.6 -169.92 0
v -97.6 -169.6 0
v -97.28 -169.6 0
v -98.56 -169.92 0
v -98.88 -169.92 0
v -98.88 -169.6 0
v -98.56 -169.6 0
v -89.92 -170.24 0
v -90.24 -170.24 0
v -90.24 -169.92 0
v -89.92 -169.92 0
v -90.88 -170.24 0
v -91.2 -170.24 0
v -91.2 -169.92 0
v -90.88 -169.92 0
v -95.04 -170.24 0
v -95.36 -170.24 0
v -95.36 -169.92 0
v -95.04 -169.92 0
v -100.16 -170.24 0
v -100.48 -170.24 0
v -100.48 -169.92 0
v -100.16 -169.92 0
v -89.92 -170.56 0
v -90.24 -170.56 0
v -90.24 -170.24 0
v -89.92 -170.24 0
v -90.88 -170.56 0
v -91.2 -170.56 0
v -91.2 -170.24 0
v -90.88 -170.24 0
v -101.44 -170.88 0
v -101.76 -170.88 0
v -101.76 -170.56 0
v -101.44 -170.56 0
v -97.6 -171.2 0
v -97.92 -171.2 0
v -97.92 -170.88 0
v -97.6 -170.88 0
v -92.8 -171.52 0
v -93.12 -171.52 0
v -93.12 -171.2 0
v -92.8 -171.2 0
v -94.07999 -171.52 0
v -94.4 -171.52 0
v -94.4 -171.2 0
v -94.07999 -171.2 0
v -94.4 -171.52 0
v -94.72 -171.52 0
v -94.72 -171.2 0
v -94.4 -171.2 0
v -96.64 -171.52 0
v -96.96 -171.52 0
v -96.96 -171.2 0
v -96.64 -171.2 0
v -97.6 -171.52 0
v -97.92 -171.52 0
v -97.92 -171.2 0
v -97.6 -171.2 0
v -91.52 -172.8 0
v -91.84 -172.8 0
v -91.84 -172.48 0
v -91.52 -172.48 0
v -91.84 -172.8 0
v -92.16 -172.8 0
v -92.16 -172.48 0
v -91.84 -172.48 0
v -89.28 -173.12 0
v -89.6 -173.12 0
v -89.6 -172.8 0
v -89.28 -172.8 0
v -87.68 -174.4 0
v -88 -174.4 0
v -88 -174.08 0
v -87.68 -174.08 0
v -92.48 -174.4 0
v -92.8 -174.4 0
v -92.8 -174.08 0
v -92.48 -174.08 0
v -92.48 -174.72 0
v -92.8 -174.72 0
v -92.8 -174.4 0
v -92.48 -174.4 0
v -87.04 -175.04 0
v -87.36 -175.04 0
v -87.36 -174.72 0
v -87.04 -174.72 0
v -91.2 -175.04 0
v -91.52 -175.04 0
v -91.52 -174.72 0
v -91.2 -174.72 0
v -84.16 -175.36 0
v -84.48 -175.36 0
v -84.48 -175.04 0
v -84.16 -175.04 0
v -87.04 -175.36 0
v -87.36 -175.36 0
v -87.36 -175.04 0
v -87.04 -175.04 0
v -82.56 -176.32 0
v -82.88 -176.32 0
v -82.88 -176 0
v -82.56 -176 0
v -88.96 -176.32 0
v -89.28 -176.32 0
v -89.28 -176 0
v -88.96 -176 0
v -89.28 -176.32 0
v -89.6 -176.32 0
v -89.6 -176 0
v -89.28 -176 0
v -91.84 -176.64 0
v -92.16 -176.64 0
v -92.16 -176.32 0
v -91.84 -176.32 0
v -93.75999 -176.64 0
v -94.07999 -176.64 0
v -94.07999 -176.32 0
v -93.75999 -176.32 0
v -85.43999 -177.28 0
v -85.75999 -177.28 0
v -85.75999 -176.96 0
v -85.43999 -176.96 0
v -84.8 -177.6 0
v -85.12 -177.6 0
v -85.12 -177.28 0
v -84.8 -177.28 0
v -91.2 -177.6 0
v -91.52 -177.6 0
v -91.52 -177.28 0
v -91.2 -177.28 0
v -93.75999 -177.92 0
v -94.07999 -177.92 0
v -94.07999 -177.6 0
v -93.75999 -177.6 0
v -80.32 -178.24 0
v -80.64 -178.24 0
v -80.64 -177.92 0
v -80.32 -177.92 0
v -92.16 -178.56 0
v -92.48 -178.56 0
v -92.48 -178.24 0
v -92.16 -178.24 0
v -92.48 -178.56 0
v -92.8 -178.56 0
v -92.8 -178.24 0
v -92.48 -178.24 0
v -84.16 -178.88 0
v -84.48 -178.88 0
v -84.48 -178.56 0
v -84.16 -178.56 0
v -86.08 -178.88 0
v -86.4 -178.88 0
v -86.4 -178.56 0
v -86.08 -178.56 0
v -83.84 -179.2 0
v -84.16 -179.2 0
v -84.16 -178.88 0
v -83.84 -178.88 0
v -84.16 -179.2 0
v -84.48 -179.2 0
v -84.48 -178.88 0
v -84.16 -178.88 0
v -98.88 -179.2 0
v -99.2 -179.2 0
v -99.2 -178.88 0
v -98.88 -178.88 0
v -100.16 -179.2 0
v -100.48 -179.2 0
v -100.48 -178.88 0
v -100.16 -178.88 0
v -81.28 -179.52 0
v -81.6 -179.52 0
v -81.6 -179.2 0
v -81.28 -179.2 0
v -94.07999 -179.52 0
v -94.4 -179.52 0
v -94.4 -179.2 0
v -94.07999 -179.2 0
v -98.88 -179.52 0
v -99.2 -179.52 0
v -99.2 -179.2 0
v -98.88 -179.2 0
v -82.24 -179.84 0
v -82.56 -179.84 0
v -82.56 -179.52 0
v -82.24 -179.52 0
v -82.56 -179.84 0
v -82.88 -179.84 0
v -82.88 -179.52 0
v -82.56 -179.52 0
v -91.52 -179.84 0
v -91.84 -179.84 0
v -91.84 -179.52 0
v -91.52 -179.52 0
v -94.4 -179.84 0
v -94.72 -179.84 0
v -94.72 -179.52 0
v -94.4 -179.52 0
v -91.52 -180.48 0
v -91.84 -180.48 0
v -91.84 -180.16 0
v -91.52 -180.16 0
v -93.75999 -180.48 0
v -94.07999 -180.48 0
v -94.07999 -180.16 0
v -93.75999 -180.16 0
v -84.16 -180.8 0
v -84.48 -180.8 0
v -84.48 -180.48 0
v -84.16 -180.48 0
v -91.52 -180.8 0
v -91.84 -180.8 0
v -91.84 -180.48 0
v -91.52 -180.48 0
v -93.75999 -180.8 0
v -94.07999 -180.8 0
v -94.07999 -180.48 0
v -93.75999 -180.48 0
v -91.52 -181.12 0
v -91.84 -181.12 0
v -91.84 -180.8 0
v -91.52 -180.8 0
v -93.75999 -181.12 0
v -94.07999 -181.12 0
v -94.07999 -180.8 0
v -93.75999 -180.8 0
v -91.2 -182.08 0
v -91.52 -182.08 0
v -91.52 -181.76 0
v -91.2 -181.76 0
v -91.84 -182.08 0
v -92.16 -182.08 0
v -92.16 -181.76 0
v -91.84 -181.76 0
v -94.07999 -182.08 0
v -94.4 -182.08 0
v -94.4 -181.76 0
v -94.07999 -181.76 0
v -91.2 -182.4 0
v -91.52 -182.4 0
v -91.52 -182.08 0
v -91.2 -182.08 0
v -94.07999 -182.4 0
v -94.4 -182.4 0
v -94.4 -182.08 0
v -94.07999 -182.08 0
v -91.2 -182.72 0
v -91.52 -182.72 0
v -91.52 -182.4 0
v -91.2 -182.4 0
v -94.07999 -182.72 0
v -94.4 -182.72 0
v -94.4 -182.4 0
v -94.07999 -182.4 0
v -93.43999 -183.04 0
v -93.75999 -183.04 0
v -93.75999 -182.72 0
v -93.43999 -182.72 0
v -93.43999 -183.36 0
v -93.75999 -183.36 0
v -93.75999 -183.04 0
v -93.43999 -183.04 0
v -91.52 -184 0
v -91.84 -184 0
v -91.84 -183.68 0
v -91.52 -183.68 0
v -92.16 -184 0
v -92.48 -184 0
v -92.48 -183.68 0
v -92.16 -183.68 0
v -93.75999 -184 0
v -94.07999 -184 0
v -94.07999 -183.68 0
v -93.75999 -183.68 0
v -91.52 -184.32 0
v -91.84 -184.32 0
v -91.84 -184 0
v -91.52 -184 0
v -91.84 -184.32 0
v -92.16 -184.32 0
v -92.16 -184 0
v -91.84 -184 0
v -93.75999 -184.32 0
v -94.07999 -184.32 0
v -94.07999 -184 0
v -93.75999 -184 0
v -91.52 -184.64 0
v -91.84 -184.64 0
v -91.84 -184.32 0
v -91.52 -184.32 0
v -93.75999 -184.64 0
v -94.07999 -184.64 0
v -94.07999 -184.32 0
v -93.75999 -184.32 0
v -91.2 -185.6 0
v -91.52 -185.6 0
v -91.52 -185.28 0
v -91.2 -185.28 0
v -92.48 -185.6 0
v -92.8 -185.6 0
v -92.8 -185.28 0
v -92.48 -185.28 0
v -94.07999 -185.6 0
v -94.4 -185.6 0
v -94.4 -185.28 0
v -94.07999 -185.28 0
v -91.2 -185.92 0
v -91.52 -185.92 0
v -91.52 -185.6 0
v -91.2 -185.6 0
v -94.07999 -185.92 0
v -94.4 -185.92 0
v -94.4 -185.6 0
v -94.07999 -185.6 0
v -91.2 -186.24 0
v -91.52 -186.24 0
v -91.52 -185.92 0
v -91.2 -185.92 0
v -94.07999 -186.24 0
v -94.4 -186.24 0
v -94.4 -185.92 0
v -94.07999 -185.92 0
v -94.4 -186.24 0
v -94.72 -186.24 0
v -94.72 -185.92 0
v -94.4 -185.92 0
v -90.56 -186.88 0
v -90.88 -186.88 0
v -90.88 -186.56 0
v -90.56 -186.56 0
v -90.24 -187.84 0
v -90.56 -187.84 0
v -90.56 -187.52 0
v -90.24 -187.52 0
v -91.52 -189.12 0
v -91.84 -189.12 0
v -91.84 -188.8 0
v -91.52 -188.8 0
v -91.84 -189.12 0
v -92.16 -189.12 0
v -92.16 -188.8 0
v -91.84 -188.8 0
v -93.75999 -189.44 0
v -94.07999 -189.44 0
v -94.07999 -189.12 0
v -93.75999 -189.12 0
v -91.84 -190.08 0
v -92.16 -190.08 0
v -92.16 -189.76 0
v -91.84 -189.76 0
v -91.52 -190.72 0
v -91.84 -190.72 0
v -91.84 -190.4 0
v -91.52 -190.4 0
v -93.12 -190.72 0
v -93.43999 -190.72 0
v -93.43999 -190.4 0
v -93.12 -190.4 0
v -93.12 -191.36 0
v -93.43999 -191.36 0
v -93.43999 -191.04 0
v -93.12 -191.04 0
v -94.07999 -192.32 0
v -94.4 -192.32 0
v -94.4 -192 0
v -94.07999 -192 0

# Texture cooridinates (Count = 33)
vt 0.3125 0.8125
vt 0.375 0.8125
vt 0.375 0.875
vt 0.3125 0.875
vt 0.4375 0.75
vt 0.5 0.75
vt 0.5 0.8125
vt 0.4375 0.8125
vt 0.4375 0.875
vt 0.375 0.6875
vt 0.4375 0.6875
vt 0.375 0.75
vt 0.375 0.625
vt 0.4375 0.625
vt 0.625 0.9375
vt 0.6875 0.9375
vt 0.6875 1
vt 0.625 1
vt 0.75 0.9375
vt 0.75 1
vt 0.5 0.875
vt 0.5625 0.9375
vt 0.5625 1
vt 0.5 0.9375
vt 0.5 1
vt 0.375 0.4375
vt 0.4375 0.4375
vt 0.4375 0.5
vt 0.375 0.5
vt 0.375 0.375
vt 0.4375 0.375
vt 0.375 0.3125
vt 0.4375 0.3125

# Normal
vn 0 0 -1

# Mesh description
g untitled_mesh_0086

# Faces
f 1/1/1 2/2/1 3/3/1 4/4/1
f 5/5/1 6/6/1 7/7/1 8/8/1
f 9/2/1 10/8/1 11/9/1 12/3/1
f 13/1/1 14/2/1 15/3/1 16/4/1
f 17/10/1 18/11/1 19/5/1 20/12/1
f 21/10/1 22/11/1 23/5/1 24/12/1
f 25/2/1 26/8/1 27/9/1 28/3/1
f 29/12/1 30/5/1 31/8/1 32/2/1
f 33/13/1 34/14/1 35/11/1 36/10/1
f 37/13/1 38/14/1 39/11/1 40/10/1
f 41/2/1 42/8/1 43/9/1 44/3/1
f 45/5/1 46/6/1 47/7/1 48/8/1
f 49/15/1 50/16/1 51/17/1 52/18/1
f 53/1/1 54/2/1 55/3/1 56/4/1
f 57/15/1 58/16/1 59/17/1 60/18/1
f 61/16/1 62/19/1 63/20/1 64/17/1
f 65/5/1 66/6/1 67/7/1 68/8/1
f 69/16/1 70/19/1 71/20/1 72/17/1
f 73/8/1 74/7/1 75/21/1 76/9/1
f 77/1/1 78/2/1 79/3/1 80/4/1
f 81/8/1 82/7/1 83/21/1 84/9/1
f 85/22/1 86/15/1 87/18/1 88/23/1
f 89/15/1 90/16/1 91/17/1 92/18/1
f 93/16/1 94/19/1 95/20/1 96/17/1
f 97/5/1 98/6/1 99/7/1 100/8/1
f 101/24/1 102/22/1 103/23/1 104/25/1
f 105/15/1 106/16/1 107/17/1 108/18/1
f 109/2/1 110/8/1 111/9/1 112/3/1
f 113/22/1 114/15/1 115/18/1 116/23/1
f 117/16/1 118/19/1 119/20/1 120/17/1
f 121/2/1 122/8/1 123/9/1 124/3/1
f 125/8/1 126/7/1 127/21/1 128/9/1
f 129/16/1 130/19/1 131/20/1 132/17/1
f 133/15/1 134/16/1 135/17/1 136/18/1
f 137/22/1 138/15/1 139/18/1 140/23/1
f 141/22/1 142/15/1 143/18/1 144/23/1
f 145/12/1 146/5/1 147/8/1 148/2/1
f 149/5/1 150/6/1 151/7/1 152/8/1
f 153/16/1 154/19/1 155/20/1 156/17/1
f 157/24/1 158/22/1 159/23/1 160/25/1
f 161/2/1 162/8/1 163/9/1 164/3/1
f 165/12/1 166/5/1 167/8/1 168/2/1
f 169/24/1 170/22/1 171/23/1 172/25/1
f 173/15/1 174/16/1 175/17/1 176/18/1
f 177/5/1 178/6/1 179/7/1 180/8/1
f 181/24/1 182/22/1 183/23/1 184/25/1
f 185/15/1 186/16/1 187/17/1 188/18/1
f 189/24/1 190/22/1 191/23/1 192/25/1
f 193/8/1 194/7/1 195/21/1 196/9/1
f 197/2/1 198/8/1 199/9/1 200/3/1
f 201/15/1 202/16/1 203/17/1 204/18/1
f 205/5/1 206/6/1 207/7/1 208/8/1
f 209/26/1 210/27/1 211/28/1 212/29/1
f 213/26/1 214/27/1 215/28/1 216/29/1
f 217/2/1 218/8/1 219/9/1 220/3/1
f 221/30/1 222/31/1 223/27/1 224/26/1
f 225/30/1 226/31/1 227/27/1 228/26/1
f 229/32/1 230/33/1 231/31/1 232/30/1
f 233/32/1 234/33/1 235/31/1 236/30/1
f 237/26/1 238/27/1 239/28/1 240/29/1
f 241/5/1 242/6/1 243/7/1 244/8/1
f 245/26/1 246/27/1 247/28/1 248/29/1
f 249/30/1 250/31/1 251/27/1 252/26/1
f 253/30/1 254/31/1 255/27/1 256/26/1
f 257/32/1 258/33/1 259/31/1 260/30/1
f 261/32/1 262/33/1 263/31/1 264/30/1
f 265/5/1 266/6/1 267/7/1 268/8/1
f 269/15/1 270/16/1 271/17/1 272/18/1
f 273/26/1 274/27/1 275/28/1 276/29/1
f 277/5/1 278/6/1 279/7/1 280/8/1
f 281/26/1 282/27/1 283/28/1 284/29/1
f 285/30/1 286/31/1 287/27/1 288/26/1
f 289/8/1 290/7/1 291/21/1 292/9/1
f 293/30/1 294/31/1 295/27/1 296/26/1
f 297/32/1 298/33/1 299/31/1 300/30/1
f 301/32/1 302/33/1 303/31/1 304/30/1
f 305/26/1 306/27/1 307/28/1 308/29/1
f 309/1/1 310/2/1 311/3/1 312/4/1
f 313/26/1 314/27/1 315/28/1 316/29/1
f 317/30/1 318/31/1 319/27/1 320/26/1
f 321/30/1 322/31/1 323/27/1 324/26/1
f 325/32/1 326/33/1 327/31/1 328/30/1
f 329/32/1 330/33/1 331/31/1 332/30/1
f 333/12/1 334/5/1 335/8/1 336/2/1
f 337/16/1 338/19/1 339/20/1 340/17/1
f 341/12/1 342/5/1 343/8/1 344/2/1
f 345/22/1 346/15/1 347/18/1 348/23/1
f 349/16/1 350/19/1 351/20/1 352/17/1
f 353/24/1 354/22/1 355/23/1 356/25/1
f 357/1/1 358/2/1 359/3/1 360/4/1
f 361/22/1 362/15/1 363/18/1 364/23/1
f 365/15/1 366/16/1 367/17/1 368/18/1
f 369/24/1 370/22/1 371/23/1 372/25/1
f 373/15/1 374/16/1 375/17/1 376/18/1

