# Tiled2Unity generated file. Do not modify by hand.
# Wavefront file for 'untitled_mesh_0073.obj'

# Vertices (Count = 144)
v -123.2 -167.36 0
v -123.52 -167.36 0
v -123.52 -167.04 0
v -123.2 -167.04 0
v -123.52 -167.36 0
v -123.84 -167.36 0
v -123.84 -167.04 0
v -123.52 -167.04 0
v -123.84 -167.36 0
v -124.16 -167.36 0
v -124.16 -167.04 0
v -123.84 -167.04 0
v -124.16 -167.36 0
v -124.48 -167.36 0
v -124.48 -167.04 0
v -124.16 -167.04 0
v -123.2 -167.68 0
v -123.52 -167.68 0
v -123.52 -167.36 0
v -123.2 -167.36 0
v -123.52 -167.68 0
v -123.84 -167.68 0
v -123.84 -167.36 0
v -123.52 -167.36 0
v -123.84 -167.68 0
v -124.16 -167.68 0
v -124.16 -167.36 0
v -123.84 -167.36 0
v -124.16 -167.68 0
v -124.48 -167.68 0
v -124.48 -167.36 0
v -124.16 -167.36 0
v -123.2 -168 0
v -123.52 -168 0
v -123.52 -167.68 0
v -123.2 -167.68 0
v -123.52 -168 0
v -123.84 -168 0
v -123.84 -167.68 0
v -123.52 -167.68 0
v -123.84 -168 0
v -124.16 -168 0
v -124.16 -167.68 0
v -123.84 -167.68 0
v -124.16 -168 0
v -124.48 -168 0
v -124.48 -167.68 0
v -124.16 -167.68 0
v -27.84 -173.12 0
v -28.16 -173.12 0
v -28.16 -172.8 0
v -27.84 -172.8 0
v -28.16 -173.12 0
v -28.48 -173.12 0
v -28.48 -172.8 0
v -28.16 -172.8 0
v -28.48 -173.12 0
v -28.8 -173.12 0
v -28.8 -172.8 0
v -28.48 -172.8 0
v -28.8 -173.12 0
v -29.12 -173.12 0
v -29.12 -172.8 0
v -28.8 -172.8 0
v -27.84 -173.44 0
v -28.16 -173.44 0
v -28.16 -173.12 0
v -27.84 -173.12 0
v -28.16 -173.44 0
v -28.48 -173.44 0
v -28.48 -173.12 0
v -28.16 -173.12 0
v -28.48 -173.44 0
v -28.8 -173.44 0
v -28.8 -173.12 0
v -28.48 -173.12 0
v -28.8 -173.44 0
v -29.12 -173.44 0
v -29.12 -173.12 0
v -28.8 -173.12 0
v -27.84 -173.76 0
v -28.16 -173.76 0
v -28.16 -173.44 0
v -27.84 -173.44 0
v -28.16 -173.76 0
v -28.48 -173.76 0
v -28.48 -173.44 0
v -28.16 -173.44 0
v -28.48 -173.76 0
v -28.8 -173.76 0
v -28.8 -173.44 0
v -28.48 -173.44 0
v -28.8 -173.76 0
v -29.12 -173.76 0
v -29.12 -173.44 0
v -28.8 -173.44 0
v -43.2 -176.64 0
v -43.52 -176.64 0
v -43.52 -176.32 0
v -43.2 -176.32 0
v -43.52 -176.64 0
v -43.84 -176.64 0
v -43.84 -176.32 0
v -43.52 -176.32 0
v -43.84 -176.64 0
v -44.16 -176.64 0
v -44.16 -176.32 0
v -43.84 -176.32 0
v -44.16 -176.64 0
v -44.48 -176.64 0
v -44.48 -176.32 0
v -44.16 -176.32 0
v -43.2 -176.96 0
v -43.52 -176.96 0
v -43.52 -176.64 0
v -43.2 -176.64 0
v -43.52 -176.96 0
v -43.84 -176.96 0
v -43.84 -176.64 0
v -43.52 -176.64 0
v -43.84 -176.96 0
v -44.16 -176.96 0
v -44.16 -176.64 0
v -43.84 -176.64 0
v -44.16 -176.96 0
v -44.48 -176.96 0
v -44.48 -176.64 0
v -44.16 -176.64 0
v -43.2 -177.28 0
v -43.52 -177.28 0
v -43.52 -176.96 0
v -43.2 -176.96 0
v -43.52 -177.28 0
v -43.84 -177.28 0
v -43.84 -176.96 0
v -43.52 -176.96 0
v -43.84 -177.28 0
v -44.16 -177.28 0
v -44.16 -176.96 0
v -43.84 -176.96 0
v -44.16 -177.28 0
v -44.48 -177.28 0
v -44.48 -176.96 0
v -44.16 -176.96 0

# Texture cooridinates (Count = 35)
vt 0.6666667 0.6666666
vt 0.75 0.6666666
vt 0.75 0.75
vt 0.6666667 0.75
vt 0.8333333 0.6666666
vt 0.8333333 0.75
vt 0.9166667 0.6666666
vt 0.9166667 0.75
vt 1 0.6666666
vt 1 0.75
vt 0.6666667 0.5833334
vt 0.75 0.5833334
vt 0.8333333 0.5833334
vt 0.9166667 0.5833334
vt 1 0.5833334
vt 0.6666667 0.5
vt 0.75 0.5
vt 0.8333333 0.5
vt 0.9166667 0.5
vt 1 0.5
vt 0.6666667 0.9166667
vt 0.75 0.9166667
vt 0.75 1
vt 0.6666667 1
vt 0.8333333 0.9166667
vt 0.8333333 1
vt 0.9166667 0.9166667
vt 0.9166667 1
vt 1 0.9166667
vt 1 1
vt 0.6666667 0.8333333
vt 0.75 0.8333333
vt 0.8333333 0.8333333
vt 0.9166667 0.8333333
vt 1 0.8333333

# Normal
vn 0 0 -1

# Mesh description
g untitled_mesh_0073

# Faces
f 1/1/1 2/2/1 3/3/1 4/4/1
f 5/2/1 6/5/1 7/6/1 8/3/1
f 9/5/1 10/7/1 11/8/1 12/6/1
f 13/7/1 14/9/1 15/10/1 16/8/1
f 17/11/1 18/12/1 19/2/1 20/1/1
f 21/12/1 22/13/1 23/5/1 24/2/1
f 25/13/1 26/14/1 27/7/1 28/5/1
f 29/14/1 30/15/1 31/9/1 32/7/1
f 33/16/1 34/17/1 35/12/1 36/11/1
f 37/17/1 38/18/1 39/13/1 40/12/1
f 41/18/1 42/19/1 43/14/1 44/13/1
f 45/19/1 46/20/1 47/15/1 48/14/1
f 49/21/1 50/22/1 51/23/1 52/24/1
f 53/22/1 54/25/1 55/26/1 56/23/1
f 57/25/1 58/27/1 59/28/1 60/26/1
f 61/27/1 62/29/1 63/30/1 64/28/1
f 65/31/1 66/32/1 67/22/1 68/21/1
f 69/32/1 70/33/1 71/25/1 72/22/1
f 73/33/1 74/34/1 75/27/1 76/25/1
f 77/34/1 78/35/1 79/29/1 80/27/1
f 81/4/1 82/3/1 83/32/1 84/31/1
f 85/3/1 86/6/1 87/33/1 88/32/1
f 89/6/1 90/8/1 91/34/1 92/33/1
f 93/8/1 94/10/1 95/35/1 96/34/1
f 97/21/1 98/22/1 99/23/1 100/24/1
f 101/22/1 102/25/1 103/26/1 104/23/1
f 105/25/1 106/27/1 107/28/1 108/26/1
f 109/27/1 110/29/1 111/30/1 112/28/1
f 113/31/1 114/32/1 115/22/1 116/21/1
f 117/32/1 118/33/1 119/25/1 120/22/1
f 121/33/1 122/34/1 123/27/1 124/25/1
f 125/34/1 126/35/1 127/29/1 128/27/1
f 129/4/1 130/3/1 131/32/1 132/31/1
f 133/3/1 134/6/1 135/33/1 136/32/1
f 137/6/1 138/8/1 139/34/1 140/33/1
f 141/8/1 142/10/1 143/35/1 144/34/1

