# Tiled2Unity generated file. Do not modify by hand.
# Wavefront file for 'untitled_mesh_0046.obj'

# Vertices (Count = 220)
v -19.2 -10.88 0
v -19.52 -10.88 0
v -19.52 -10.56 0
v -19.2 -10.56 0
v -61.12 -14.72 0
v -61.44 -14.72 0
v -61.44 -14.4 0
v -61.12 -14.4 0
v -14.08 -25.6 0
v -14.4 -25.6 0
v -14.4 -25.28 0
v -14.08 -25.28 0
v -128.64 -25.6 0
v -128.96 -25.6 0
v -128.96 -25.28 0
v -128.64 -25.28 0
v -88.96 -27.84 0
v -89.28 -27.84 0
v -89.28 -27.52 0
v -88.96 -27.52 0
v -119.04 -31.36 0
v -119.36 -31.36 0
v -119.36 -31.04 0
v -119.04 -31.04 0
v -145.28 -31.68 0
v -145.6 -31.68 0
v -145.6 -31.36 0
v -145.28 -31.36 0
v -145.6 -31.68 0
v -145.92 -31.68 0
v -145.92 -31.36 0
v -145.6 -31.36 0
v -145.92 -31.68 0
v -146.24 -31.68 0
v -146.24 -31.36 0
v -145.92 -31.36 0
v -145.28 -32 0
v -145.6 -32 0
v -145.6 -31.68 0
v -145.28 -31.68 0
v -145.6 -32 0
v -145.92 -32 0
v -145.92 -31.68 0
v -145.6 -31.68 0
v -145.92 -32 0
v -146.24 -32 0
v -146.24 -31.68 0
v -145.92 -31.68 0
v -145.28 -32.32 0
v -145.6 -32.32 0
v -145.6 -32 0
v -145.28 -32 0
v -145.6 -32.32 0
v -145.92 -32.32 0
v -145.92 -32 0
v -145.6 -32 0
v -145.92 -32.32 0
v -146.24 -32.32 0
v -146.24 -32 0
v -145.92 -32 0
v -24.96 -38.08 0
v -25.28 -38.08 0
v -25.28 -37.76 0
v -24.96 -37.76 0
v -38.72 -47.68 0
v -39.04 -47.68 0
v -39.04 -47.36 0
v -38.72 -47.36 0
v -76.16 -51.2 0
v -76.48 -51.2 0
v -76.48 -50.88 0
v -76.16 -50.88 0
v -76.48 -51.2 0
v -76.8 -51.2 0
v -76.8 -50.88 0
v -76.48 -50.88 0
v -76.8 -51.2 0
v -77.12 -51.2 0
v -77.12 -50.88 0
v -76.8 -50.88 0
v -76.16 -51.52 0
v -76.48 -51.52 0
v -76.48 -51.2 0
v -76.16 -51.2 0
v -76.48 -51.52 0
v -76.8 -51.52 0
v -76.8 -51.2 0
v -76.48 -51.2 0
v -76.8 -51.52 0
v -77.12 -51.52 0
v -77.12 -51.2 0
v -76.8 -51.2 0
v -76.16 -51.84 0
v -76.48 -51.84 0
v -76.48 -51.52 0
v -76.16 -51.52 0
v -76.48 -51.84 0
v -76.8 -51.84 0
v -76.8 -51.52 0
v -76.48 -51.52 0
v -76.8 -51.84 0
v -77.12 -51.84 0
v -77.12 -51.52 0
v -76.8 -51.52 0
v -103.68 -56 0
v -104 -56 0
v -104 -55.68 0
v -103.68 -55.68 0
v -59.2 -58.24 0
v -59.52 -58.24 0
v -59.52 -57.92 0
v -59.2 -57.92 0
v -75.2 -60.16 0
v -75.52 -60.16 0
v -75.52 -59.84 0
v -75.2 -59.84 0
v -87.68 -60.48 0
v -88 -60.48 0
v -88 -60.16 0
v -87.68 -60.16 0
v -121.6 -86.4 0
v -121.92 -86.4 0
v -121.92 -86.08 0
v -121.6 -86.08 0
v -75.84 -87.04 0
v -76.16 -87.04 0
v -76.16 -86.72 0
v -75.84 -86.72 0
v -58.24 -87.36 0
v -58.56 -87.36 0
v -58.56 -87.04 0
v -58.24 -87.04 0
v -149.44 -89.28 0
v -149.76 -89.28 0
v -149.76 -88.96 0
v -149.44 -88.96 0
v -125.44 -106.56 0
v -125.76 -106.56 0
v -125.76 -106.24 0
v -125.44 -106.24 0
v -103.36 -121.6 0
v -103.68 -121.6 0
v -103.68 -121.28 0
v -103.36 -121.28 0
v -103.68 -121.6 0
v -104 -121.6 0
v -104 -121.28 0
v -103.68 -121.28 0
v -104 -121.6 0
v -104.32 -121.6 0
v -104.32 -121.28 0
v -104 -121.28 0
v -103.36 -121.92 0
v -103.68 -121.92 0
v -103.68 -121.6 0
v -103.36 -121.6 0
v -103.68 -121.92 0
v -104 -121.92 0
v -104 -121.6 0
v -103.68 -121.6 0
v -104 -121.92 0
v -104.32 -121.92 0
v -104.32 -121.6 0
v -104 -121.6 0
v -103.36 -122.24 0
v -103.68 -122.24 0
v -103.68 -121.92 0
v -103.36 -121.92 0
v -103.68 -122.24 0
v -104 -122.24 0
v -104 -121.92 0
v -103.68 -121.92 0
v -104 -122.24 0
v -104.32 -122.24 0
v -104.32 -121.92 0
v -104 -121.92 0
v -166.08 -125.76 0
v -166.4 -125.76 0
v -166.4 -125.44 0
v -166.08 -125.44 0
v -166.4 -125.76 0
v -166.72 -125.76 0
v -166.72 -125.44 0
v -166.4 -125.44 0
v -166.72 -125.76 0
v -167.04 -125.76 0
v -167.04 -125.44 0
v -166.72 -125.44 0
v -166.08 -126.08 0
v -166.4 -126.08 0
v -166.4 -125.76 0
v -166.08 -125.76 0
v -166.4 -126.08 0
v -166.72 -126.08 0
v -166.72 -125.76 0
v -166.4 -125.76 0
v -166.72 -126.08 0
v -167.04 -126.08 0
v -167.04 -125.76 0
v -166.72 -125.76 0
v -166.08 -126.4 0
v -166.4 -126.4 0
v -166.4 -126.08 0
v -166.08 -126.08 0
v -166.4 -126.4 0
v -166.72 -126.4 0
v -166.72 -126.08 0
v -166.4 -126.08 0
v -166.72 -126.4 0
v -167.04 -126.4 0
v -167.04 -126.08 0
v -166.72 -126.08 0
v -21.44 -171.84 0
v -21.76 -171.84 0
v -21.76 -171.52 0
v -21.44 -171.52 0
v -36.8 -182.72 0
v -37.12 -182.72 0
v -37.12 -182.4 0
v -36.8 -182.4 0

# Texture cooridinates (Count = 24)
vt 0.625 0.1875
vt 0.6875 0.1875
vt 0.6875 0.25
vt 0.625 0.25
vt 0.625 0.5
vt 0.6875 0.5
vt 0.6875 0.5625
vt 0.625 0.5625
vt 0.75 0.5
vt 0.75 0.5625
vt 0.8125 0.5
vt 0.8125 0.5625
vt 0.625 0.4375
vt 0.6875 0.4375
vt 0.75 0.4375
vt 0.8125 0.4375
vt 0.625 0.375
vt 0.6875 0.375
vt 0.75 0.375
vt 0.8125 0.375
vt 0.1875 0.5625
vt 0.25 0.5625
vt 0.25 0.625
vt 0.1875 0.625

# Normal
vn 0 0 -1

# Mesh description
g untitled_mesh_0046

# Faces
f 1/1/1 2/2/1 3/3/1 4/4/1
f 5/1/1 6/2/1 7/3/1 8/4/1
f 9/1/1 10/2/1 11/3/1 12/4/1
f 13/1/1 14/2/1 15/3/1 16/4/1
f 17/1/1 18/2/1 19/3/1 20/4/1
f 21/1/1 22/2/1 23/3/1 24/4/1
f 25/5/1 26/6/1 27/7/1 28/8/1
f 29/6/1 30/9/1 31/10/1 32/7/1
f 33/9/1 34/11/1 35/12/1 36/10/1
f 37/13/1 38/14/1 39/6/1 40/5/1
f 41/14/1 42/15/1 43/9/1 44/6/1
f 45/15/1 46/16/1 47/11/1 48/9/1
f 49/17/1 50/18/1 51/14/1 52/13/1
f 53/18/1 54/19/1 55/15/1 56/14/1
f 57/19/1 58/20/1 59/16/1 60/15/1
f 61/1/1 62/2/1 63/3/1 64/4/1
f 65/1/1 66/2/1 67/3/1 68/4/1
f 69/5/1 70/6/1 71/7/1 72/8/1
f 73/6/1 74/9/1 75/10/1 76/7/1
f 77/9/1 78/11/1 79/12/1 80/10/1
f 81/13/1 82/14/1 83/6/1 84/5/1
f 85/14/1 86/15/1 87/9/1 88/6/1
f 89/15/1 90/16/1 91/11/1 92/9/1
f 93/17/1 94/18/1 95/14/1 96/13/1
f 97/18/1 98/19/1 99/15/1 100/14/1
f 101/19/1 102/20/1 103/16/1 104/15/1
f 105/1/1 106/2/1 107/3/1 108/4/1
f 109/1/1 110/2/1 111/3/1 112/4/1
f 113/1/1 114/2/1 115/3/1 116/4/1
f 117/1/1 118/2/1 119/3/1 120/4/1
f 121/1/1 122/2/1 123/3/1 124/4/1
f 125/1/1 126/2/1 127/3/1 128/4/1
f 129/1/1 130/2/1 131/3/1 132/4/1
f 133/1/1 134/2/1 135/3/1 136/4/1
f 137/1/1 138/2/1 139/3/1 140/4/1
f 141/5/1 142/6/1 143/7/1 144/8/1
f 145/6/1 146/9/1 147/10/1 148/7/1
f 149/9/1 150/11/1 151/12/1 152/10/1
f 153/13/1 154/14/1 155/6/1 156/5/1
f 157/14/1 158/15/1 159/9/1 160/6/1
f 161/15/1 162/16/1 163/11/1 164/9/1
f 165/17/1 166/18/1 167/14/1 168/13/1
f 169/18/1 170/19/1 171/15/1 172/14/1
f 173/19/1 174/20/1 175/16/1 176/15/1
f 177/5/1 178/6/1 179/7/1 180/8/1
f 181/6/1 182/9/1 183/10/1 184/7/1
f 185/9/1 186/11/1 187/12/1 188/10/1
f 189/13/1 190/14/1 191/6/1 192/5/1
f 193/14/1 194/15/1 195/9/1 196/6/1
f 197/15/1 198/16/1 199/11/1 200/9/1
f 201/17/1 202/18/1 203/14/1 204/13/1
f 205/18/1 206/19/1 207/15/1 208/14/1
f 209/19/1 210/20/1 211/16/1 212/15/1
f 213/21/1 214/22/1 215/23/1 216/24/1
f 217/21/1 218/22/1 219/23/1 220/24/1

