# Tiled2Unity generated file. Do not modify by hand.
# Wavefront file for 'untitled_mesh_0080.obj'

# Vertices (Count = 248)
v -96.96 -113.6 0
v -97.28 -113.6 0
v -97.28 -113.28 0
v -96.96 -113.28 0
v -97.28 -113.6 0
v -97.6 -113.6 0
v -97.6 -113.28 0
v -97.28 -113.28 0
v -96.96 -113.92 0
v -97.28 -113.92 0
v -97.28 -113.6 0
v -96.96 -113.6 0
v -97.28 -113.92 0
v -97.6 -113.92 0
v -97.6 -113.6 0
v -97.28 -113.6 0
v -96.64 -114.24 0
v -96.96 -114.24 0
v -96.96 -113.92 0
v -96.64 -113.92 0
v -96.96 -114.24 0
v -97.28 -114.24 0
v -97.28 -113.92 0
v -96.96 -113.92 0
v -97.28 -114.24 0
v -97.6 -114.24 0
v -97.6 -113.92 0
v -97.28 -113.92 0
v -97.6 -114.24 0
v -97.92 -114.24 0
v -97.92 -113.92 0
v -97.6 -113.92 0
v -96.64 -114.56 0
v -96.96 -114.56 0
v -96.96 -114.24 0
v -96.64 -114.24 0
v -96.96 -114.56 0
v -97.28 -114.56 0
v -97.28 -114.24 0
v -96.96 -114.24 0
v -97.28 -114.56 0
v -97.6 -114.56 0
v -97.6 -114.24 0
v -97.28 -114.24 0
v -97.6 -114.56 0
v -97.92 -114.56 0
v -97.92 -114.24 0
v -97.6 -114.24 0
v -96.64 -114.88 0
v -96.96 -114.88 0
v -96.96 -114.56 0
v -96.64 -114.56 0
v -96.96 -114.88 0
v -97.28 -114.88 0
v -97.28 -114.56 0
v -96.96 -114.56 0
v -97.28 -114.88 0
v -97.6 -114.88 0
v -97.6 -114.56 0
v -97.28 -114.56 0
v -97.6 -114.88 0
v -97.92 -114.88 0
v -97.92 -114.56 0
v -97.6 -114.56 0
v -96.64 -115.2 0
v -96.96 -115.2 0
v -96.96 -114.88 0
v -96.64 -114.88 0
v -96.96 -115.2 0
v -97.28 -115.2 0
v -97.28 -114.88 0
v -96.96 -114.88 0
v -97.28 -115.2 0
v -97.6 -115.2 0
v -97.6 -114.88 0
v -97.28 -114.88 0
v -97.6 -115.2 0
v -97.92 -115.2 0
v -97.92 -114.88 0
v -97.6 -114.88 0
v -96.64 -115.52 0
v -96.96 -115.52 0
v -96.96 -115.2 0
v -96.64 -115.2 0
v -96.96 -115.52 0
v -97.28 -115.52 0
v -97.28 -115.2 0
v -96.96 -115.2 0
v -97.28 -115.52 0
v -97.6 -115.52 0
v -97.6 -115.2 0
v -97.28 -115.2 0
v -97.6 -115.52 0
v -97.92 -115.52 0
v -97.92 -115.2 0
v -97.6 -115.2 0
v -97.92 -115.52 0
v -98.24 -115.52 0
v -98.24 -115.2 0
v -97.92 -115.2 0
v -96.64 -115.84 0
v -96.96 -115.84 0
v -96.96 -115.52 0
v -96.64 -115.52 0
v -96.96 -115.84 0
v -97.28 -115.84 0
v -97.28 -115.52 0
v -96.96 -115.52 0
v -97.28 -115.84 0
v -97.6 -115.84 0
v -97.6 -115.52 0
v -97.28 -115.52 0
v -97.6 -115.84 0
v -97.92 -115.84 0
v -97.92 -115.52 0
v -97.6 -115.52 0
v -97.92 -115.84 0
v -98.24 -115.84 0
v -98.24 -115.52 0
v -97.92 -115.52 0
v -96.64 -116.16 0
v -96.96 -116.16 0
v -96.96 -115.84 0
v -96.64 -115.84 0
v -96.96 -116.16 0
v -97.28 -116.16 0
v -97.28 -115.84 0
v -96.96 -115.84 0
v -97.28 -116.16 0
v -97.6 -116.16 0
v -97.6 -115.84 0
v -97.28 -115.84 0
v -97.6 -116.16 0
v -97.92 -116.16 0
v -97.92 -115.84 0
v -97.6 -115.84 0
v -97.92 -116.16 0
v -98.24 -116.16 0
v -98.24 -115.84 0
v -97.92 -115.84 0
v -98.24 -116.16 0
v -98.56 -116.16 0
v -98.56 -115.84 0
v -98.24 -115.84 0
v -96.64 -116.48 0
v -96.96 -116.48 0
v -96.96 -116.16 0
v -96.64 -116.16 0
v -96.96 -116.48 0
v -97.28 -116.48 0
v -97.28 -116.16 0
v -96.96 -116.16 0
v -97.28 -116.48 0
v -97.6 -116.48 0
v -97.6 -116.16 0
v -97.28 -116.16 0
v -97.6 -116.48 0
v -97.92 -116.48 0
v -97.92 -116.16 0
v -97.6 -116.16 0
v -97.92 -116.48 0
v -98.24 -116.48 0
v -98.24 -116.16 0
v -97.92 -116.16 0
v -98.24 -116.48 0
v -98.56 -116.48 0
v -98.56 -116.16 0
v -98.24 -116.16 0
v -96.96 -116.8 0
v -97.28 -116.8 0
v -97.28 -116.48 0
v -96.96 -116.48 0
v -97.28 -116.8 0
v -97.6 -116.8 0
v -97.6 -116.48 0
v -97.28 -116.48 0
v -97.6 -116.8 0
v -97.92 -116.8 0
v -97.92 -116.48 0
v -97.6 -116.48 0
v -97.92 -116.8 0
v -98.24 -116.8 0
v -98.24 -116.48 0
v -97.92 -116.48 0
v -95.68 -121.28 0
v -96 -121.28 0
v -96 -120.96 0
v -95.68 -120.96 0
v -96 -121.28 0
v -96.32 -121.28 0
v -96.32 -120.96 0
v -96 -120.96 0
v -96.32 -121.28 0
v -96.64 -121.28 0
v -96.64 -120.96 0
v -96.32 -120.96 0
v -96.64 -121.28 0
v -96.96 -121.28 0
v -96.96 -120.96 0
v -96.64 -120.96 0
v -95.68 -121.6 0
v -96 -121.6 0
v -96 -121.28 0
v -95.68 -121.28 0
v -96 -121.6 0
v -96.32 -121.6 0
v -96.32 -121.28 0
v -96 -121.28 0
v -96.32 -121.6 0
v -96.64 -121.6 0
v -96.64 -121.28 0
v -96.32 -121.28 0
v -96.64 -121.6 0
v -96.96 -121.6 0
v -96.96 -121.28 0
v -96.64 -121.28 0
v -95.68 -121.92 0
v -96 -121.92 0
v -96 -121.6 0
v -95.68 -121.6 0
v -96 -121.92 0
v -96.32 -121.92 0
v -96.32 -121.6 0
v -96 -121.6 0
v -96.32 -121.92 0
v -96.64 -121.92 0
v -96.64 -121.6 0
v -96.32 -121.6 0
v -96.64 -121.92 0
v -96.96 -121.92 0
v -96.96 -121.6 0
v -96.64 -121.6 0
v -95.68 -122.24 0
v -96 -122.24 0
v -96 -121.92 0
v -95.68 -121.92 0
v -96 -122.24 0
v -96.32 -122.24 0
v -96.32 -121.92 0
v -96 -121.92 0
v -96.32 -122.24 0
v -96.64 -122.24 0
v -96.64 -121.92 0
v -96.32 -121.92 0
v -96.64 -122.24 0
v -96.96 -122.24 0
v -96.96 -121.92 0
v -96.64 -121.92 0

# Texture cooridinates (Count = 89)
vt 0.6875 0.9375
vt 0.75 0.9375
vt 0.75 1
vt 0.6875 1
vt 0.8125 0.9375
vt 0.8125 1
vt 0.6875 0.875
vt 0.75 0.875
vt 0.8125 0.875
vt 0.625 0.8125
vt 0.6875 0.8125
vt 0.625 0.875
vt 0.75 0.8125
vt 0.8125 0.8125
vt 0.875 0.8125
vt 0.875 0.875
vt 0.625 0.75
vt 0.6875 0.75
vt 0.75 0.75
vt 0.8125 0.75
vt 0.875 0.75
vt 0.625 0.6875
vt 0.6875 0.6875
vt 0.75 0.6875
vt 0.8125 0.6875
vt 0.875 0.6875
vt 0.625 0.625
vt 0.6875 0.625
vt 0.75 0.625
vt 0.8125 0.625
vt 0.875 0.625
vt 0.625 0.5625
vt 0.6875 0.5625
vt 0.75 0.5625
vt 0.8125 0.5625
vt 0.875 0.5625
vt 0.9375 0.5625
vt 0.9375 0.625
vt 0.625 0.5
vt 0.6875 0.5
vt 0.75 0.5
vt 0.8125 0.5
vt 0.875 0.5
vt 0.9375 0.5
vt 0.625 0.4375
vt 0.6875 0.4375
vt 0.75 0.4375
vt 0.8125 0.4375
vt 0.875 0.4375
vt 0.9375 0.4375
vt 1 0.4375
vt 1 0.5
vt 0.625 0.375
vt 0.6875 0.375
vt 0.75 0.375
vt 0.8125 0.375
vt 0.875 0.375
vt 0.9375 0.375
vt 1 0.375
vt 0.6875 0.3125
vt 0.75 0.3125
vt 0.8125 0.3125
vt 0.875 0.3125
vt 0.9375 0.3125
vt 0.1875 0.1875
vt 0.25 0.1875
vt 0.25 0.25
vt 0.1875 0.25
vt 0.3125 0.1875
vt 0.3125 0.25
vt 0.375 0.1875
vt 0.375 0.25
vt 0.4375 0.1875
vt 0.4375 0.25
vt 0.1875 0.125
vt 0.25 0.125
vt 0.3125 0.125
vt 0.375 0.125
vt 0.4375 0.125
vt 0.1875 0.0625
vt 0.25 0.0625
vt 0.3125 0.0625
vt 0.375 0.0625
vt 0.4375 0.0625
vt 0.1875 0
vt 0.25 0
vt 0.3125 0
vt 0.375 0
vt 0.4375 0

# Normal
vn 0 0 -1

# Mesh description
g untitled_mesh_0080

# Faces
f 1/1/1 2/2/1 3/3/1 4/4/1
f 5/2/1 6/5/1 7/6/1 8/3/1
f 9/7/1 10/8/1 11/2/1 12/1/1
f 13/8/1 14/9/1 15/5/1 16/2/1
f 17/10/1 18/11/1 19/7/1 20/12/1
f 21/11/1 22/13/1 23/8/1 24/7/1
f 25/13/1 26/14/1 27/9/1 28/8/1
f 29/14/1 30/15/1 31/16/1 32/9/1
f 33/17/1 34/18/1 35/11/1 36/10/1
f 37/18/1 38/19/1 39/13/1 40/11/1
f 41/19/1 42/20/1 43/14/1 44/13/1
f 45/20/1 46/21/1 47/15/1 48/14/1
f 49/22/1 50/23/1 51/18/1 52/17/1
f 53/23/1 54/24/1 55/19/1 56/18/1
f 57/24/1 58/25/1 59/20/1 60/19/1
f 61/25/1 62/26/1 63/21/1 64/20/1
f 65/27/1 66/28/1 67/23/1 68/22/1
f 69/28/1 70/29/1 71/24/1 72/23/1
f 73/29/1 74/30/1 75/25/1 76/24/1
f 77/30/1 78/31/1 79/26/1 80/25/1
f 81/32/1 82/33/1 83/28/1 84/27/1
f 85/33/1 86/34/1 87/29/1 88/28/1
f 89/34/1 90/35/1 91/30/1 92/29/1
f 93/35/1 94/36/1 95/31/1 96/30/1
f 97/36/1 98/37/1 99/38/1 100/31/1
f 101/39/1 102/40/1 103/33/1 104/32/1
f 105/40/1 106/41/1 107/34/1 108/33/1
f 109/41/1 110/42/1 111/35/1 112/34/1
f 113/42/1 114/43/1 115/36/1 116/35/1
f 117/43/1 118/44/1 119/37/1 120/36/1
f 121/45/1 122/46/1 123/40/1 124/39/1
f 125/46/1 126/47/1 127/41/1 128/40/1
f 129/47/1 130/48/1 131/42/1 132/41/1
f 133/48/1 134/49/1 135/43/1 136/42/1
f 137/49/1 138/50/1 139/44/1 140/43/1
f 141/50/1 142/51/1 143/52/1 144/44/1
f 145/53/1 146/54/1 147/46/1 148/45/1
f 149/54/1 150/55/1 151/47/1 152/46/1
f 153/55/1 154/56/1 155/48/1 156/47/1
f 157/56/1 158/57/1 159/49/1 160/48/1
f 161/57/1 162/58/1 163/50/1 164/49/1
f 165/58/1 166/59/1 167/51/1 168/50/1
f 169/60/1 170/61/1 171/55/1 172/54/1
f 173/61/1 174/62/1 175/56/1 176/55/1
f 177/62/1 178/63/1 179/57/1 180/56/1
f 181/63/1 182/64/1 183/58/1 184/57/1
f 185/65/1 186/66/1 187/67/1 188/68/1
f 189/66/1 190/69/1 191/70/1 192/67/1
f 193/69/1 194/71/1 195/72/1 196/70/1
f 197/71/1 198/73/1 199/74/1 200/72/1
f 201/75/1 202/76/1 203/66/1 204/65/1
f 205/76/1 206/77/1 207/69/1 208/66/1
f 209/77/1 210/78/1 211/71/1 212/69/1
f 213/78/1 214/79/1 215/73/1 216/71/1
f 217/80/1 218/81/1 219/76/1 220/75/1
f 221/81/1 222/82/1 223/77/1 224/76/1
f 225/82/1 226/83/1 227/78/1 228/77/1
f 229/83/1 230/84/1 231/79/1 232/78/1
f 233/85/1 234/86/1 235/81/1 236/80/1
f 237/86/1 238/87/1 239/82/1 240/81/1
f 241/87/1 242/88/1 243/83/1 244/82/1
f 245/88/1 246/89/1 247/84/1 248/83/1

