# Tiled2Unity generated file. Do not modify by hand.
# Wavefront file for 'untitled_mesh_0103.obj'

# Vertices (Count = 24)
v -71.04 -56.32 0
v -71.36 -56.32 0
v -71.36 -56 0
v -71.04 -56 0
v -72.64 -56.32 0
v -72.96 -56.32 0
v -72.96 -56 0
v -72.64 -56 0
v -72.96 -56.32 0
v -73.28 -56.32 0
v -73.28 -56 0
v -72.96 -56 0
v -71.04 -56.64 0
v -71.36 -56.64 0
v -71.36 -56.32 0
v -71.04 -56.32 0
v -72.64 -56.64 0
v -72.96 -56.64 0
v -72.96 -56.32 0
v -72.64 -56.32 0
v -72.96 -56.64 0
v -73.28 -56.64 0
v -73.28 -56.32 0
v -72.96 -56.32 0

# Texture cooridinates (Count = 15)
vt 0.8125 0.5625
vt 0.875 0.5625
vt 0.875 0.625
vt 0.8125 0.625
vt 0.875 0.25
vt 0.9375 0.25
vt 0.9375 0.3125
vt 0.875 0.3125
vt 1 0.25
vt 1 0.3125
vt 0.8125 0.5
vt 0.875 0.5
vt 0.875 0.1875
vt 0.9375 0.1875
vt 1 0.1875

# Normal
vn 0 0 -1

# Mesh description
g untitled_mesh_0103

# Faces
f 1/1/1 2/2/1 3/3/1 4/4/1
f 5/5/1 6/6/1 7/7/1 8/8/1
f 9/6/1 10/9/1 11/10/1 12/7/1
f 13/11/1 14/12/1 15/2/1 16/1/1
f 17/13/1 18/14/1 19/6/1 20/5/1
f 21/14/1 22/15/1 23/9/1 24/6/1

