# Tiled2Unity generated file. Do not modify by hand.
# Wavefront file for 'untitled_mesh_0051.obj'

# Vertices (Count = 8)
v -168.32 -101.12 0
v -168.64 -101.12 0
v -168.64 -100.8 0
v -168.32 -100.8 0
v -168.64 -101.12 0
v -168.96 -101.12 0
v -168.96 -100.8 0
v -168.64 -100.8 0

# Texture cooridinates (Count = 6)
vt 0.75 0.25
vt 0.8333333 0.25
vt 0.8333333 0.3333333
vt 0.75 0.3333333
vt 0.9166667 0.25
vt 0.9166667 0.3333333

# Normal
vn 0 0 -1

# Mesh description
g untitled_mesh_0051

# Faces
f 1/1/1 2/2/1 3/3/1 4/4/1
f 5/2/1 6/5/1 7/6/1 8/3/1

