# Tiled2Unity generated file. Do not modify by hand.
# Wavefront file for 'untitled_mesh_0096.obj'

# Vertices (Count = 64)
v -96.96 -115.52 0
v -97.28 -115.52 0
v -97.28 -115.2 0
v -96.96 -115.2 0
v -96.96 -115.84 0
v -97.28 -115.84 0
v -97.28 -115.52 0
v -96.96 -115.52 0
v -97.28 -115.84 0
v -97.6 -115.84 0
v -97.6 -115.52 0
v -97.28 -115.52 0
v -97.28 -116.16 0
v -97.6 -116.16 0
v -97.6 -115.84 0
v -97.28 -115.84 0
v -98.88 -117.76 0
v -99.2 -117.76 0
v -99.2 -117.44 0
v -98.88 -117.44 0
v -99.2 -117.76 0
v -99.52 -117.76 0
v -99.52 -117.44 0
v -99.2 -117.44 0
v -98.88 -118.08 0
v -99.2 -118.08 0
v -99.2 -117.76 0
v -98.88 -117.76 0
v -99.2 -118.08 0
v -99.52 -118.08 0
v -99.52 -117.76 0
v -99.2 -117.76 0
v -99.84 -119.68 0
v -100.16 -119.68 0
v -100.16 -119.36 0
v -99.84 -119.36 0
v -100.16 -119.68 0
v -100.48 -119.68 0
v -100.48 -119.36 0
v -100.16 -119.36 0
v -93.75999 -120 0
v -94.07999 -120 0
v -94.07999 -119.68 0
v -93.75999 -119.68 0
v -94.07999 -120 0
v -94.4 -120 0
v -94.4 -119.68 0
v -94.07999 -119.68 0
v -99.84 -120 0
v -100.16 -120 0
v -100.16 -119.68 0
v -99.84 -119.68 0
v -100.16 -120 0
v -100.48 -120 0
v -100.48 -119.68 0
v -100.16 -119.68 0
v -93.75999 -120.32 0
v -94.07999 -120.32 0
v -94.07999 -120 0
v -93.75999 -120 0
v -94.07999 -120.32 0
v -94.4 -120.32 0
v -94.4 -120 0
v -94.07999 -120 0

# Texture cooridinates (Count = 26)
vt 0.5625 0.6875
vt 0.625 0.6875
vt 0.625 0.75
vt 0.5625 0.75
vt 0.5625 0.625
vt 0.625 0.625
vt 0.9375 0.6875
vt 1 0.6875
vt 1 0.75
vt 0.9375 0.75
vt 0.9375 0.625
vt 1 0.625
vt 0.875 0.5625
vt 0.9375 0.5625
vt 0.875 0.625
vt 0.875 0.5
vt 0.9375 0.5
vt 0.875 0.25
vt 0.9375 0.25
vt 0.9375 0.3125
vt 0.875 0.3125
vt 1 0.25
vt 1 0.3125
vt 0.875 0.1875
vt 0.9375 0.1875
vt 1 0.1875

# Normal
vn 0 0 -1

# Mesh description
g untitled_mesh_0096

# Faces
f 1/1/1 2/2/1 3/3/1 4/4/1
f 5/5/1 6/6/1 7/2/1 8/1/1
f 9/7/1 10/8/1 11/9/1 12/10/1
f 13/11/1 14/12/1 15/8/1 16/7/1
f 17/13/1 18/14/1 19/11/1 20/15/1
f 21/13/1 22/14/1 23/11/1 24/15/1
f 25/16/1 26/17/1 27/14/1 28/13/1
f 29/16/1 30/17/1 31/14/1 32/13/1
f 33/18/1 34/19/1 35/20/1 36/21/1
f 37/19/1 38/22/1 39/23/1 40/20/1
f 41/18/1 42/19/1 43/20/1 44/21/1
f 45/19/1 46/22/1 47/23/1 48/20/1
f 49/24/1 50/25/1 51/19/1 52/18/1
f 53/25/1 54/26/1 55/22/1 56/19/1
f 57/24/1 58/25/1 59/19/1 60/18/1
f 61/25/1 62/26/1 63/22/1 64/19/1

