# Tiled2Unity generated file. Do not modify by hand.
# Wavefront file for 'untitled_mesh_0064.obj'

# Vertices (Count = 24)
v -70.08 -53.44 0
v -70.4 -53.44 0
v -70.4 -53.12 0
v -70.08 -53.12 0
v -70.4 -53.44 0
v -70.72 -53.44 0
v -70.72 -53.12 0
v -70.4 -53.12 0
v -71.36 -53.44 0
v -71.68 -53.44 0
v -71.68 -53.12 0
v -71.36 -53.12 0
v -70.08 -53.76 0
v -70.4 -53.76 0
v -70.4 -53.44 0
v -70.08 -53.44 0
v -70.4 -53.76 0
v -70.72 -53.76 0
v -70.72 -53.44 0
v -70.4 -53.44 0
v -71.36 -53.76 0
v -71.68 -53.76 0
v -71.68 -53.44 0
v -71.36 -53.44 0

# Texture cooridinates (Count = 15)
vt 0.6875 0.125
vt 0.75 0.125
vt 0.75 0.1875
vt 0.6875 0.1875
vt 0.8125 0.125
vt 0.8125 0.1875
vt 0.6875 0.4375
vt 0.75 0.4375
vt 0.75 0.5
vt 0.6875 0.5
vt 0.6875 0.0625
vt 0.75 0.0625
vt 0.8125 0.0625
vt 0.6875 0.375
vt 0.75 0.375

# Normal
vn 0 0 -1

# Mesh description
g untitled_mesh_0064

# Faces
f 1/1/1 2/2/1 3/3/1 4/4/1
f 5/2/1 6/5/1 7/6/1 8/3/1
f 9/7/1 10/8/1 11/9/1 12/10/1
f 13/11/1 14/12/1 15/2/1 16/1/1
f 17/12/1 18/13/1 19/5/1 20/2/1
f 21/14/1 22/15/1 23/8/1 24/7/1

