# Tiled2Unity generated file. Do not modify by hand.
# Wavefront file for 'untitled_mesh_0056.obj'

# Vertices (Count = 232)
v -2.88 -1.6 0
v -3.2 -1.6 0
v -3.2 -1.28 0
v -2.88 -1.28 0
v -1.6 -2.56 0
v -1.92 -2.56 0
v -1.92 -2.24 0
v -1.6 -2.24 0
v -0.32 -2.88 0
v -0.64 -2.88 0
v -0.64 -2.56 0
v -0.32 -2.56 0
v -2.88 -3.2 0
v -3.2 -3.2 0
v -3.2 -2.88 0
v -2.88 -2.88 0
v -4.16 -3.2 0
v -4.48 -3.2 0
v -4.48 -2.88 0
v -4.16 -2.88 0
v -0.32 -3.52 0
v -0.64 -3.52 0
v -0.64 -3.2 0
v -0.32 -3.2 0
v -3.84 -3.52 0
v -4.16 -3.52 0
v -4.16 -3.2 0
v -3.84 -3.2 0
v -8.32 -4.8 0
v -8.639999 -4.8 0
v -8.639999 -4.48 0
v -8.32 -4.48 0
v -0.32 -5.44 0
v -0.64 -5.44 0
v -0.64 -5.12 0
v -0.32 -5.12 0
v -3.2 -5.76 0
v -3.52 -5.76 0
v -3.52 -5.44 0
v -3.2 -5.44 0
v -1.6 -6.4 0
v -1.92 -6.4 0
v -1.92 -6.08 0
v -1.6 -6.08 0
v -0.32 -7.04 0
v -0.64 -7.04 0
v -0.64 -6.72 0
v -0.32 -6.72 0
v -1.28 -7.68 0
v -1.6 -7.68 0
v -1.6 -7.36 0
v -1.28 -7.36 0
v -2.88 -7.68 0
v -3.2 -7.68 0
v -3.2 -7.36 0
v -2.88 -7.36 0
v -2.56 -8 0
v -2.88 -8 0
v -2.88 -7.68 0
v -2.56 -7.68 0
v -0.32 -8.639999 0
v -0.64 -8.639999 0
v -0.64 -8.32 0
v -0.32 -8.32 0
v -1.28 -9.28 0
v -1.6 -9.28 0
v -1.6 -8.96 0
v -1.28 -8.96 0
v -2.88 -9.599999 0
v -3.2 -9.599999 0
v -3.2 -9.28 0
v -2.88 -9.28 0
v -1.92 -9.92 0
v -2.24 -9.92 0
v -2.24 -9.599999 0
v -1.92 -9.599999 0
v -5.44 -9.92 0
v -5.76 -9.92 0
v -5.76 -9.599999 0
v -5.44 -9.599999 0
v -6.08 -16.96 0
v -6.4 -16.96 0
v -6.4 -16.64 0
v -6.08 -16.64 0
v -6.4 -16.96 0
v -6.72 -16.96 0
v -6.72 -16.64 0
v -6.4 -16.64 0
v -75.52 -16.96 0
v -75.84 -16.96 0
v -75.84 -16.64 0
v -75.52 -16.64 0
v -6.08 -17.28 0
v -6.4 -17.28 0
v -6.4 -16.96 0
v -6.08 -16.96 0
v -6.4 -17.28 0
v -6.72 -17.28 0
v -6.72 -16.96 0
v -6.4 -16.96 0
v -28.48 -17.28 0
v -28.8 -17.28 0
v -28.8 -16.96 0
v -28.48 -16.96 0
v -80.64 -17.28 0
v -80.96 -17.28 0
v -80.96 -16.96 0
v -80.64 -16.96 0
v -30.4 -18.88 0
v -30.72 -18.88 0
v -30.72 -18.56 0
v -30.4 -18.56 0
v -25.28 -19.2 0
v -25.6 -19.2 0
v -25.6 -18.88 0
v -25.28 -18.88 0
v -35.84 -19.52 0
v -36.16 -19.52 0
v -36.16 -19.2 0
v -35.84 -19.2 0
v -12.48 -19.84 0
v -12.8 -19.84 0
v -12.8 -19.52 0
v -12.48 -19.52 0
v -19.52 -21.12 0
v -19.84 -21.12 0
v -19.84 -20.8 0
v -19.52 -20.8 0
v -44.8 -21.12 0
v -45.12 -21.12 0
v -45.12 -20.8 0
v -44.8 -20.8 0
v -70.4 -21.44 0
v -70.72 -21.44 0
v -70.72 -21.12 0
v -70.4 -21.12 0
v -88.32 -21.76 0
v -88.64 -21.76 0
v -88.64 -21.44 0
v -88.32 -21.44 0
v -72 -22.4 0
v -72.32 -22.4 0
v -72.32 -22.08 0
v -72 -22.08 0
v -68.48 -23.68 0
v -68.8 -23.68 0
v -68.8 -23.36 0
v -68.48 -23.36 0
v -20.16 -24.32 0
v -20.48 -24.32 0
v -20.48 -24 0
v -20.16 -24 0
v -64.96 -24.96 0
v -65.28 -24.96 0
v -65.28 -24.64 0
v -64.96 -24.64 0
v -15.68 -26.24 0
v -16 -26.24 0
v -16 -25.92 0
v -15.68 -25.92 0
v -67.84 -26.24 0
v -68.16 -26.24 0
v -68.16 -25.92 0
v -67.84 -25.92 0
v -87.36 -30.72 0
v -87.68 -30.72 0
v -87.68 -30.4 0
v -87.36 -30.4 0
v -19.84 -31.36 0
v -20.16 -31.36 0
v -20.16 -31.04 0
v -19.84 -31.04 0
v -24.32 -33.92 0
v -24.64 -33.92 0
v -24.64 -33.6 0
v -24.32 -33.6 0
v -37.44 -35.2 0
v -37.76 -35.2 0
v -37.76 -34.88 0
v -37.44 -34.88 0
v -32.32 -35.52 0
v -32.64 -35.52 0
v -32.64 -35.2 0
v -32.32 -35.2 0
v -34.56 -39.04 0
v -34.88 -39.04 0
v -34.88 -38.72 0
v -34.56 -38.72 0
v -87.68 -39.36 0
v -88 -39.36 0
v -88 -39.04 0
v -87.68 -39.04 0
v -25.28 -40.32 0
v -25.6 -40.32 0
v -25.6 -40 0
v -25.28 -40 0
v -28.48 -40.32 0
v -28.8 -40.32 0
v -28.8 -40 0
v -28.48 -40 0
v -64.32 -40.64 0
v -64.64 -40.64 0
v -64.64 -40.32 0
v -64.32 -40.32 0
v -80.64 -43.2 0
v -80.96 -43.2 0
v -80.96 -42.88 0
v -80.64 -42.88 0
v -76.48 -44.16 0
v -76.8 -44.16 0
v -76.8 -43.84 0
v -76.48 -43.84 0
v -53.44 -44.48 0
v -53.76 -44.48 0
v -53.76 -44.16 0
v -53.44 -44.16 0
v -43.52 -45.12 0
v -43.84 -45.12 0
v -43.84 -44.8 0
v -43.52 -44.8 0
v -68.48 -45.12 0
v -68.8 -45.12 0
v -68.8 -44.8 0
v -68.48 -44.8 0
v -34.24 -46.08 0
v -34.56 -46.08 0
v -34.56 -45.76 0
v -34.24 -45.76 0
v -46.72 -46.4 0
v -47.04 -46.4 0
v -47.04 -46.08 0
v -46.72 -46.08 0

# Texture cooridinates (Count = 32)
vt 0.9375 0.53125
vt 0.96875 0.53125
vt 0.96875 0.5625
vt 0.9375 0.5625
vt 0.96875 0.4375
vt 1 0.4375
vt 1 0.46875
vt 0.96875 0.46875
vt 0.9375 0.5
vt 0.96875 0.5
vt 0.96875 0.40625
vt 1 0.40625
vt 0.9375 0.40625
vt 0.9375 0.4375
vt 0.90625 0.5
vt 0.90625 0.53125
vt 0.96875 0.375
vt 1 0.375
vt 0.90625 0.46875
vt 0.9375 0.46875
vt 0.90625 0.40625
vt 0.90625 0.4375
vt 0.9375 0.375
vt 0.8125 0.375
vt 0.84375 0.375
vt 0.84375 0.40625
vt 0.8125 0.40625
vt 0.875 0.375
vt 0.875 0.40625
vt 0.8125 0.34375
vt 0.84375 0.34375
vt 0.875 0.34375

# Normal
vn 0 0 -1

# Mesh description
g untitled_mesh_0056

# Faces
f 1/1/1 2/2/1 3/3/1 4/4/1
f 5/5/1 6/6/1 7/7/1 8/8/1
f 9/9/1 10/10/1 11/2/1 12/1/1
f 13/11/1 14/12/1 15/6/1 16/5/1
f 17/13/1 18/11/1 19/5/1 20/14/1
f 21/11/1 22/12/1 23/6/1 24/5/1
f 25/15/1 26/9/1 27/1/1 28/16/1
f 29/17/1 30/18/1 31/12/1 32/11/1
f 33/19/1 34/20/1 35/9/1 36/15/1
f 37/15/1 38/9/1 39/1/1 40/16/1
f 41/15/1 42/9/1 43/1/1 44/16/1
f 45/5/1 46/6/1 47/7/1 48/8/1
f 49/21/1 50/13/1 51/14/1 52/22/1
f 53/17/1 54/18/1 55/12/1 56/11/1
f 57/23/1 58/17/1 59/11/1 60/13/1
f 61/20/1 62/8/1 63/10/1 64/9/1
f 65/22/1 66/14/1 67/20/1 68/19/1
f 69/13/1 70/11/1 71/5/1 72/14/1
f 73/21/1 74/13/1 75/14/1 76/22/1
f 77/15/1 78/9/1 79/1/1 80/16/1
f 81/24/1 82/25/1 83/26/1 84/27/1
f 85/25/1 86/28/1 87/29/1 88/26/1
f 89/13/1 90/11/1 91/5/1 92/14/1
f 93/30/1 94/31/1 95/25/1 96/24/1
f 97/31/1 98/32/1 99/28/1 100/25/1
f 101/15/1 102/9/1 103/1/1 104/16/1
f 105/13/1 106/11/1 107/5/1 108/14/1
f 109/15/1 110/9/1 111/1/1 112/16/1
f 113/15/1 114/9/1 115/1/1 116/16/1
f 117/13/1 118/11/1 119/5/1 120/14/1
f 121/15/1 122/9/1 123/1/1 124/16/1
f 125/15/1 126/9/1 127/1/1 128/16/1
f 129/13/1 130/11/1 131/5/1 132/14/1
f 133/13/1 134/11/1 135/5/1 136/14/1
f 137/13/1 138/11/1 139/5/1 140/14/1
f 141/13/1 142/11/1 143/5/1 144/14/1
f 145/15/1 146/9/1 147/1/1 148/16/1
f 149/13/1 150/11/1 151/5/1 152/14/1
f 153/13/1 154/11/1 155/5/1 156/14/1
f 157/13/1 158/11/1 159/5/1 160/14/1
f 161/13/1 162/11/1 163/5/1 164/14/1
f 165/15/1 166/9/1 167/1/1 168/16/1
f 169/15/1 170/9/1 171/1/1 172/16/1
f 173/15/1 174/9/1 175/1/1 176/16/1
f 177/15/1 178/9/1 179/1/1 180/16/1
f 181/15/1 182/9/1 183/1/1 184/16/1
f 185/15/1 186/9/1 187/1/1 188/16/1
f 189/13/1 190/11/1 191/5/1 192/14/1
f 193/13/1 194/11/1 195/5/1 196/14/1
f 197/13/1 198/11/1 199/5/1 200/14/1
f 201/15/1 202/9/1 203/1/1 204/16/1
f 205/15/1 206/9/1 207/1/1 208/16/1
f 209/13/1 210/11/1 211/5/1 212/14/1
f 213/15/1 214/9/1 215/1/1 216/16/1
f 217/15/1 218/9/1 219/1/1 220/16/1
f 221/13/1 222/11/1 223/5/1 224/14/1
f 225/13/1 226/11/1 227/5/1 228/14/1
f 229/15/1 230/9/1 231/1/1 232/16/1

