# Tiled2Unity generated file. Do not modify by hand.
# Wavefront file for 'untitled_mesh_0065.obj'

# Vertices (Count = 36)
v -67.84 -53.76 0
v -68.16 -53.76 0
v -68.16 -53.44 0
v -67.84 -53.44 0
v -67.84 -54.08 0
v -68.16 -54.08 0
v -68.16 -53.76 0
v -67.84 -53.76 0
v -67.2 -54.72 0
v -67.52 -54.72 0
v -67.52 -54.4 0
v -67.2 -54.4 0
v -72.96 -56.32 0
v -73.28 -56.32 0
v -73.28 -56 0
v -72.96 -56 0
v -65.92 -56.64 0
v -66.24 -56.64 0
v -66.24 -56.32 0
v -65.92 -56.32 0
v -66.88 -56.64 0
v -67.2 -56.64 0
v -67.2 -56.32 0
v -66.88 -56.32 0
v -70.72 -56.64 0
v -71.04 -56.64 0
v -71.04 -56.32 0
v -70.72 -56.32 0
v -98.88 -121.92 0
v -99.2 -121.92 0
v -99.2 -121.6 0
v -98.88 -121.6 0
v -98.88 -122.24 0
v -99.2 -122.24 0
v -99.2 -121.92 0
v -98.88 -121.92 0

# Texture cooridinates (Count = 29)
vt 0.8125 0.5625
vt 0.875 0.5625
vt 0.875 0.625
vt 0.8125 0.625
vt 0.8125 0.5
vt 0.875 0.5
vt 0.1875 0.9375
vt 0.25 0.9375
vt 0.25 1
vt 0.1875 1
vt 0.6875 0.5
vt 0.75 0.5
vt 0.75 0.5625
vt 0.6875 0.5625
vt 0.125 0.9375
vt 0.125 1
vt 0.625 0.5625
vt 0.6875 0.625
vt 0.625 0.625
vt 0.375 0
vt 0.4375 0
vt 0.4375 0.0625
vt 0.375 0.0625
vt 0.75 0.0625
vt 0.8125 0.0625
vt 0.8125 0.125
vt 0.75 0.125
vt 0.75 0
vt 0.8125 0

# Normal
vn 0 0 -1

# Mesh description
g untitled_mesh_0065

# Faces
f 1/1/1 2/2/1 3/3/1 4/4/1
f 5/5/1 6/6/1 7/2/1 8/1/1
f 9/7/1 10/8/1 11/9/1 12/10/1
f 13/11/1 14/12/1 15/13/1 16/14/1
f 17/15/1 18/7/1 19/10/1 20/16/1
f 21/17/1 22/14/1 23/18/1 24/19/1
f 25/20/1 26/21/1 27/22/1 28/23/1
f 29/24/1 30/25/1 31/26/1 32/27/1
f 33/28/1 34/29/1 35/25/1 36/24/1

